%TF.GenerationSoftware,Altium Limited,Altium Designer,24.10.1 (45)*%
G04 Layer_Color=255*
%FSLAX45Y45*%
%MOMM*%
%TF.SameCoordinates,F50C4461-6059-43A5-BEE7-B7ABC5EDFC2B*%
%TF.FilePolarity,Positive*%
%TF.FileFunction,Pads,Bot*%
%TF.Part,Single*%
G01*
G75*
%TA.AperFunction,ComponentPad*%
%ADD33R,1.40000X1.40000*%
%ADD34C,1.40000*%
%ADD35C,2.00000*%
%ADD36R,2.00000X2.00000*%
%ADD37C,5.00000*%
%ADD38C,1.60000*%
%ADD39C,0.64999*%
%ADD40O,1.90000X1.00000*%
%ADD41O,2.10000X1.00000*%
%TA.AperFunction,SMDPad,CuDef*%
%AMCUSTOMSHAPE43*
4,1,5,-0.55245,-0.45720,0.55245,-0.45720,0.55245,0.45720,-0.55245,0.45720,-0.13335,0.00000,-0.55245,-0.45720,0.0*%
%ADD43CUSTOMSHAPE43*%

%AMCUSTOMSHAPE44*
4,1,5,0.15875,0.45720,-0.57785,0.45720,-0.57785,-0.45720,0.15875,-0.45720,0.57785,0.00000,0.15875,0.45720,0.0*%
%ADD44CUSTOMSHAPE44*%

%ADD45C,2.00000*%
%AMCUSTOMSHAPE46*
4,1,5,0.55245,0.45720,-0.55245,0.45720,-0.55245,-0.45720,0.55245,-0.45720,0.13335,0.00000,0.55245,0.45720,0.0*%
%ADD46CUSTOMSHAPE46*%

%AMCUSTOMSHAPE47*
4,1,5,-0.15875,-0.45720,0.57785,-0.45720,0.57785,0.45720,-0.15875,0.45720,-0.57785,0.00000,-0.15875,-0.45720,0.0*%
%ADD47CUSTOMSHAPE47*%

D33*
X6669100Y1093498D02*
D03*
D34*
X6869100D02*
D03*
X6669100Y1293498D02*
D03*
X6869100D02*
D03*
X6669100Y1493498D02*
D03*
X6869100D02*
D03*
X6669100Y1693497D02*
D03*
X6869100D02*
D03*
X6669100Y1893497D02*
D03*
X6869100D02*
D03*
X6669100Y2093496D02*
D03*
X6869100D02*
D03*
D35*
X1866900Y2870200D02*
D03*
X1612900D02*
D03*
X1358900D02*
D03*
D36*
X1104900D02*
D03*
D37*
X6743700Y2857500D02*
D03*
X330200D02*
D03*
Y381000D02*
D03*
X6743700D02*
D03*
D38*
X5964199Y2726500D02*
D03*
Y2226500D02*
D03*
X5364201Y2726500D02*
D03*
Y2226500D02*
D03*
X5389601Y537400D02*
D03*
Y1037399D02*
D03*
X5989599Y537400D02*
D03*
Y1037399D02*
D03*
D39*
X515569Y1304486D02*
D03*
Y1882488D02*
D03*
D40*
X145560Y1160989D02*
D03*
Y2026011D02*
D03*
D41*
X565559Y1160989D02*
D03*
Y2026011D02*
D03*
D43*
X6398343Y1601595D02*
D03*
D44*
X6308173D02*
D03*
D45*
X5016500Y2921000D02*
D03*
X6070600Y1605400D02*
D03*
X228600Y1765300D02*
D03*
Y1511300D02*
D03*
X901700Y1473200D02*
D03*
Y1155700D02*
D03*
X2082800Y482600D02*
D03*
X3251200Y426500D02*
D03*
X5135202Y1349404D02*
D03*
X3543300Y1498600D02*
D03*
D46*
X2743269Y571740D02*
D03*
Y762240D02*
D03*
X2743269Y952740D02*
D03*
Y1143240D02*
D03*
Y1333740D02*
D03*
Y1524240D02*
D03*
X2743269Y1714740D02*
D03*
Y2095740D02*
D03*
Y2286240D02*
D03*
Y1905240D02*
D03*
Y2476740D02*
D03*
D47*
X2833439Y571740D02*
D03*
Y762240D02*
D03*
X2833439Y952740D02*
D03*
Y1143240D02*
D03*
Y1333740D02*
D03*
Y1524240D02*
D03*
X2833439Y1714740D02*
D03*
X2833439Y2095740D02*
D03*
X2833439Y2286240D02*
D03*
Y1905240D02*
D03*
Y2476740D02*
D03*
%TF.MD5,b02608812fb8083669096ef3dcea45ad*%
M02*
