%TF.GenerationSoftware,Altium Limited,Altium Designer,24.10.1 (45)*%
G04 Layer_Color=8421504*
%FSLAX45Y45*%
%MOMM*%
%TF.SameCoordinates,F50C4461-6059-43A5-BEE7-B7ABC5EDFC2B*%
%TF.FilePolarity,Positive*%
%TF.FileFunction,Paste,Top*%
%TF.Part,Single*%
G01*
G75*
%TA.AperFunction,SMDPad,CuDef*%
%ADD10R,2.50000X3.50000*%
G04:AMPARAMS|DCode=11|XSize=0.49mm|YSize=0.6mm|CornerRadius=0.049mm|HoleSize=0mm|Usage=FLASHONLY|Rotation=90.000|XOffset=0mm|YOffset=0mm|HoleType=Round|Shape=RoundedRectangle|*
%AMROUNDEDRECTD11*
21,1,0.49000,0.50200,0,0,90.0*
21,1,0.39200,0.60000,0,0,90.0*
1,1,0.09800,0.25100,0.19600*
1,1,0.09800,0.25100,-0.19600*
1,1,0.09800,-0.25100,-0.19600*
1,1,0.09800,-0.25100,0.19600*
%
%ADD11ROUNDEDRECTD11*%
G04:AMPARAMS|DCode=12|XSize=0.6mm|YSize=0.54mm|CornerRadius=0.1431mm|HoleSize=0mm|Usage=FLASHONLY|Rotation=0.000|XOffset=0mm|YOffset=0mm|HoleType=Round|Shape=RoundedRectangle|*
%AMROUNDEDRECTD12*
21,1,0.60000,0.25380,0,0,0.0*
21,1,0.31380,0.54000,0,0,0.0*
1,1,0.28620,0.15690,-0.12690*
1,1,0.28620,-0.15690,-0.12690*
1,1,0.28620,-0.15690,0.12690*
1,1,0.28620,0.15690,0.12690*
%
%ADD12ROUNDEDRECTD12*%
G04:AMPARAMS|DCode=13|XSize=0.9mm|YSize=0.96mm|CornerRadius=0.225mm|HoleSize=0mm|Usage=FLASHONLY|Rotation=180.000|XOffset=0mm|YOffset=0mm|HoleType=Round|Shape=RoundedRectangle|*
%AMROUNDEDRECTD13*
21,1,0.90000,0.51000,0,0,180.0*
21,1,0.45000,0.96000,0,0,180.0*
1,1,0.45000,-0.22500,0.25500*
1,1,0.45000,0.22500,0.25500*
1,1,0.45000,0.22500,-0.25500*
1,1,0.45000,-0.22500,-0.25500*
%
%ADD13ROUNDEDRECTD13*%
%ADD14R,3.59999X2.47000*%
%ADD15R,0.98001X2.47000*%
G04:AMPARAMS|DCode=16|XSize=0.49mm|YSize=0.6mm|CornerRadius=0.049mm|HoleSize=0mm|Usage=FLASHONLY|Rotation=180.000|XOffset=0mm|YOffset=0mm|HoleType=Round|Shape=RoundedRectangle|*
%AMROUNDEDRECTD16*
21,1,0.49000,0.50200,0,0,180.0*
21,1,0.39200,0.60000,0,0,180.0*
1,1,0.09800,-0.19600,0.25100*
1,1,0.09800,0.19600,0.25100*
1,1,0.09800,0.19600,-0.25100*
1,1,0.09800,-0.19600,-0.25100*
%
%ADD16ROUNDEDRECTD16*%
G04:AMPARAMS|DCode=20|XSize=1.15mm|YSize=1.45mm|CornerRadius=0.2875mm|HoleSize=0mm|Usage=FLASHONLY|Rotation=270.000|XOffset=0mm|YOffset=0mm|HoleType=Round|Shape=RoundedRectangle|*
%AMROUNDEDRECTD20*
21,1,1.15000,0.87500,0,0,270.0*
21,1,0.57500,1.45000,0,0,270.0*
1,1,0.57500,-0.43750,-0.28750*
1,1,0.57500,-0.43750,0.28750*
1,1,0.57500,0.43750,0.28750*
1,1,0.57500,0.43750,-0.28750*
%
%ADD20ROUNDEDRECTD20*%
G04:AMPARAMS|DCode=21|XSize=0.6mm|YSize=0.54mm|CornerRadius=0.1431mm|HoleSize=0mm|Usage=FLASHONLY|Rotation=270.000|XOffset=0mm|YOffset=0mm|HoleType=Round|Shape=RoundedRectangle|*
%AMROUNDEDRECTD21*
21,1,0.60000,0.25380,0,0,270.0*
21,1,0.31380,0.54000,0,0,270.0*
1,1,0.28620,-0.12690,-0.15690*
1,1,0.28620,-0.12690,0.15690*
1,1,0.28620,0.12690,0.15690*
1,1,0.28620,0.12690,-0.15690*
%
%ADD21ROUNDEDRECTD21*%
%ADD22R,0.60000X1.10000*%
G04:AMPARAMS|DCode=23|XSize=0.9mm|YSize=0.96mm|CornerRadius=0.225mm|HoleSize=0mm|Usage=FLASHONLY|Rotation=270.000|XOffset=0mm|YOffset=0mm|HoleType=Round|Shape=RoundedRectangle|*
%AMROUNDEDRECTD23*
21,1,0.90000,0.51000,0,0,270.0*
21,1,0.45000,0.96000,0,0,270.0*
1,1,0.45000,-0.25500,-0.22500*
1,1,0.45000,-0.25500,0.22500*
1,1,0.45000,0.25500,0.22500*
1,1,0.45000,0.25500,-0.22500*
%
%ADD23ROUNDEDRECTD23*%
%ADD24R,1.50000X2.50000*%
%ADD25R,0.66500X0.28001*%
%TA.AperFunction,ConnectorPad*%
%ADD26R,1.15001X0.60000*%
%ADD27R,1.15001X0.30000*%
G36*
X4837222Y2077405D02*
X4838967Y2077362D01*
X4840709Y2077232D01*
X4842439Y2077014D01*
X4844158Y2076712D01*
X4845861Y2076323D01*
X4847539Y2075851D01*
X4849193Y2075294D01*
X4850818Y2074657D01*
X4852408Y2073938D01*
X4853963Y2073143D01*
X4855472Y2072269D01*
X4856940Y2071324D01*
X4858355Y2070303D01*
X4859721Y2069216D01*
X4861029Y2068060D01*
X4862279Y2066844D01*
X4863465Y2065564D01*
X4864590Y2064228D01*
X4865642Y2062836D01*
X4866625Y2061393D01*
X4867537Y2059904D01*
X4868367Y2058373D01*
X4869127Y2056801D01*
X4869802Y2055190D01*
X4870399Y2053552D01*
X4870917Y2051883D01*
X4871347Y2050191D01*
X4871692Y2048482D01*
X4871951Y2046755D01*
X4872124Y2045020D01*
X4872213Y2043278D01*
Y2041530D01*
X4872124Y2039788D01*
X4871951Y2038053D01*
X4871692Y2036326D01*
X4871347Y2034616D01*
X4870917Y2032925D01*
X4870399Y2031256D01*
X4869802Y2029618D01*
X4869127Y2028007D01*
X4868367Y2026435D01*
X4867537Y2024903D01*
X4866625Y2023415D01*
X4865642Y2021972D01*
X4864590Y2020580D01*
X4863465Y2019244D01*
X4862279Y2017964D01*
X4861029Y2016747D01*
X4859721Y2015592D01*
X4858355Y2014504D01*
X4856940Y2013483D01*
X4855472Y2012539D01*
X4853963Y2011665D01*
X4852408Y2010870D01*
X4850818Y2010151D01*
X4849192Y2009513D01*
X4847539Y2008957D01*
X4845860Y2008485D01*
X4844158Y2008096D01*
X4842439Y2007794D01*
X4840709Y2007575D01*
X4838967Y2007446D01*
X4837221Y2007403D01*
X4717222D01*
X4715480Y2007446D01*
X4713737Y2007575D01*
X4712007Y2007794D01*
X4710288Y2008096D01*
X4708586Y2008485D01*
X4706904Y2008957D01*
X4705251Y2009513D01*
X4703625Y2010151D01*
X4702035Y2010870D01*
X4700483Y2011665D01*
X4698972Y2012539D01*
X4697504Y2013483D01*
X4696089Y2014504D01*
X4694723Y2015592D01*
X4693415Y2016747D01*
X4692165Y2017964D01*
X4690981Y2019244D01*
X4689856Y2020580D01*
X4688802Y2021972D01*
X4687819Y2023415D01*
X4686910Y2024903D01*
X4686076Y2026435D01*
X4685317Y2028007D01*
X4684641Y2029617D01*
X4684044Y2031256D01*
X4683529Y2032925D01*
X4683097Y2034616D01*
X4682752Y2036326D01*
X4682493Y2038053D01*
X4682320Y2039788D01*
X4682233Y2041530D01*
Y2043278D01*
X4682320Y2045020D01*
X4682493Y2046755D01*
X4682752Y2048482D01*
X4683097Y2050191D01*
X4683529Y2051883D01*
X4684044Y2053552D01*
X4684641Y2055190D01*
X4685317Y2056801D01*
X4686076Y2058373D01*
X4686910Y2059904D01*
X4687819Y2061393D01*
X4688802Y2062836D01*
X4689856Y2064228D01*
X4690981Y2065564D01*
X4692165Y2066844D01*
X4693415Y2068060D01*
X4694723Y2069216D01*
X4696089Y2070303D01*
X4697504Y2071324D01*
X4698972Y2072269D01*
X4700483Y2073143D01*
X4702035Y2073938D01*
X4703625Y2074657D01*
X4705251Y2075295D01*
X4706904Y2075851D01*
X4708586Y2076323D01*
X4710288Y2076712D01*
X4712007Y2077014D01*
X4713737Y2077232D01*
X4715480Y2077362D01*
X4717222Y2077405D01*
X4837222Y2077405D01*
D02*
G37*
G36*
X648880Y2068386D02*
X662945Y2054321D01*
X670557Y2035944D01*
Y2016053D01*
X662945Y1997676D01*
X648880Y1983610D01*
X630503Y1975999D01*
X620558D01*
X510555Y1975999D01*
X500610Y1975999D01*
X482232Y1983611D01*
X468167Y1997676D01*
X460555Y2016053D01*
Y2035944D01*
X468167Y2054321D01*
X482232Y2068387D01*
X500610Y2075998D01*
X630503D01*
X648880Y2068386D01*
D02*
G37*
G36*
X200514Y2075998D02*
X218891Y2068387D01*
X232956Y2054321D01*
X240568Y2035944D01*
Y2016053D01*
X232956Y1997676D01*
X218891Y1983611D01*
X200514Y1975999D01*
X190569Y1975999D01*
X100566Y1975999D01*
X90621D01*
X72243Y1983610D01*
X58178Y1997676D01*
X50566Y2016053D01*
Y2035944D01*
X58178Y2054321D01*
X72243Y2068387D01*
X90621Y2075998D01*
X100566D01*
X190569Y2075999D01*
X200514Y2075998D01*
D02*
G37*
G36*
X699338Y1883499D02*
X584337D01*
Y1943499D01*
X699338D01*
X699338Y1883499D01*
D02*
G37*
G36*
X699338Y1803500D02*
X584337D01*
X584337Y1863499D01*
X699338D01*
Y1803500D01*
D02*
G37*
G36*
X5107140Y1992175D02*
X5112113Y1991802D01*
X5117061Y1991182D01*
X5121971Y1990316D01*
X5126833Y1989209D01*
X5131633Y1987857D01*
X5136358Y1986270D01*
X5141003Y1984449D01*
X5145545Y1982396D01*
X5149982Y1980123D01*
X5154300Y1977629D01*
X5158489Y1974924D01*
X5162537Y1972013D01*
X5166436Y1968904D01*
X5170173Y1965604D01*
X5173744Y1962125D01*
X5177135Y1958470D01*
X5180343Y1954649D01*
X5183350Y1950674D01*
X5186162Y1946554D01*
X5188760Y1942300D01*
X5191143Y1937921D01*
X5193307Y1933428D01*
X5195242Y1928833D01*
X5196949Y1924149D01*
X5198420Y1919384D01*
X5199649Y1914553D01*
X5200637Y1909666D01*
X5201379Y1904733D01*
X5201877Y1899773D01*
X5202128Y1894794D01*
Y1889806D01*
X5201877Y1884827D01*
X5201379Y1879867D01*
X5200637Y1874934D01*
X5199649Y1870047D01*
X5198420Y1865216D01*
X5196949Y1860451D01*
X5195242Y1855767D01*
X5193307Y1851172D01*
X5191143Y1846679D01*
X5188760Y1842300D01*
X5186162Y1838046D01*
X5183350Y1833926D01*
X5180343Y1829951D01*
X5177135Y1826130D01*
X5173744Y1822475D01*
X5170173Y1818996D01*
X5166436Y1815696D01*
X5162537Y1812587D01*
X5158489Y1809676D01*
X5154300Y1806971D01*
X5149982Y1804477D01*
X5145545Y1802204D01*
X5141003Y1800151D01*
X5136358Y1798330D01*
X5131633Y1796743D01*
X5126833Y1795391D01*
X5121971Y1794284D01*
X5117061Y1793418D01*
X5112113Y1792798D01*
X5107140Y1792425D01*
X5102156Y1792300D01*
X4952159D01*
X4947176Y1792425D01*
X4942202Y1792798D01*
X4937255Y1793418D01*
X4932345Y1794284D01*
X4927483Y1795391D01*
X4922683Y1796742D01*
X4917958Y1798330D01*
X4913318Y1800151D01*
X4908771Y1802204D01*
X4904334Y1804477D01*
X4900015Y1806971D01*
X4895827Y1809676D01*
X4891778Y1812587D01*
X4887879Y1815696D01*
X4884143Y1818996D01*
X4880572Y1822475D01*
X4877181Y1826131D01*
X4873978Y1829951D01*
X4870966Y1833926D01*
X4868159Y1838046D01*
X4865561Y1842300D01*
X4863173Y1846679D01*
X4861009Y1851172D01*
X4859073Y1855767D01*
X4858515Y1857301D01*
X4716201D01*
X4713534Y1857405D01*
X4710882Y1857720D01*
X4708263Y1858241D01*
X4705693Y1858965D01*
X4703188Y1859890D01*
X4700765Y1861007D01*
X4698436Y1862313D01*
X4696216Y1863794D01*
X4694118Y1865447D01*
X4692160Y1867261D01*
X4690346Y1869219D01*
X4688693Y1871317D01*
X4687212Y1873537D01*
X4685906Y1875866D01*
X4684789Y1878289D01*
X4683864Y1880794D01*
X4683140Y1883364D01*
X4682620Y1885983D01*
X4682305Y1888635D01*
X4682200Y1891302D01*
X4682201Y1892300D01*
X4682200Y1892303D01*
X4682307Y1895048D01*
X4682632Y1897779D01*
X4683168Y1900474D01*
X4683912Y1903118D01*
X4684865Y1905696D01*
X4686016Y1908193D01*
X4687357Y1910591D01*
X4688886Y1912874D01*
X4690586Y1915033D01*
X4692452Y1917050D01*
X4694469Y1918916D01*
X4696628Y1920616D01*
X4698911Y1922145D01*
X4701309Y1923486D01*
X4703806Y1924637D01*
X4706384Y1925589D01*
X4709028Y1926333D01*
X4711723Y1926869D01*
X4714453Y1927195D01*
X4717199Y1927301D01*
X4858515D01*
X4859073Y1928833D01*
X4861009Y1933428D01*
X4863173Y1937921D01*
X4865561Y1942300D01*
X4868159Y1946554D01*
X4870966Y1950674D01*
X4873978Y1954649D01*
X4877181Y1958469D01*
X4880572Y1962125D01*
X4884143Y1965604D01*
X4887879Y1968904D01*
X4891778Y1972013D01*
X4895827Y1974924D01*
X4900015Y1977629D01*
X4904334Y1980123D01*
X4908771Y1982396D01*
X4913318Y1984449D01*
X4917958Y1986270D01*
X4922683Y1987858D01*
X4927483Y1989209D01*
X4932345Y1990316D01*
X4937255Y1991182D01*
X4942202Y1991802D01*
X4947176Y1992175D01*
X4952159Y1992300D01*
X5102156D01*
X5107140Y1992175D01*
D02*
G37*
G36*
X699338Y1783492D02*
Y1753492D01*
X584337D01*
X584337Y1783492D01*
X699338Y1783492D01*
D02*
G37*
G36*
X4838967Y1777136D02*
X4840709Y1777007D01*
X4842439Y1776788D01*
X4844158Y1776486D01*
X4845860Y1776098D01*
X4847539Y1775625D01*
X4849193Y1775069D01*
X4850818Y1774431D01*
X4852408Y1773712D01*
X4853963Y1772917D01*
X4855472Y1772044D01*
X4856940Y1771099D01*
X4858355Y1770078D01*
X4859721Y1768990D01*
X4861029Y1767835D01*
X4862279Y1766618D01*
X4863465Y1765338D01*
X4864590Y1764002D01*
X4865642Y1762610D01*
X4866625Y1761167D01*
X4867537Y1759679D01*
X4868367Y1758147D01*
X4869127Y1756575D01*
X4869802Y1754965D01*
X4870399Y1753326D01*
X4870917Y1751658D01*
X4871347Y1749966D01*
X4871692Y1748257D01*
X4871951Y1746529D01*
X4872124Y1744794D01*
X4872213Y1743052D01*
Y1741305D01*
X4872124Y1739562D01*
X4871951Y1737827D01*
X4871692Y1736100D01*
X4871347Y1734391D01*
X4870917Y1732699D01*
X4870399Y1731030D01*
X4869802Y1729392D01*
X4869127Y1727781D01*
X4868367Y1726209D01*
X4867537Y1724678D01*
X4866625Y1723189D01*
X4865642Y1721747D01*
X4864590Y1720355D01*
X4863465Y1719019D01*
X4862279Y1717739D01*
X4861029Y1716522D01*
X4859721Y1715366D01*
X4858355Y1714279D01*
X4856940Y1713258D01*
X4855472Y1712313D01*
X4853963Y1711439D01*
X4852408Y1710644D01*
X4850818Y1709925D01*
X4849192Y1709288D01*
X4847539Y1708731D01*
X4845860Y1708259D01*
X4844158Y1707871D01*
X4842439Y1707568D01*
X4840709Y1707350D01*
X4838967Y1707220D01*
X4837222Y1707177D01*
X4717222Y1707177D01*
X4715480Y1707220D01*
X4713737Y1707350D01*
X4712007Y1707568D01*
X4710288Y1707871D01*
X4708586Y1708259D01*
X4706904Y1708732D01*
X4705251Y1709288D01*
X4703625Y1709925D01*
X4702035Y1710644D01*
X4700483Y1711440D01*
X4698972Y1712313D01*
X4697504Y1713258D01*
X4696089Y1714279D01*
X4694722Y1715366D01*
X4693415Y1716522D01*
X4692165Y1717739D01*
X4690981Y1719019D01*
X4689856Y1720355D01*
X4688802Y1721747D01*
X4687819Y1723189D01*
X4686910Y1724678D01*
X4686076Y1726209D01*
X4685317Y1727782D01*
X4684641Y1729392D01*
X4684044Y1731030D01*
X4683529Y1732699D01*
X4683097Y1734391D01*
X4682752Y1736100D01*
X4682493Y1737827D01*
X4682320Y1739562D01*
X4682233Y1741305D01*
Y1743052D01*
X4682320Y1744795D01*
X4682493Y1746529D01*
X4682752Y1748257D01*
X4683097Y1749966D01*
X4683529Y1751658D01*
X4684045Y1753326D01*
X4684641Y1754965D01*
X4685317Y1756575D01*
X4686076Y1758147D01*
X4686910Y1759679D01*
X4687819Y1761167D01*
X4688802Y1762610D01*
X4689856Y1764002D01*
X4690981Y1765338D01*
X4692165Y1766618D01*
X4693415Y1767835D01*
X4694723Y1768991D01*
X4696089Y1770078D01*
X4697504Y1771099D01*
X4698972Y1772044D01*
X4700483Y1772917D01*
X4702035Y1773712D01*
X4703625Y1774431D01*
X4705251Y1775069D01*
X4706904Y1775625D01*
X4708586Y1776098D01*
X4710288Y1776486D01*
X4712007Y1776789D01*
X4713737Y1777007D01*
X4715480Y1777136D01*
X4717222Y1777180D01*
X4837222D01*
X4838967Y1777136D01*
D02*
G37*
G36*
X699338Y1733492D02*
Y1703492D01*
X584337D01*
X584337Y1733492D01*
X699338Y1733492D01*
D02*
G37*
G36*
Y1683489D02*
Y1653490D01*
X584337D01*
X584337Y1683490D01*
X699338Y1683489D01*
D02*
G37*
G36*
Y1603492D02*
X584337Y1603493D01*
Y1633492D01*
X699338D01*
X699338Y1603492D01*
D02*
G37*
G36*
Y1553492D02*
X584337Y1553493D01*
Y1583492D01*
X699338D01*
X699338Y1553492D01*
D02*
G37*
G36*
Y1503495D02*
X584337D01*
Y1533495D01*
X699338Y1533495D01*
Y1503495D01*
D02*
G37*
G36*
Y1453498D02*
X584337D01*
Y1483498D01*
X699338D01*
Y1453498D01*
D02*
G37*
G36*
X699338Y1403505D02*
X584337D01*
X584337Y1433505D01*
X699338D01*
X699338Y1403505D01*
D02*
G37*
G36*
X699338Y1323501D02*
X584337D01*
X584337Y1383500D01*
X699338D01*
Y1323501D01*
D02*
G37*
G36*
Y1243501D02*
X584337D01*
Y1303501D01*
X699338D01*
X699338Y1243501D01*
D02*
G37*
G36*
X648880Y1203390D02*
X662945Y1189324D01*
X670557Y1170947D01*
Y1151056D01*
X662945Y1132679D01*
X648880Y1118614D01*
X630503Y1111002D01*
X500610D01*
X482232Y1118614D01*
X468167Y1132679D01*
X460555Y1151056D01*
Y1170947D01*
X468167Y1189324D01*
X482232Y1203390D01*
X500610Y1211001D01*
X510555Y1211001D01*
X620558Y1211001D01*
X630503D01*
X648880Y1203390D01*
D02*
G37*
G36*
X218891D02*
X232956Y1189324D01*
X240568Y1170947D01*
Y1151056D01*
X232956Y1132679D01*
X218891Y1118614D01*
X200514Y1111002D01*
X190569Y1111001D01*
X100566Y1111002D01*
X90621D01*
X72243Y1118614D01*
X58178Y1132679D01*
X50566Y1151056D01*
Y1170947D01*
X58178Y1189324D01*
X72243Y1203390D01*
X90621Y1211001D01*
X100566D01*
X190569Y1211001D01*
X200514Y1211001D01*
X218891Y1203390D01*
D02*
G37*
D10*
X3517500Y2514600D02*
D03*
X4102500D02*
D03*
X3517500Y1079500D02*
D03*
X4102500D02*
D03*
D11*
X3251200Y1912843D02*
D03*
Y1821843D02*
D03*
X1612900Y2636300D02*
D03*
Y2545300D02*
D03*
X1358900Y2636300D02*
D03*
Y2545300D02*
D03*
X3771900Y388400D02*
D03*
Y297400D02*
D03*
X3251200Y335500D02*
D03*
Y426500D02*
D03*
X3771900Y1925100D02*
D03*
Y1834100D02*
D03*
D12*
X2984500Y1909900D02*
D03*
Y1823900D02*
D03*
X3111500Y1909900D02*
D03*
Y1823900D02*
D03*
X3314700Y1011100D02*
D03*
Y1097100D02*
D03*
X5321300Y1595300D02*
D03*
Y1681300D02*
D03*
X5448300Y1595300D02*
D03*
Y1681300D02*
D03*
X4826000Y2382700D02*
D03*
Y2468700D02*
D03*
X4981329Y2383017D02*
D03*
Y2469017D02*
D03*
Y1036500D02*
D03*
Y1122500D02*
D03*
X4826000Y1036500D02*
D03*
Y1122500D02*
D03*
X3111500Y338000D02*
D03*
Y424000D02*
D03*
X2984500Y337067D02*
D03*
Y423067D02*
D03*
X3314700Y2433500D02*
D03*
Y2519500D02*
D03*
D13*
X1757800Y1219200D02*
D03*
X1595000D02*
D03*
X1427600D02*
D03*
X1264800D02*
D03*
X1074300Y1892300D02*
D03*
X1237100D02*
D03*
D14*
X1498600Y364211D02*
D03*
D15*
X1268603Y931189D02*
D03*
X1498600Y931190D02*
D03*
X1728597Y931189D02*
D03*
D16*
X1109607Y1634066D02*
D03*
Y1752599D02*
D03*
X3027900Y114300D02*
D03*
X3118900D02*
D03*
X3027900Y215900D02*
D03*
X3118900D02*
D03*
X3258840Y1590276D02*
D03*
X3167840D02*
D03*
X3167600Y1701800D02*
D03*
X3258600D02*
D03*
X2191800Y1638300D02*
D03*
X2100800D02*
D03*
X2191800Y1752600D02*
D03*
X2100800D02*
D03*
X2191800Y1866900D02*
D03*
X2100800D02*
D03*
X2191800Y1981200D02*
D03*
X2100800Y1981200D02*
D03*
X2191800Y2095500D02*
D03*
X2100800D02*
D03*
X2191800Y965200D02*
D03*
X2100800D02*
D03*
X2191800Y1066800D02*
D03*
X2100800D02*
D03*
X2191800Y1181100D02*
D03*
X2100800D02*
D03*
X2191800Y1295400D02*
D03*
X2100800D02*
D03*
X2191800Y1409700D02*
D03*
X2100800D02*
D03*
X2191800Y1524000D02*
D03*
X2100800D02*
D03*
X1200607Y1515533D02*
D03*
X1109607D02*
D03*
X1200607Y1634066D02*
D03*
Y1752599D02*
D03*
Y1397000D02*
D03*
X1109607D02*
D03*
D20*
X5816600Y1573700D02*
D03*
Y1753700D02*
D03*
X4394200Y989183D02*
D03*
Y1169183D02*
D03*
X4635500Y989500D02*
D03*
Y1169500D02*
D03*
X2565400Y278300D02*
D03*
Y458300D02*
D03*
X2794000Y278300D02*
D03*
Y458300D02*
D03*
Y1776583D02*
D03*
Y1956583D02*
D03*
X4635501Y2515700D02*
D03*
Y2335700D02*
D03*
X4394200Y2515700D02*
D03*
X4394199Y2335700D02*
D03*
X2565400Y1956583D02*
D03*
Y1776583D02*
D03*
D21*
X4680738Y1581410D02*
D03*
X4766738D02*
D03*
X4674891Y1464618D02*
D03*
X4760891D02*
D03*
X1430200Y1841500D02*
D03*
X1516200D02*
D03*
D22*
X3397504Y207899D02*
D03*
X3492500D02*
D03*
X3587496D02*
D03*
Y477901D02*
D03*
X3492500D02*
D03*
X3397504D02*
D03*
Y1731899D02*
D03*
X3492500D02*
D03*
X3587496D02*
D03*
Y2001901D02*
D03*
X3492500D02*
D03*
X3397504D02*
D03*
D23*
X5600700Y1569600D02*
D03*
Y1732400D02*
D03*
D24*
X1485900Y1600200D02*
D03*
D25*
X1626641Y1700200D02*
D03*
X1626641Y1650187D02*
D03*
X1626641Y1600200D02*
D03*
Y1550187D02*
D03*
Y1500200D02*
D03*
X1345159D02*
D03*
Y1550187D02*
D03*
Y1600200D02*
D03*
X1345159Y1650187D02*
D03*
X1345159Y1700200D02*
D03*
D26*
X641840Y1273513D02*
D03*
Y1353500D02*
D03*
Y1833510D02*
D03*
Y1913489D02*
D03*
D27*
Y1418504D02*
D03*
Y1468509D02*
D03*
Y1518494D02*
D03*
Y1568504D02*
D03*
Y1618494D02*
D03*
Y1668504D02*
D03*
Y1718491D02*
D03*
Y1768506D02*
D03*
%TF.MD5,1904b32e8900e1d3833e72e1124f4bc0*%
M02*
