%TF.GenerationSoftware,Altium Limited,Altium Designer,24.10.1 (45)*%
G04 Layer_Physical_Order=2*
G04 Layer_Color=16711680*
%FSLAX45Y45*%
%MOMM*%
%TF.SameCoordinates,F50C4461-6059-43A5-BEE7-B7ABC5EDFC2B*%
%TF.FilePolarity,Positive*%
%TF.FileFunction,Copper,L2,Bot,Signal*%
%TF.Part,Single*%
G01*
G75*
%TA.AperFunction,Conductor*%
%ADD28C,0.23665*%
%ADD29C,0.20000*%
%ADD30C,0.50000*%
%ADD31C,0.25400*%
%ADD32C,1.00000*%
%TA.AperFunction,ComponentPad*%
%ADD33R,1.40000X1.40000*%
%ADD34C,1.40000*%
%ADD35C,2.00000*%
%ADD36R,2.00000X2.00000*%
%ADD37C,5.00000*%
%ADD38C,1.60000*%
%ADD39C,0.64999*%
%ADD40O,1.90000X1.00000*%
%ADD41O,2.10000X1.00000*%
%TA.AperFunction,ViaPad*%
%ADD42C,0.60000*%
%TA.AperFunction,SMDPad,CuDef*%
%AMCUSTOMSHAPE43*
4,1,5,-0.55245,-0.45720,0.55245,-0.45720,0.55245,0.45720,-0.55245,0.45720,-0.13335,0.00000,-0.55245,-0.45720,0.0*%
%ADD43CUSTOMSHAPE43*%

%AMCUSTOMSHAPE44*
4,1,5,0.15875,0.45720,-0.57785,0.45720,-0.57785,-0.45720,0.15875,-0.45720,0.57785,0.00000,0.15875,0.45720,0.0*%
%ADD44CUSTOMSHAPE44*%

%ADD45C,2.00000*%
%AMCUSTOMSHAPE46*
4,1,5,0.55245,0.45720,-0.55245,0.45720,-0.55245,-0.45720,0.55245,-0.45720,0.13335,0.00000,0.55245,0.45720,0.0*%
%ADD46CUSTOMSHAPE46*%

%AMCUSTOMSHAPE47*
4,1,5,-0.15875,-0.45720,0.57785,-0.45720,0.57785,0.45720,-0.15875,0.45720,-0.57785,0.00000,-0.15875,-0.45720,0.0*%
%ADD47CUSTOMSHAPE47*%

%TA.AperFunction,Conductor*%
%ADD48C,0.32000*%
%ADD49C,0.40000*%
G36*
X6913459Y3161016D02*
X6942363Y3152248D01*
X6969001Y3138010D01*
X6992349Y3118849D01*
X7011510Y3095501D01*
X7025748Y3068863D01*
X7033476Y3043388D01*
X7035338Y3031605D01*
D01*
X7035710Y3020241D01*
Y2143384D01*
X7023710Y2139743D01*
X7019550Y2145970D01*
X6915559Y2249960D01*
X6904796Y2257152D01*
X6892099Y2259678D01*
X6091166D01*
X6090382Y2260054D01*
X6084472Y2260374D01*
X6079186Y2261230D01*
X6073754Y2262685D01*
X6068149Y2264772D01*
X6062365Y2267524D01*
X6056402Y2270968D01*
X6050440Y2275012D01*
X6037422Y2285774D01*
X6030780Y2292232D01*
X6028387Y2293184D01*
X6021020Y2300551D01*
X5999918Y2312734D01*
X5976383Y2319040D01*
X5952016D01*
X5928480Y2312734D01*
X5907379Y2300551D01*
X5890149Y2283321D01*
X5877966Y2262220D01*
X5871660Y2238684D01*
Y2214317D01*
X5877966Y2190781D01*
X5890149Y2169680D01*
X5907379Y2152450D01*
X5928480Y2140267D01*
X5952016Y2133961D01*
X5976383D01*
X5999918Y2140267D01*
X6021020Y2152450D01*
X6028387Y2159817D01*
X6030780Y2160769D01*
X6037560Y2167361D01*
X6043988Y2172989D01*
X6050270Y2177873D01*
X6056403Y2182033D01*
X6062363Y2185476D01*
X6068149Y2188229D01*
X6073752Y2190316D01*
X6079186Y2191772D01*
X6084472Y2192627D01*
X6090382Y2192947D01*
X6091166Y2193323D01*
X6874841D01*
X6879114Y2187854D01*
X6873119Y2176036D01*
X6858233D01*
X6837241Y2170411D01*
X6818419Y2159545D01*
X6803051Y2144177D01*
X6792185Y2125356D01*
X6786560Y2104363D01*
Y2082630D01*
X6792185Y2061637D01*
X6803051Y2042816D01*
X6818419Y2027448D01*
X6837241Y2016582D01*
X6858233Y2010957D01*
X6879966D01*
X6900959Y2016582D01*
X6919780Y2027448D01*
X6935148Y2042816D01*
X6946015Y2061637D01*
X6950912Y2079915D01*
X6962912Y2078335D01*
Y1908658D01*
X6950912Y1907078D01*
X6946015Y1925356D01*
X6935148Y1944177D01*
X6919780Y1959545D01*
X6900959Y1970412D01*
X6879966Y1976037D01*
X6858233D01*
X6837241Y1970412D01*
X6818419Y1959545D01*
X6803051Y1944177D01*
X6792185Y1925356D01*
X6786560Y1904363D01*
Y1882630D01*
X6792185Y1861638D01*
X6803051Y1842816D01*
X6818419Y1827448D01*
X6837241Y1816582D01*
X6858233Y1810957D01*
X6879966D01*
X6900959Y1816582D01*
X6919780Y1827448D01*
X6935148Y1842816D01*
X6946015Y1861638D01*
X6950912Y1879915D01*
X6962912Y1878335D01*
Y1708659D01*
X6950912Y1707079D01*
X6946015Y1725356D01*
X6935148Y1744178D01*
X6919780Y1759546D01*
X6900959Y1770412D01*
X6879966Y1776037D01*
X6858233D01*
X6837241Y1770412D01*
X6818419Y1759546D01*
X6803051Y1744178D01*
X6792185Y1725356D01*
X6786560Y1704364D01*
Y1682631D01*
X6792185Y1661638D01*
X6803051Y1642817D01*
X6818419Y1627449D01*
X6837241Y1616582D01*
X6858233Y1610957D01*
X6879966D01*
X6900959Y1616582D01*
X6919780Y1627449D01*
X6935148Y1642817D01*
X6946015Y1661638D01*
X6950912Y1679916D01*
X6962912Y1678336D01*
Y1634230D01*
X6923799Y1595116D01*
X6922958Y1594814D01*
X6918910Y1591133D01*
X6915031Y1588227D01*
X6910820Y1585650D01*
X6906245Y1583396D01*
X6901278Y1581464D01*
X6895888Y1579862D01*
X6890070Y1578608D01*
X6883803Y1577715D01*
X6877093Y1577198D01*
X6869561Y1577065D01*
X6867198Y1576037D01*
X6858233D01*
X6837241Y1570412D01*
X6818419Y1559546D01*
X6803051Y1544178D01*
X6792185Y1525357D01*
X6786560Y1504364D01*
Y1482631D01*
X6792185Y1461638D01*
X6803051Y1442817D01*
X6818419Y1427449D01*
X6837241Y1416583D01*
X6858233Y1410958D01*
X6879966D01*
X6900959Y1416583D01*
X6919780Y1427449D01*
X6935148Y1442817D01*
X6946015Y1461638D01*
X6951640Y1482631D01*
Y1491596D01*
X6952667Y1493959D01*
X6952800Y1501491D01*
X6953317Y1508201D01*
X6954210Y1514468D01*
X6955464Y1520286D01*
X6957066Y1525675D01*
X6958997Y1530641D01*
X6961252Y1535217D01*
X6963830Y1539431D01*
X6966734Y1543307D01*
X6970416Y1547356D01*
X6970719Y1548197D01*
X7019550Y1597028D01*
X7023710Y1603254D01*
X7035710Y1599614D01*
X7035710Y135469D01*
X7035108Y124102D01*
X7035108Y124100D01*
X7036130Y112261D01*
X7033349Y91135D01*
X7024408Y69550D01*
X7010185Y51014D01*
X6991649Y36791D01*
X6970064Y27851D01*
X6956701Y26091D01*
X6956701Y26092D01*
Y26091D01*
X6956162Y25490D01*
X75475Y25489D01*
X63474Y25549D01*
X63474Y25549D01*
X63436Y25541D01*
X48935Y28426D01*
X36641Y36641D01*
X28426Y48935D01*
X25541Y63436D01*
X25549Y63474D01*
X25489Y63500D01*
Y3096520D01*
X26069Y3097062D01*
X26069D01*
X26069Y3097062D01*
X27839Y3110512D01*
X34811Y3127344D01*
X45902Y3141798D01*
X60355Y3152889D01*
X77187Y3159861D01*
X95250Y3162239D01*
X99862Y3161631D01*
X99862Y3161631D01*
X103236Y3162210D01*
X6850345D01*
X6861691Y3161839D01*
X6861694Y3161838D01*
X6861695Y3161839D01*
X6883400Y3163977D01*
X6913459Y3161016D01*
D02*
G37*
G36*
X6028353Y2275660D02*
X6042288Y2264141D01*
X6049188Y2259461D01*
X6056044Y2255500D01*
X6062854Y2252260D01*
X6069619Y2249740D01*
X6076340Y2247940D01*
X6083016Y2246860D01*
X6089646Y2246500D01*
Y2206501D01*
X6083016Y2206141D01*
X6076340Y2205061D01*
X6069619Y2203261D01*
X6062854Y2200741D01*
X6056044Y2197501D01*
X6049188Y2193540D01*
X6042288Y2188860D01*
X6035343Y2183461D01*
X6028353Y2177341D01*
X6021318Y2170501D01*
Y2282500D01*
X6028353Y2275660D01*
D02*
G37*
G36*
X6960374Y1556488D02*
X6956258Y1551962D01*
X6952584Y1547057D01*
X6949352Y1541774D01*
X6946561Y1536113D01*
X6944213Y1530073D01*
X6942306Y1523655D01*
X6940841Y1516858D01*
X6939817Y1509683D01*
X6939236Y1502130D01*
X6939096Y1494198D01*
X6869800Y1563494D01*
X6877732Y1563634D01*
X6885285Y1564215D01*
X6892460Y1565238D01*
X6899257Y1566703D01*
X6905676Y1568611D01*
X6911715Y1570959D01*
X6917377Y1573750D01*
X6922660Y1576982D01*
X6927564Y1580656D01*
X6932090Y1584772D01*
X6960374Y1556488D01*
D02*
G37*
%LPC*%
G36*
X5181600Y3060965D02*
X5119760D01*
X5095358Y3056111D01*
X5074671Y3042289D01*
X5058609Y3026227D01*
X5031316Y3033540D01*
X5001684D01*
X4973061Y3025871D01*
X4947399Y3011054D01*
X4926446Y2990101D01*
X4911629Y2964439D01*
X4903960Y2935816D01*
Y2906184D01*
X4911629Y2877561D01*
X4926446Y2851899D01*
X4947399Y2830946D01*
X4973061Y2816129D01*
X5001684Y2808460D01*
X5031316D01*
X5059939Y2816129D01*
X5085601Y2830946D01*
X5106554Y2851899D01*
X5121371Y2877561D01*
X5129040Y2906184D01*
Y2916303D01*
X5146172Y2933435D01*
X5181600D01*
X5206002Y2938289D01*
X5226689Y2952111D01*
X5240511Y2972798D01*
X5245365Y2997200D01*
X5240511Y3021602D01*
X5226689Y3042289D01*
X5206002Y3056111D01*
X5181600Y3060965D01*
D02*
G37*
G36*
X5976383Y2819039D02*
X5952016D01*
X5928480Y2812733D01*
X5907379Y2800550D01*
X5890149Y2783320D01*
X5877966Y2762219D01*
X5871660Y2738683D01*
Y2714316D01*
X5877966Y2690780D01*
X5890149Y2669679D01*
X5907379Y2652449D01*
X5928480Y2640266D01*
X5952016Y2633960D01*
X5976383D01*
X5999918Y2640266D01*
X6021020Y2652449D01*
X6038250Y2669679D01*
X6050433Y2690780D01*
X6056739Y2714316D01*
Y2738683D01*
X6050433Y2762219D01*
X6038250Y2783320D01*
X6021020Y2800550D01*
X5999918Y2812733D01*
X5976383Y2819039D01*
D02*
G37*
G36*
X1881716Y2982740D02*
X1852084D01*
X1823461Y2975071D01*
X1797799Y2960254D01*
X1776846Y2939301D01*
X1762029Y2913639D01*
X1754360Y2885016D01*
Y2855384D01*
X1762029Y2826761D01*
X1776846Y2801099D01*
X1797799Y2780146D01*
X1823461Y2765329D01*
X1852084Y2757660D01*
X1881716D01*
X1910339Y2765329D01*
X1936001Y2780146D01*
X1945364Y2789509D01*
X1947776Y2790468D01*
X1956317Y2798773D01*
X1964488Y2805927D01*
X1972511Y2812164D01*
X1980367Y2817492D01*
X1988040Y2821925D01*
X1995529Y2825488D01*
X2002825Y2828205D01*
X2009940Y2830111D01*
X2016893Y2831236D01*
X2024461Y2831647D01*
X2025040Y2831925D01*
X3730646D01*
X3863136Y2699435D01*
X3875553Y2691138D01*
X3890200Y2688224D01*
X5239000D01*
X5239614Y2687939D01*
X5246256Y2687654D01*
X5252188Y2686878D01*
X5258012Y2685587D01*
X5263754Y2683773D01*
X5269439Y2681422D01*
X5275083Y2678517D01*
X5280695Y2675040D01*
X5286280Y2670971D01*
X5291839Y2666291D01*
X5297659Y2660706D01*
X5300060Y2659769D01*
X5307380Y2652449D01*
X5328482Y2640266D01*
X5352017Y2633960D01*
X5376384D01*
X5399920Y2640266D01*
X5421021Y2652449D01*
X5438251Y2669679D01*
X5450434Y2690780D01*
X5456740Y2714316D01*
Y2738683D01*
X5450434Y2762219D01*
X5438251Y2783320D01*
X5421021Y2800550D01*
X5399920Y2812733D01*
X5376384Y2819039D01*
X5352017D01*
X5328482Y2812733D01*
X5307380Y2800550D01*
X5300060Y2793230D01*
X5297659Y2792293D01*
X5291839Y2786708D01*
X5286280Y2782028D01*
X5280695Y2777959D01*
X5275084Y2774482D01*
X5269440Y2771577D01*
X5263754Y2769226D01*
X5258012Y2767412D01*
X5252189Y2766121D01*
X5246256Y2765345D01*
X5239614Y2765060D01*
X5239000Y2764775D01*
X3906055D01*
X3773565Y2897265D01*
X3761147Y2905562D01*
X3746500Y2908475D01*
X2025040D01*
X2024461Y2908753D01*
X2016893Y2909164D01*
X2009940Y2910289D01*
X2002825Y2912195D01*
X1995528Y2914912D01*
X1988041Y2918474D01*
X1980367Y2922908D01*
X1972678Y2928122D01*
X1956177Y2941763D01*
X1947776Y2949932D01*
X1945364Y2950891D01*
X1936001Y2960254D01*
X1910339Y2975071D01*
X1881716Y2982740D01*
D02*
G37*
G36*
X2798514Y2536033D02*
X2688024D01*
X2678426Y2532058D01*
X2674451Y2522460D01*
Y2500696D01*
X2673972Y2500617D01*
X2671449Y2500398D01*
X2668002Y2500309D01*
X2666683Y2499722D01*
X2425940D01*
X2417145Y2497972D01*
X2409690Y2492990D01*
X2255861Y2339162D01*
X2250879Y2331706D01*
X2249130Y2322911D01*
Y2145661D01*
X2248549Y2144402D01*
X2248461Y2142172D01*
X2248266Y2140568D01*
X2247948Y2139037D01*
X2247508Y2137560D01*
X2246937Y2136107D01*
X2246223Y2134659D01*
X2245350Y2133202D01*
X2244300Y2131724D01*
X2243058Y2130227D01*
X2241293Y2128378D01*
X2240374Y2126006D01*
X2236048Y2121679D01*
X2229571Y2106044D01*
Y2089120D01*
X2236048Y2073485D01*
X2248014Y2061518D01*
X2263650Y2055042D01*
X2280573D01*
X2296208Y2061518D01*
X2308175Y2073485D01*
X2314651Y2089120D01*
Y2106044D01*
X2308175Y2121679D01*
X2303848Y2126006D01*
X2302930Y2128378D01*
X2301168Y2130224D01*
X2299923Y2131724D01*
X2298872Y2133203D01*
X2298000Y2134658D01*
X2297285Y2136108D01*
X2296714Y2137561D01*
X2296275Y2139037D01*
X2295957Y2140569D01*
X2295762Y2142172D01*
X2295674Y2144402D01*
X2295093Y2145661D01*
Y2313392D01*
X2435459Y2453758D01*
X2666683D01*
X2668002Y2453171D01*
X2671449Y2453082D01*
X2673972Y2452863D01*
X2674451Y2452784D01*
Y2431020D01*
X2678426Y2421422D01*
X2688024Y2417447D01*
X2798514D01*
X2803062Y2419330D01*
X2807686Y2421014D01*
X2807820Y2421301D01*
X2808112Y2421422D01*
X2809996Y2425970D01*
X2812075Y2430430D01*
X2811967Y2430727D01*
X2812088Y2431020D01*
X2810204Y2435568D01*
X2808520Y2440192D01*
X2775017Y2476740D01*
X2808520Y2513288D01*
X2810204Y2517913D01*
X2811471Y2520971D01*
X2812088Y2522460D01*
X2811967Y2522753D01*
X2812075Y2523050D01*
X2809997Y2527507D01*
X2808112Y2532058D01*
X2807820Y2532179D01*
X2807686Y2532466D01*
X2806755Y2532805D01*
X2806754Y2532805D01*
X2806173Y2533017D01*
X2803062Y2534150D01*
X2798514Y2536033D01*
D02*
G37*
G36*
Y2345533D02*
X2688024D01*
X2678426Y2341558D01*
X2674451Y2331960D01*
Y2310196D01*
X2673972Y2310117D01*
X2671449Y2309898D01*
X2668002Y2309809D01*
X2666683Y2309222D01*
X2502140D01*
X2493345Y2307472D01*
X2485890Y2302491D01*
X2371350Y2187950D01*
X2366368Y2180495D01*
X2364618Y2171700D01*
Y2041519D01*
X2324185Y2001086D01*
X2320191D01*
X2318932Y2001667D01*
X2316701Y2001755D01*
X2315098Y2001950D01*
X2313567Y2002268D01*
X2312090Y2002707D01*
X2310637Y2003278D01*
X2309189Y2003993D01*
X2307731Y2004866D01*
X2306254Y2005916D01*
X2304756Y2007158D01*
X2302907Y2008923D01*
X2300535Y2009841D01*
X2296208Y2014168D01*
X2280573Y2020644D01*
X2263650D01*
X2248014Y2014168D01*
X2236048Y2002201D01*
X2229571Y1986566D01*
Y1969642D01*
X2236048Y1954007D01*
X2248014Y1942041D01*
X2263650Y1935564D01*
X2280573D01*
X2296208Y1942041D01*
X2300535Y1946367D01*
X2302907Y1947286D01*
X2304753Y1949048D01*
X2306254Y1950293D01*
X2307733Y1951344D01*
X2309188Y1952215D01*
X2310637Y1952930D01*
X2312090Y1953501D01*
X2313566Y1953941D01*
X2315098Y1954259D01*
X2316701Y1954454D01*
X2318932Y1954542D01*
X2320191Y1955123D01*
X2333704D01*
X2342499Y1956872D01*
X2349955Y1961854D01*
X2403850Y2015750D01*
X2408832Y2023205D01*
X2410582Y2032000D01*
Y2162181D01*
X2511659Y2263258D01*
X2666683D01*
X2668002Y2262671D01*
X2671449Y2262582D01*
X2673972Y2262363D01*
X2674451Y2262284D01*
Y2240520D01*
X2678426Y2230922D01*
X2688024Y2226947D01*
X2798514D01*
X2803062Y2228830D01*
X2807686Y2230514D01*
X2807820Y2230801D01*
X2808112Y2230922D01*
X2809996Y2235470D01*
X2812075Y2239930D01*
X2811967Y2240227D01*
X2812088Y2240520D01*
X2810204Y2245068D01*
X2808520Y2249692D01*
X2775017Y2286240D01*
X2808520Y2322788D01*
X2810204Y2327413D01*
X2811471Y2330471D01*
X2812088Y2331960D01*
X2811967Y2332253D01*
X2812075Y2332550D01*
X2809997Y2337007D01*
X2808112Y2341558D01*
X2807820Y2341679D01*
X2807686Y2341966D01*
X2806755Y2342305D01*
X2806754Y2342305D01*
X2806173Y2342517D01*
X2803062Y2343650D01*
X2798514Y2345533D01*
D02*
G37*
G36*
X5376384Y2319040D02*
X5352017D01*
X5328482Y2312734D01*
X5307380Y2300551D01*
X5290150Y2283321D01*
X5277967Y2262220D01*
X5271661Y2238684D01*
Y2214317D01*
X5277967Y2190781D01*
X5290150Y2169680D01*
X5307380Y2152450D01*
X5328482Y2140267D01*
X5352017Y2133961D01*
X5376384D01*
X5399920Y2140267D01*
X5421021Y2152450D01*
X5438251Y2169680D01*
X5450434Y2190781D01*
X5456740Y2214317D01*
Y2238684D01*
X5450434Y2262220D01*
X5438251Y2283321D01*
X5421021Y2300551D01*
X5399920Y2312734D01*
X5376384Y2319040D01*
D02*
G37*
G36*
X2798514Y2155033D02*
X2688024D01*
X2678426Y2151058D01*
X2674451Y2141460D01*
Y2119456D01*
X2673972Y2119377D01*
X2671449Y2119158D01*
X2668002Y2119069D01*
X2666683Y2118482D01*
X2616200D01*
X2607405Y2116732D01*
X2599950Y2111751D01*
X2374985Y1886786D01*
X2320191D01*
X2318932Y1887367D01*
X2316701Y1887455D01*
X2315098Y1887650D01*
X2313567Y1887968D01*
X2312090Y1888407D01*
X2310637Y1888978D01*
X2309189Y1889693D01*
X2307731Y1890566D01*
X2306254Y1891616D01*
X2304756Y1892858D01*
X2302907Y1894623D01*
X2300535Y1895541D01*
X2296208Y1899868D01*
X2280573Y1906344D01*
X2263650D01*
X2248014Y1899868D01*
X2236048Y1887901D01*
X2229571Y1872266D01*
Y1855342D01*
X2236048Y1839707D01*
X2248014Y1827741D01*
X2263650Y1821264D01*
X2280573D01*
X2296208Y1827741D01*
X2300535Y1832067D01*
X2302907Y1832986D01*
X2304753Y1834748D01*
X2306254Y1835993D01*
X2307733Y1837044D01*
X2309188Y1837915D01*
X2310637Y1838630D01*
X2312090Y1839201D01*
X2313566Y1839641D01*
X2315098Y1839959D01*
X2316701Y1840154D01*
X2318932Y1840242D01*
X2320191Y1840823D01*
X2384504D01*
X2393299Y1842572D01*
X2400755Y1847554D01*
X2625719Y2072518D01*
X2666683D01*
X2668002Y2071931D01*
X2671449Y2071842D01*
X2673972Y2071623D01*
X2674451Y2071544D01*
Y2050020D01*
X2678426Y2040422D01*
X2688024Y2036447D01*
X2798514D01*
X2803062Y2038330D01*
X2807686Y2040014D01*
X2807820Y2040301D01*
X2808112Y2040422D01*
X2809996Y2044970D01*
X2812075Y2049430D01*
X2811967Y2049727D01*
X2812088Y2050020D01*
X2810204Y2054568D01*
X2808520Y2059192D01*
X2775017Y2095740D01*
X2808520Y2132288D01*
X2810204Y2136913D01*
X2811471Y2139971D01*
X2812088Y2141460D01*
X2811967Y2141753D01*
X2812075Y2142050D01*
X2809997Y2146507D01*
X2808112Y2151058D01*
X2807820Y2151179D01*
X2807686Y2151466D01*
X2806755Y2151805D01*
X2806754Y2151805D01*
X2806173Y2152017D01*
X2803062Y2153150D01*
X2798514Y2155033D01*
D02*
G37*
G36*
X6261100Y1969373D02*
X5936513D01*
X5936472Y1969356D01*
X5936432Y1969373D01*
X5931680Y1967371D01*
X5926915Y1965398D01*
X5926898Y1965358D01*
X5926858Y1965341D01*
X5915319Y1953664D01*
X5915301Y1953620D01*
X5915259Y1953602D01*
X5913352Y1948835D01*
X5911400Y1944043D01*
X5911418Y1944000D01*
X5911401Y1943957D01*
X5917328Y1460334D01*
X5919344Y1455631D01*
X5921302Y1450902D01*
X5921385Y1450868D01*
X5921421Y1450786D01*
X5926169Y1448886D01*
X5930900Y1446927D01*
X6350000D01*
X6359598Y1450902D01*
X6362096Y1456934D01*
X6373157Y1459397D01*
X6375027Y1459181D01*
X6377767Y1455081D01*
X6458354Y1374494D01*
X6467795Y1368186D01*
X6478930Y1365971D01*
X6607873D01*
X6612844Y1353971D01*
X6603052Y1344179D01*
X6592185Y1325357D01*
X6586560Y1304365D01*
Y1282631D01*
X6592185Y1261639D01*
X6603052Y1242817D01*
X6618420Y1227450D01*
X6637241Y1216583D01*
X6658234Y1210958D01*
X6679967D01*
X6700959Y1216583D01*
X6719781Y1227450D01*
X6735149Y1242817D01*
X6746015Y1261639D01*
X6751640Y1282631D01*
Y1304365D01*
X6746015Y1325357D01*
X6735149Y1344179D01*
X6725357Y1353971D01*
X6730327Y1365971D01*
X6755475D01*
X6769417Y1352029D01*
X6769755Y1351053D01*
X6772976Y1347429D01*
X6775450Y1343915D01*
X6777708Y1339856D01*
X6779733Y1335211D01*
X6781497Y1329952D01*
X6782973Y1324069D01*
X6784100Y1317749D01*
X6785428Y1302503D01*
X6785531Y1294033D01*
X6786560Y1291633D01*
Y1282631D01*
X6792185Y1261639D01*
X6803051Y1242817D01*
X6818419Y1227450D01*
X6837241Y1216583D01*
X6858233Y1210958D01*
X6879966D01*
X6900959Y1216583D01*
X6919780Y1227450D01*
X6935148Y1242817D01*
X6946015Y1261639D01*
X6951640Y1282631D01*
Y1304365D01*
X6946015Y1325357D01*
X6935148Y1344179D01*
X6919780Y1359546D01*
X6900959Y1370413D01*
X6879966Y1376038D01*
X6870965D01*
X6868565Y1377067D01*
X6859915Y1377171D01*
X6852169Y1377641D01*
X6845036Y1378464D01*
X6838529Y1379625D01*
X6832646Y1381100D01*
X6827386Y1382865D01*
X6822743Y1384890D01*
X6818683Y1387148D01*
X6815168Y1389623D01*
X6811545Y1392843D01*
X6810569Y1393181D01*
X6788104Y1415646D01*
X6778664Y1421953D01*
X6767528Y1424169D01*
X6710028D01*
X6709466Y1424057D01*
X6628734D01*
X6628172Y1424169D01*
X6490983D01*
X6427442Y1487710D01*
Y1522793D01*
X6427912Y1523848D01*
X6428061Y1529512D01*
X6428458Y1534010D01*
X6429062Y1537638D01*
X6429788Y1540334D01*
X6430493Y1542057D01*
X6430643Y1542301D01*
X6453588D01*
X6463186Y1546277D01*
X6467161Y1555875D01*
Y1647315D01*
X6463186Y1656912D01*
X6453588Y1660888D01*
X6363573D01*
Y1866900D01*
X6359598Y1876498D01*
X6270698Y1965398D01*
X6261100Y1969373D01*
D02*
G37*
G36*
X3227315Y2474223D02*
X3210392D01*
X3194757Y2467747D01*
X3182790Y2455780D01*
X3176314Y2440145D01*
Y2423221D01*
X3182790Y2407586D01*
X3194757Y2395620D01*
X3210392Y2389143D01*
X3227315D01*
X3242951Y2395620D01*
X3247209Y2399878D01*
X3249503Y2400727D01*
X3250726Y2401860D01*
X3251546Y2402485D01*
X3252475Y2403063D01*
X3253541Y2403598D01*
X3254776Y2404088D01*
X3256197Y2404521D01*
X3257828Y2404885D01*
X3259682Y2405165D01*
X3261750Y2405343D01*
X3264402Y2405415D01*
X3265597Y2405949D01*
X3602124D01*
X3747676Y2260396D01*
Y2048016D01*
X3747143Y2046821D01*
X3747070Y2044168D01*
X3746893Y2042097D01*
X3746613Y2040247D01*
X3746249Y2038619D01*
X3745815Y2037193D01*
X3745326Y2035961D01*
X3744790Y2034893D01*
X3744212Y2033964D01*
X3743589Y2033146D01*
X3742455Y2031922D01*
X3741605Y2029627D01*
X3737347Y2025369D01*
X3730871Y2009734D01*
Y1992810D01*
X3737347Y1977175D01*
X3749314Y1965208D01*
X3764949Y1958732D01*
X3781873D01*
X3797508Y1965208D01*
X3809474Y1977175D01*
X3815951Y1992810D01*
Y2009734D01*
X3809474Y2025369D01*
X3805216Y2029627D01*
X3804367Y2031922D01*
X3803234Y2033145D01*
X3802609Y2033964D01*
X3802032Y2034893D01*
X3801496Y2035960D01*
X3801006Y2037194D01*
X3800573Y2038616D01*
X3800209Y2040247D01*
X3799929Y2042100D01*
X3799751Y2044168D01*
X3799679Y2046821D01*
X3799145Y2048016D01*
Y2271056D01*
X3797186Y2280904D01*
X3791608Y2289253D01*
X3630980Y2449880D01*
X3622632Y2455459D01*
X3612783Y2457418D01*
X3265597D01*
X3264402Y2457951D01*
X3261750Y2458024D01*
X3259679Y2458201D01*
X3257829Y2458481D01*
X3256200Y2458845D01*
X3254775Y2459279D01*
X3253542Y2459769D01*
X3252474Y2460304D01*
X3251545Y2460882D01*
X3250727Y2461505D01*
X3249503Y2462639D01*
X3247208Y2463489D01*
X3242951Y2467747D01*
X3227315Y2474223D01*
D02*
G37*
G36*
X2798514Y1964533D02*
X2688024D01*
X2678426Y1960558D01*
X2674451Y1950960D01*
Y1929196D01*
X2673972Y1929117D01*
X2671449Y1928898D01*
X2668002Y1928809D01*
X2666683Y1928222D01*
X2591040D01*
X2582245Y1926472D01*
X2574790Y1921490D01*
X2425785Y1772486D01*
X2320191D01*
X2318932Y1773067D01*
X2316701Y1773155D01*
X2315098Y1773350D01*
X2313567Y1773668D01*
X2312090Y1774107D01*
X2310637Y1774678D01*
X2309189Y1775393D01*
X2307731Y1776266D01*
X2306254Y1777316D01*
X2304756Y1778558D01*
X2302907Y1780323D01*
X2300535Y1781241D01*
X2296208Y1785568D01*
X2280573Y1792044D01*
X2263650D01*
X2248014Y1785568D01*
X2236048Y1773601D01*
X2229571Y1757966D01*
Y1741042D01*
X2236048Y1725407D01*
X2248014Y1713441D01*
X2263650Y1706964D01*
X2280573D01*
X2296208Y1713441D01*
X2300535Y1717767D01*
X2302907Y1718686D01*
X2304753Y1720448D01*
X2306254Y1721693D01*
X2307733Y1722744D01*
X2309188Y1723615D01*
X2310637Y1724330D01*
X2312090Y1724901D01*
X2313566Y1725341D01*
X2315098Y1725659D01*
X2316701Y1725854D01*
X2318932Y1725942D01*
X2320191Y1726523D01*
X2435304D01*
X2444099Y1728272D01*
X2451555Y1733254D01*
X2600559Y1882258D01*
X2666683D01*
X2668002Y1881671D01*
X2671449Y1881582D01*
X2673972Y1881363D01*
X2674451Y1881284D01*
Y1859520D01*
X2678426Y1849922D01*
X2688024Y1845947D01*
X2798514D01*
X2803062Y1847830D01*
X2807686Y1849514D01*
X2807820Y1849801D01*
X2808112Y1849922D01*
X2809996Y1854470D01*
X2812075Y1858930D01*
X2811967Y1859227D01*
X2812088Y1859520D01*
X2810204Y1864068D01*
X2808520Y1868692D01*
X2775017Y1905240D01*
X2808520Y1941788D01*
X2810204Y1946413D01*
X2811471Y1949471D01*
X2812088Y1950960D01*
X2811967Y1951253D01*
X2812075Y1951550D01*
X2809997Y1956007D01*
X2808112Y1960558D01*
X2807820Y1960679D01*
X2807686Y1960966D01*
X2806755Y1961305D01*
X2806754Y1961305D01*
X2806173Y1961517D01*
X2803062Y1962650D01*
X2798514Y1964533D01*
D02*
G37*
G36*
X524528Y1927528D02*
X506610D01*
X490056Y1920671D01*
X477387Y1908001D01*
X470530Y1891447D01*
Y1873530D01*
X477387Y1856976D01*
X490056Y1844306D01*
X506610Y1837449D01*
X524528D01*
X541082Y1844306D01*
X553752Y1856976D01*
X560608Y1873530D01*
Y1891447D01*
X553752Y1908001D01*
X541082Y1920671D01*
X524528Y1927528D01*
D02*
G37*
G36*
X1106438Y1890840D02*
X760462D01*
X750952Y1888948D01*
X742890Y1883561D01*
X546144Y1686815D01*
X466704D01*
X466325Y1687264D01*
X465551Y1688321D01*
X465035Y1689123D01*
X464956Y1689270D01*
X464953Y1689282D01*
X464939Y1689301D01*
X464857Y1689456D01*
X464605Y1690080D01*
X464459Y1690229D01*
Y1699067D01*
X457983Y1714703D01*
X446016Y1726669D01*
X430381Y1733146D01*
X413457D01*
X397822Y1726669D01*
X385855Y1714703D01*
X379379Y1699067D01*
Y1693010D01*
X378354Y1690747D01*
X378291Y1688788D01*
X378132Y1687461D01*
X377860Y1686167D01*
X377467Y1684871D01*
X376945Y1683566D01*
X376272Y1682220D01*
X375736Y1681333D01*
X347711D01*
X334251Y1694792D01*
X333768Y1696055D01*
X331043Y1698931D01*
X329070Y1701289D01*
X327612Y1703324D01*
X326642Y1704977D01*
X326110Y1706171D01*
X325936Y1706765D01*
X326242Y1707395D01*
X326372Y1709567D01*
X333471Y1721861D01*
X341140Y1750484D01*
Y1780116D01*
X333471Y1808739D01*
X318654Y1834401D01*
X297701Y1855354D01*
X272039Y1870171D01*
X243416Y1877840D01*
X213784D01*
X185161Y1870171D01*
X159499Y1855354D01*
X138546Y1834401D01*
X123729Y1808739D01*
X116060Y1780116D01*
Y1750484D01*
X123729Y1721861D01*
X138546Y1696199D01*
X159499Y1675246D01*
X185161Y1660429D01*
X213784Y1652760D01*
X243416D01*
X272039Y1660429D01*
X284333Y1667528D01*
X286505Y1667658D01*
X287135Y1667964D01*
X287730Y1667790D01*
X288924Y1667257D01*
X290576Y1666288D01*
X292611Y1664829D01*
X294967Y1662859D01*
X297845Y1660132D01*
X299108Y1659649D01*
X312224Y1646532D01*
Y1630068D01*
X299108Y1616951D01*
X297845Y1616468D01*
X294969Y1613743D01*
X292611Y1611770D01*
X290576Y1610312D01*
X288923Y1609342D01*
X287729Y1608810D01*
X287135Y1608636D01*
X286505Y1608942D01*
X284333Y1609072D01*
X272039Y1616171D01*
X243416Y1623840D01*
X213784D01*
X185161Y1616171D01*
X159499Y1601354D01*
X138546Y1580401D01*
X123729Y1554739D01*
X116060Y1526116D01*
Y1496484D01*
X123729Y1467861D01*
X138546Y1442199D01*
X159499Y1421246D01*
X185161Y1406429D01*
X213784Y1398760D01*
X243416D01*
X272039Y1406429D01*
X297701Y1421246D01*
X318654Y1442199D01*
X333471Y1467861D01*
X341140Y1496484D01*
Y1526116D01*
X333471Y1554739D01*
X326372Y1567033D01*
X326242Y1569205D01*
X325936Y1569835D01*
X326110Y1570430D01*
X326643Y1571624D01*
X327612Y1573276D01*
X329071Y1575311D01*
X331041Y1577667D01*
X333768Y1580545D01*
X334251Y1581808D01*
X347711Y1595267D01*
X368538D01*
X368638Y1595190D01*
X376560Y1591738D01*
X383036Y1576103D01*
X395003Y1564136D01*
X410638Y1557660D01*
X427562D01*
X443197Y1564136D01*
X455164Y1576103D01*
X461640Y1591738D01*
Y1599819D01*
X462528Y1600750D01*
X571500D01*
X581010Y1602641D01*
X589072Y1608028D01*
X785818Y1804774D01*
X1081082D01*
X1081785Y1804072D01*
Y1735488D01*
X962819D01*
X954445Y1745139D01*
X953643Y1747519D01*
Y1757978D01*
X947167Y1773613D01*
X935200Y1785580D01*
X919565Y1792056D01*
X902641D01*
X887006Y1785580D01*
X875039Y1773613D01*
X868563Y1757978D01*
Y1741055D01*
X875039Y1725419D01*
X887006Y1713453D01*
X902641Y1706977D01*
X905101D01*
X906439Y1706200D01*
X908460Y1705930D01*
X909935Y1705617D01*
X911395Y1705190D01*
X912850Y1704644D01*
X914316Y1703966D01*
X914498Y1703865D01*
X916349Y1696263D01*
X916711Y1691714D01*
X916663Y1690877D01*
X913356Y1686888D01*
X910894Y1684510D01*
X908798Y1683571D01*
X900514D01*
X884879Y1677095D01*
X872912Y1665128D01*
X866436Y1649493D01*
Y1632569D01*
X872912Y1616934D01*
X884879Y1604967D01*
X900514Y1598491D01*
X917438D01*
X933073Y1604967D01*
X945040Y1616934D01*
X951516Y1632569D01*
Y1643439D01*
X952274Y1645429D01*
X963251Y1649423D01*
X1107835D01*
X1117344Y1651314D01*
X1125406Y1656701D01*
X1160572Y1691867D01*
X1165959Y1699929D01*
X1167850Y1709438D01*
Y1829428D01*
X1165959Y1838938D01*
X1160572Y1847000D01*
X1124010Y1883561D01*
X1115948Y1888948D01*
X1106438Y1890840D01*
D02*
G37*
G36*
X2798514Y1774033D02*
X2688024D01*
X2678426Y1770058D01*
X2674451Y1760460D01*
Y1738696D01*
X2673972Y1738617D01*
X2671449Y1738398D01*
X2668002Y1738309D01*
X2666683Y1737722D01*
X2616440D01*
X2607645Y1735972D01*
X2600190Y1730990D01*
X2527385Y1658186D01*
X2320191D01*
X2318932Y1658767D01*
X2316701Y1658855D01*
X2315098Y1659050D01*
X2313567Y1659368D01*
X2312090Y1659807D01*
X2310637Y1660378D01*
X2309189Y1661093D01*
X2307731Y1661966D01*
X2306254Y1663016D01*
X2304756Y1664258D01*
X2302907Y1666023D01*
X2300535Y1666941D01*
X2296208Y1671268D01*
X2280573Y1677744D01*
X2263650D01*
X2248014Y1671268D01*
X2236048Y1659301D01*
X2229571Y1643666D01*
Y1626742D01*
X2236048Y1611107D01*
X2248014Y1599141D01*
X2263650Y1592664D01*
X2280573D01*
X2296208Y1599141D01*
X2300535Y1603467D01*
X2302907Y1604386D01*
X2304753Y1606148D01*
X2306254Y1607393D01*
X2307733Y1608444D01*
X2309188Y1609315D01*
X2310637Y1610030D01*
X2312090Y1610601D01*
X2313566Y1611041D01*
X2315098Y1611359D01*
X2316701Y1611554D01*
X2318932Y1611642D01*
X2320191Y1612223D01*
X2536904D01*
X2545699Y1613972D01*
X2553155Y1618954D01*
X2625959Y1691758D01*
X2666683D01*
X2668002Y1691171D01*
X2671449Y1691082D01*
X2673972Y1690863D01*
X2674451Y1690784D01*
Y1669020D01*
X2678426Y1659422D01*
X2688024Y1655447D01*
X2798514D01*
X2803062Y1657330D01*
X2807686Y1659014D01*
X2807820Y1659301D01*
X2808112Y1659422D01*
X2809996Y1663970D01*
X2812075Y1668430D01*
X2811967Y1668727D01*
X2812088Y1669020D01*
X2810204Y1673568D01*
X2808520Y1678192D01*
X2775017Y1714740D01*
X2808520Y1751288D01*
X2810204Y1755913D01*
X2811471Y1758971D01*
X2812088Y1760460D01*
X2811967Y1760753D01*
X2812075Y1761050D01*
X2809997Y1765507D01*
X2808112Y1770058D01*
X2807820Y1770179D01*
X2807686Y1770466D01*
X2806755Y1770805D01*
X2806754Y1770805D01*
X2806173Y1771017D01*
X2803062Y1772150D01*
X2798514Y1774033D01*
D02*
G37*
G36*
X1627716Y2982740D02*
X1598084D01*
X1569461Y2975071D01*
X1543799Y2960254D01*
X1522846Y2939301D01*
X1508029Y2913639D01*
X1500360Y2885016D01*
Y2855384D01*
X1508029Y2826761D01*
X1522846Y2801099D01*
X1543799Y2780146D01*
X1546238Y2778737D01*
X1546710Y2777918D01*
X1569242Y2760606D01*
X1578149Y2752732D01*
X1585814Y2745137D01*
X1592132Y2737958D01*
X1597114Y2731248D01*
X1600788Y2725088D01*
X1603227Y2719545D01*
X1604561Y2714663D01*
X1605087Y2709088D01*
X1605305Y2708675D01*
X1605197Y2708220D01*
X1605618Y2707535D01*
Y2562400D01*
X1607368Y2553606D01*
X1612350Y2546150D01*
X1755018Y2403481D01*
Y1580783D01*
X1754090Y1580202D01*
X1746140Y1577477D01*
X1743018Y1577296D01*
X1741896Y1578472D01*
X1740652Y1579972D01*
X1739600Y1581451D01*
X1738729Y1582906D01*
X1738014Y1584356D01*
X1737443Y1585809D01*
X1737003Y1587285D01*
X1736685Y1588817D01*
X1736491Y1590420D01*
X1736402Y1592650D01*
X1735822Y1593909D01*
Y2325760D01*
X1734072Y2334555D01*
X1729091Y2342011D01*
X1381882Y2689219D01*
Y2708394D01*
X1382409Y2709383D01*
X1382901Y2714425D01*
X1384191Y2719254D01*
X1386607Y2725160D01*
X1390246Y2732023D01*
X1395136Y2739733D01*
X1401124Y2747992D01*
X1427430Y2778055D01*
X1438526Y2789216D01*
X1439540Y2791684D01*
X1448954Y2801099D01*
X1463771Y2826761D01*
X1471440Y2855384D01*
Y2885016D01*
X1463771Y2913639D01*
X1448954Y2939301D01*
X1428001Y2960254D01*
X1402339Y2975071D01*
X1373716Y2982740D01*
X1344084D01*
X1315461Y2975071D01*
X1289799Y2960254D01*
X1268846Y2939301D01*
X1254029Y2913639D01*
X1246360Y2885016D01*
Y2855384D01*
X1254029Y2826761D01*
X1268846Y2801099D01*
X1278260Y2791684D01*
X1279274Y2789216D01*
X1290537Y2777887D01*
X1300348Y2767426D01*
X1316598Y2748100D01*
X1322664Y2739733D01*
X1327554Y2732023D01*
X1331193Y2725160D01*
X1333609Y2719254D01*
X1334899Y2714425D01*
X1335391Y2709383D01*
X1335918Y2708394D01*
Y2679700D01*
X1337668Y2670905D01*
X1342650Y2663450D01*
X1689858Y2316241D01*
Y1593909D01*
X1689277Y1592650D01*
X1689189Y1590420D01*
X1688994Y1588816D01*
X1688677Y1587285D01*
X1688237Y1585808D01*
X1687666Y1584355D01*
X1686951Y1582907D01*
X1686078Y1581450D01*
X1685028Y1579972D01*
X1683786Y1578475D01*
X1682022Y1576626D01*
X1681103Y1574254D01*
X1676776Y1569927D01*
X1670300Y1554292D01*
Y1537368D01*
X1676776Y1521733D01*
X1688743Y1509766D01*
X1704378Y1503290D01*
X1721302D01*
X1736937Y1509766D01*
X1743018Y1515848D01*
X1745455Y1514838D01*
X1754437Y1507320D01*
X1754349Y1505090D01*
X1754154Y1503486D01*
X1753837Y1501955D01*
X1753397Y1500479D01*
X1752826Y1499025D01*
X1752112Y1497578D01*
X1751239Y1496120D01*
X1750188Y1494642D01*
X1748946Y1493145D01*
X1747182Y1491296D01*
X1746263Y1488924D01*
X1741936Y1484597D01*
X1735460Y1468962D01*
Y1452038D01*
X1741936Y1436403D01*
X1753903Y1424436D01*
X1769538Y1417960D01*
X1786462D01*
X1802097Y1424436D01*
X1814064Y1436403D01*
X1820540Y1452038D01*
Y1468962D01*
X1814064Y1484597D01*
X1809737Y1488924D01*
X1808818Y1491296D01*
X1807057Y1493142D01*
X1805812Y1494643D01*
X1804760Y1496121D01*
X1803889Y1497576D01*
X1803174Y1499026D01*
X1802603Y1500479D01*
X1802163Y1501955D01*
X1801845Y1503487D01*
X1801651Y1505090D01*
X1801563Y1507320D01*
X1800982Y1508580D01*
Y2413000D01*
X1799232Y2421795D01*
X1794250Y2429251D01*
X1651582Y2571919D01*
Y2711184D01*
X1652098Y2712134D01*
X1652535Y2716269D01*
X1653725Y2720758D01*
X1656030Y2726825D01*
X1659276Y2733783D01*
X1694092Y2788782D01*
X1704213Y2802666D01*
X1704217Y2802681D01*
X1704230Y2802690D01*
X1704482Y2803745D01*
X1717771Y2826761D01*
X1725440Y2855384D01*
Y2885016D01*
X1717771Y2913639D01*
X1702954Y2939301D01*
X1682001Y2960254D01*
X1656339Y2975071D01*
X1627716Y2982740D01*
D02*
G37*
G36*
X2798514Y1583533D02*
X2688024D01*
X2678427Y1579557D01*
X2674451Y1569960D01*
Y1548196D01*
X2673973Y1548117D01*
X2671449Y1547898D01*
X2668002Y1547809D01*
X2666683Y1547222D01*
X2318749D01*
X2317475Y1547804D01*
X2315240Y1547885D01*
X2313531Y1548074D01*
X2311843Y1548387D01*
X2310163Y1548829D01*
X2308478Y1549405D01*
X2306775Y1550126D01*
X2305042Y1551005D01*
X2303277Y1552049D01*
X2301476Y1553274D01*
X2299344Y1554914D01*
X2297864Y1555313D01*
X2296208Y1556968D01*
X2280573Y1563444D01*
X2263650D01*
X2248014Y1556968D01*
X2236048Y1545001D01*
X2229571Y1529366D01*
Y1512442D01*
X2236048Y1496807D01*
X2248014Y1484841D01*
X2263650Y1478364D01*
X2280573D01*
X2296208Y1484841D01*
X2303865Y1492497D01*
X2306097Y1493647D01*
X2307642Y1495472D01*
X2308838Y1496671D01*
X2310014Y1497662D01*
X2311180Y1498473D01*
X2312349Y1499131D01*
X2313553Y1499661D01*
X2314824Y1500080D01*
X2316196Y1500389D01*
X2317702Y1500586D01*
X2319929Y1500679D01*
X2320431Y1500912D01*
X2320964Y1500762D01*
X2321850Y1501258D01*
X2666683D01*
X2668002Y1500671D01*
X2671449Y1500582D01*
X2673972Y1500363D01*
X2674451Y1500284D01*
Y1478520D01*
X2678427Y1468922D01*
X2688024Y1464947D01*
X2798514D01*
X2803062Y1466830D01*
X2807687Y1468514D01*
X2807820Y1468801D01*
X2808112Y1468922D01*
X2809997Y1473470D01*
X2812075Y1477930D01*
X2811967Y1478227D01*
X2812088Y1478520D01*
X2810204Y1483067D01*
X2808520Y1487691D01*
X2775017Y1524240D01*
X2808520Y1560788D01*
X2810204Y1565413D01*
X2811471Y1568471D01*
X2812088Y1569960D01*
X2811967Y1570253D01*
X2812075Y1570549D01*
X2809998Y1575007D01*
X2808112Y1579558D01*
X2807820Y1579679D01*
X2807687Y1579966D01*
X2806755Y1580305D01*
X2806755Y1580305D01*
X2806173Y1580516D01*
X2803062Y1581649D01*
X2798514Y1583533D01*
D02*
G37*
G36*
X3558116Y1611140D02*
X3528484D01*
X3499861Y1603471D01*
X3474199Y1588654D01*
X3453246Y1567701D01*
X3438429Y1542039D01*
X3435260Y1530210D01*
X3433826Y1528646D01*
X3433421Y1527534D01*
X3433104Y1527291D01*
X3432266Y1526836D01*
X3430810Y1526282D01*
X3428706Y1525735D01*
X3425967Y1525283D01*
X3422614Y1524984D01*
X3418343Y1524868D01*
X3417147Y1524335D01*
X3310644D01*
X3309449Y1524868D01*
X3306796Y1524940D01*
X3304725Y1525118D01*
X3302875Y1525398D01*
X3301247Y1525761D01*
X3299821Y1526196D01*
X3298589Y1526685D01*
X3297521Y1527221D01*
X3296592Y1527799D01*
X3295773Y1528422D01*
X3294549Y1529556D01*
X3292255Y1530406D01*
X3287997Y1534664D01*
X3272362Y1541140D01*
X3255438D01*
X3239803Y1534664D01*
X3227836Y1522697D01*
X3221360Y1507062D01*
Y1490138D01*
X3227836Y1474503D01*
X3239803Y1462536D01*
X3255438Y1456060D01*
X3272362D01*
X3287997Y1462536D01*
X3292255Y1466794D01*
X3294549Y1467644D01*
X3295772Y1468777D01*
X3296592Y1469402D01*
X3297521Y1469979D01*
X3298588Y1470514D01*
X3299822Y1471004D01*
X3301244Y1471438D01*
X3302875Y1471802D01*
X3304728Y1472082D01*
X3306796Y1472259D01*
X3309449Y1472332D01*
X3310644Y1472865D01*
X3417147D01*
X3418343Y1472332D01*
X3422614Y1472216D01*
X3425968Y1471917D01*
X3428704Y1471465D01*
X3430811Y1470918D01*
X3432265Y1470364D01*
X3433105Y1469908D01*
X3433421Y1469666D01*
X3433826Y1468554D01*
X3435260Y1466990D01*
X3438429Y1455161D01*
X3453246Y1429499D01*
X3474199Y1408546D01*
X3499861Y1393729D01*
X3528484Y1386060D01*
X3558116D01*
X3586739Y1393729D01*
X3612401Y1408546D01*
X3633354Y1429499D01*
X3648171Y1455161D01*
X3655840Y1483784D01*
Y1513416D01*
X3648171Y1542039D01*
X3633354Y1567701D01*
X3612401Y1588654D01*
X3586739Y1603471D01*
X3558116Y1611140D01*
D02*
G37*
G36*
X4835973Y2513712D02*
X4819049D01*
X4803414Y2507236D01*
X4791447Y2495269D01*
X4784971Y2479634D01*
Y2462710D01*
X4791447Y2447075D01*
X4795705Y2442817D01*
X4796555Y2440523D01*
X4797688Y2439300D01*
X4798312Y2438480D01*
X4798890Y2437551D01*
X4799425Y2436485D01*
X4799915Y2435250D01*
X4800349Y2433829D01*
X4800713Y2432197D01*
X4800993Y2430344D01*
X4801170Y2428276D01*
X4801243Y2425623D01*
X4801776Y2424428D01*
Y2082270D01*
X4586740Y1867235D01*
X3289300D01*
X3279452Y1865276D01*
X3271103Y1859697D01*
X3144103Y1732697D01*
X3138524Y1724348D01*
X3136565Y1714500D01*
Y1539244D01*
X3136031Y1538042D01*
X3135962Y1535374D01*
X3135790Y1533245D01*
X3135518Y1531330D01*
X3135159Y1529614D01*
X3134727Y1528098D01*
X3134233Y1526760D01*
X3133691Y1525592D01*
X3133101Y1524562D01*
X3132466Y1523650D01*
X3131372Y1522350D01*
X3130743Y1520365D01*
X3127747Y1517369D01*
X3121271Y1501734D01*
Y1484810D01*
X3127747Y1469175D01*
X3139714Y1457208D01*
X3155349Y1450732D01*
X3172273D01*
X3187908Y1457208D01*
X3199874Y1469175D01*
X3206351Y1484810D01*
Y1501734D01*
X3199874Y1517369D01*
X3194234Y1523010D01*
X3193209Y1525417D01*
X3192050Y1526554D01*
X3191448Y1527278D01*
X3190898Y1528096D01*
X3190383Y1529052D01*
X3189905Y1530179D01*
X3189475Y1531505D01*
X3189108Y1533056D01*
X3188825Y1534836D01*
X3188643Y1536858D01*
X3188568Y1539494D01*
X3188487Y1539675D01*
X3188552Y1539862D01*
X3188035Y1540938D01*
Y1703840D01*
X3299960Y1815765D01*
X4597400D01*
X4607248Y1817724D01*
X4615597Y1823303D01*
X4845708Y2053414D01*
X4851286Y2061762D01*
X4853245Y2071611D01*
Y2424428D01*
X4853779Y2425623D01*
X4853851Y2428276D01*
X4854029Y2430347D01*
X4854309Y2432197D01*
X4854672Y2433825D01*
X4855107Y2435251D01*
X4855596Y2436484D01*
X4856132Y2437551D01*
X4856709Y2438480D01*
X4857333Y2439299D01*
X4858467Y2440523D01*
X4859317Y2442817D01*
X4863574Y2447075D01*
X4870051Y2462710D01*
Y2479634D01*
X4863574Y2495269D01*
X4851608Y2507236D01*
X4835973Y2513712D01*
D02*
G37*
G36*
X916516Y1585740D02*
X886884D01*
X858261Y1578071D01*
X832599Y1563254D01*
X811646Y1542301D01*
X796829Y1516639D01*
X789160Y1488016D01*
Y1458384D01*
X796829Y1429761D01*
X811646Y1404099D01*
X832599Y1383146D01*
X858261Y1368329D01*
X886884Y1360660D01*
X916516D01*
X945139Y1368329D01*
X970801Y1383146D01*
X991754Y1404099D01*
X1006571Y1429761D01*
X1014240Y1458384D01*
Y1488016D01*
X1006571Y1516639D01*
X991754Y1542301D01*
X970801Y1563254D01*
X945139Y1578071D01*
X916516Y1585740D01*
D02*
G37*
G36*
X2280573Y1461844D02*
X2263650D01*
X2248014Y1455368D01*
X2236048Y1443401D01*
X2229571Y1427766D01*
Y1410842D01*
X2236048Y1395207D01*
X2248014Y1383241D01*
X2263650Y1376764D01*
X2280573D01*
X2296208Y1383241D01*
X2303587Y1390619D01*
X2305881Y1391779D01*
X2307448Y1393601D01*
X2308664Y1394804D01*
X2309863Y1395802D01*
X2311050Y1396620D01*
X2312241Y1397284D01*
X2313462Y1397818D01*
X2314748Y1398239D01*
X2316131Y1398549D01*
X2317643Y1398745D01*
X2319871Y1398838D01*
X2320319Y1399046D01*
X2320793Y1398908D01*
X2321721Y1399418D01*
X2454281D01*
X2536209Y1317490D01*
X2543665Y1312508D01*
X2552460Y1310758D01*
X2666683D01*
X2668002Y1310171D01*
X2671449Y1310082D01*
X2673972Y1309863D01*
X2674451Y1309784D01*
Y1288020D01*
X2678427Y1278422D01*
X2688024Y1274447D01*
X2798514D01*
X2803062Y1276330D01*
X2807687Y1278014D01*
X2807820Y1278301D01*
X2808112Y1278422D01*
X2809997Y1282970D01*
X2812075Y1287430D01*
X2811967Y1287727D01*
X2812088Y1288020D01*
X2810204Y1292568D01*
X2808520Y1297192D01*
X2775017Y1333740D01*
X2808520Y1370288D01*
X2810204Y1374913D01*
X2811471Y1377971D01*
X2812088Y1379460D01*
X2811967Y1379753D01*
X2812075Y1380050D01*
X2809998Y1384507D01*
X2808112Y1389058D01*
X2807820Y1389179D01*
X2807687Y1389466D01*
X2806755Y1389805D01*
X2806755Y1389805D01*
X2806173Y1390017D01*
X2803062Y1391150D01*
X2798514Y1393033D01*
X2688024D01*
X2678427Y1389058D01*
X2674451Y1379460D01*
Y1357696D01*
X2673973Y1357617D01*
X2671449Y1357398D01*
X2668002Y1357309D01*
X2666683Y1356722D01*
X2561979D01*
X2480050Y1438650D01*
X2472595Y1443632D01*
X2463800Y1445382D01*
X2318870D01*
X2317598Y1445964D01*
X2315361Y1446046D01*
X2313660Y1446235D01*
X2311985Y1446548D01*
X2310319Y1446991D01*
X2308650Y1447568D01*
X2306962Y1448292D01*
X2305249Y1449171D01*
X2303503Y1450219D01*
X2301725Y1451446D01*
X2299614Y1453096D01*
X2298044Y1453532D01*
X2296208Y1455368D01*
X2280573Y1461844D01*
D02*
G37*
G36*
X524528Y1349525D02*
X506610D01*
X490056Y1342669D01*
X477387Y1329999D01*
X470530Y1313445D01*
Y1295527D01*
X477387Y1278973D01*
X490056Y1266304D01*
X506610Y1259447D01*
X524528D01*
X541082Y1266304D01*
X553752Y1278973D01*
X560608Y1295527D01*
Y1313445D01*
X553752Y1329999D01*
X541082Y1342669D01*
X524528Y1349525D01*
D02*
G37*
G36*
X1989662Y1820540D02*
X1972738D01*
X1957103Y1814064D01*
X1945136Y1802097D01*
X1938660Y1786462D01*
Y1769538D01*
X1945136Y1753903D01*
X1949463Y1749576D01*
X1950382Y1747204D01*
X1952143Y1745358D01*
X1953388Y1743857D01*
X1954440Y1742379D01*
X1955311Y1740924D01*
X1956026Y1739474D01*
X1956597Y1738021D01*
X1957037Y1736545D01*
X1957355Y1735013D01*
X1957549Y1733410D01*
X1957637Y1731180D01*
X1958218Y1729920D01*
Y1267280D01*
X1957637Y1266020D01*
X1957549Y1263790D01*
X1957354Y1262186D01*
X1957037Y1260655D01*
X1956597Y1259179D01*
X1956026Y1257725D01*
X1955312Y1256278D01*
X1954439Y1254820D01*
X1953388Y1253342D01*
X1952146Y1251845D01*
X1950382Y1249996D01*
X1949463Y1247624D01*
X1945136Y1243297D01*
X1938660Y1227662D01*
Y1210738D01*
X1945136Y1195103D01*
X1957103Y1183136D01*
X1972738Y1176660D01*
X1989662D01*
X2005297Y1183136D01*
X2017264Y1195103D01*
X2023740Y1210738D01*
Y1227662D01*
X2017264Y1243297D01*
X2012937Y1247624D01*
X2012018Y1249996D01*
X2010257Y1251842D01*
X2009012Y1253343D01*
X2007960Y1254821D01*
X2007089Y1256276D01*
X2006374Y1257726D01*
X2005803Y1259179D01*
X2005363Y1260655D01*
X2005045Y1262187D01*
X2004851Y1263790D01*
X2004763Y1266020D01*
X2004182Y1267280D01*
Y1729920D01*
X2004763Y1731180D01*
X2004851Y1733410D01*
X2005046Y1735014D01*
X2005363Y1736545D01*
X2005803Y1738021D01*
X2006374Y1739475D01*
X2007088Y1740922D01*
X2007961Y1742380D01*
X2009012Y1743858D01*
X2010254Y1745355D01*
X2012018Y1747204D01*
X2012937Y1749576D01*
X2017264Y1753903D01*
X2023740Y1769538D01*
Y1786462D01*
X2017264Y1802097D01*
X2005297Y1814064D01*
X1989662Y1820540D01*
D02*
G37*
G36*
X5150018Y1461944D02*
X5120386D01*
X5091763Y1454275D01*
X5066101Y1439459D01*
X5045147Y1418506D01*
X5030331Y1392843D01*
X5022662Y1364221D01*
Y1334588D01*
X5030331Y1305966D01*
X5045147Y1280303D01*
X5066101Y1259350D01*
X5091763Y1244534D01*
X5120386Y1236864D01*
X5130504D01*
X5141267Y1226102D01*
Y1213894D01*
X5146121Y1189492D01*
X5159943Y1168805D01*
X5180630Y1154983D01*
X5205032Y1150129D01*
X5229434Y1154983D01*
X5250121Y1168805D01*
X5263943Y1189492D01*
X5268797Y1213894D01*
Y1252514D01*
X5263943Y1276916D01*
X5250121Y1297603D01*
X5240429Y1307295D01*
X5247742Y1334588D01*
Y1364221D01*
X5240072Y1392843D01*
X5225256Y1418506D01*
X5204303Y1439459D01*
X5178641Y1454275D01*
X5150018Y1461944D01*
D02*
G37*
G36*
X916516Y1268240D02*
X886884D01*
X858261Y1260571D01*
X832599Y1245754D01*
X811646Y1224801D01*
X796829Y1199139D01*
X789160Y1170516D01*
Y1140884D01*
X796829Y1112261D01*
X811646Y1086599D01*
X832599Y1065646D01*
X858261Y1050829D01*
X886884Y1043160D01*
X916516D01*
X945139Y1050829D01*
X970801Y1065646D01*
X991754Y1086599D01*
X1006571Y1112261D01*
X1011366Y1130159D01*
X1012013Y1130942D01*
X1012586Y1131164D01*
X1013912Y1131511D01*
X1015814Y1131825D01*
X1018261Y1132043D01*
X1021564Y1132132D01*
X1022879Y1132718D01*
X1044120D01*
X1045380Y1132137D01*
X1047610Y1132049D01*
X1049214Y1131854D01*
X1050745Y1131537D01*
X1052221Y1131097D01*
X1053675Y1130526D01*
X1055122Y1129812D01*
X1056580Y1128939D01*
X1058058Y1127888D01*
X1059555Y1126646D01*
X1061404Y1124882D01*
X1063776Y1123963D01*
X1068103Y1119636D01*
X1083738Y1113160D01*
X1100662D01*
X1116297Y1119636D01*
X1128264Y1131603D01*
X1134740Y1147238D01*
Y1164162D01*
X1128264Y1179797D01*
X1116297Y1191764D01*
X1100662Y1198240D01*
X1083738D01*
X1068103Y1191764D01*
X1063776Y1187437D01*
X1061404Y1186518D01*
X1059558Y1184757D01*
X1058057Y1183512D01*
X1056579Y1182460D01*
X1055124Y1181589D01*
X1053674Y1180874D01*
X1052221Y1180303D01*
X1050745Y1179863D01*
X1049213Y1179545D01*
X1047610Y1179351D01*
X1045380Y1179263D01*
X1044120Y1178682D01*
X1022879D01*
X1021564Y1179268D01*
X1018261Y1179357D01*
X1015814Y1179575D01*
X1013914Y1179889D01*
X1012586Y1180236D01*
X1012013Y1180458D01*
X1011366Y1181241D01*
X1006571Y1199139D01*
X991754Y1224801D01*
X970801Y1245754D01*
X945139Y1260571D01*
X916516Y1268240D01*
D02*
G37*
G36*
X2280573Y1337940D02*
X2263650D01*
X2248014Y1331464D01*
X2236048Y1319497D01*
X2229571Y1303862D01*
Y1286938D01*
X2236048Y1271303D01*
X2248014Y1259336D01*
X2263650Y1252860D01*
X2280573D01*
X2296208Y1259336D01*
X2300535Y1263663D01*
X2302907Y1264582D01*
X2304753Y1266343D01*
X2306254Y1267588D01*
X2307733Y1268640D01*
X2309188Y1269511D01*
X2310637Y1270226D01*
X2312090Y1270797D01*
X2313566Y1271237D01*
X2315098Y1271555D01*
X2316701Y1271749D01*
X2318932Y1271837D01*
X2320191Y1272418D01*
X2466981D01*
X2612410Y1126989D01*
X2619865Y1122008D01*
X2628660Y1120258D01*
X2666683D01*
X2668002Y1119671D01*
X2671449Y1119582D01*
X2673972Y1119363D01*
X2674451Y1119284D01*
Y1097520D01*
X2678427Y1087922D01*
X2688024Y1083947D01*
X2798514D01*
X2803062Y1085830D01*
X2807687Y1087514D01*
X2807820Y1087801D01*
X2808112Y1087922D01*
X2809997Y1092470D01*
X2812075Y1096930D01*
X2811967Y1097227D01*
X2812088Y1097520D01*
X2810204Y1102068D01*
X2808520Y1106692D01*
X2775017Y1143240D01*
X2808520Y1179788D01*
X2810204Y1184413D01*
X2811471Y1187471D01*
X2812088Y1188960D01*
X2811967Y1189253D01*
X2812075Y1189550D01*
X2809998Y1194007D01*
X2808112Y1198558D01*
X2807820Y1198679D01*
X2807687Y1198966D01*
X2806755Y1199305D01*
X2806755Y1199305D01*
X2806173Y1199517D01*
X2803062Y1200650D01*
X2798514Y1202533D01*
X2688024D01*
X2678427Y1198558D01*
X2674451Y1188960D01*
Y1167196D01*
X2673973Y1167117D01*
X2671449Y1166898D01*
X2668002Y1166809D01*
X2666683Y1166222D01*
X2638179D01*
X2492750Y1311650D01*
X2485295Y1316632D01*
X2476500Y1318382D01*
X2320191D01*
X2318932Y1318963D01*
X2316701Y1319051D01*
X2315098Y1319246D01*
X2313567Y1319563D01*
X2312090Y1320003D01*
X2310637Y1320574D01*
X2309189Y1321288D01*
X2307731Y1322161D01*
X2306254Y1323212D01*
X2304756Y1324454D01*
X2302907Y1326218D01*
X2300535Y1327137D01*
X2296208Y1331464D01*
X2280573Y1337940D01*
D02*
G37*
G36*
X6879966Y1176038D02*
X6858233D01*
X6837241Y1170413D01*
X6818419Y1159547D01*
X6803051Y1144179D01*
X6792185Y1125358D01*
X6786560Y1104365D01*
Y1082632D01*
X6792185Y1061639D01*
X6803051Y1042818D01*
X6818419Y1027450D01*
X6837241Y1016584D01*
X6858233Y1010959D01*
X6879966D01*
X6900959Y1016584D01*
X6919780Y1027450D01*
X6935148Y1042818D01*
X6946015Y1061639D01*
X6951640Y1082632D01*
Y1104365D01*
X6946015Y1125358D01*
X6935148Y1144179D01*
X6919780Y1159547D01*
X6900959Y1170413D01*
X6879966Y1176038D01*
D02*
G37*
G36*
X6751640D02*
X6586560D01*
Y1010959D01*
X6751640D01*
Y1176038D01*
D02*
G37*
G36*
X6001783Y1129939D02*
X5977416D01*
X5953880Y1123633D01*
X5932779Y1111450D01*
X5915549Y1094220D01*
X5903366Y1073119D01*
X5897060Y1049583D01*
Y1025216D01*
X5903366Y1001680D01*
X5915549Y980579D01*
X5932779Y963349D01*
X5953880Y951166D01*
X5977416Y944860D01*
X6001783D01*
X6025318Y951166D01*
X6046420Y963349D01*
X6063650Y980579D01*
X6075833Y1001680D01*
X6082139Y1025216D01*
Y1049583D01*
X6075833Y1073119D01*
X6063650Y1094220D01*
X6046420Y1111450D01*
X6025318Y1123633D01*
X6001783Y1129939D01*
D02*
G37*
G36*
X2280573Y1223640D02*
X2263650D01*
X2248014Y1217164D01*
X2236048Y1205197D01*
X2229571Y1189562D01*
Y1172638D01*
X2236048Y1157003D01*
X2248014Y1145036D01*
X2263650Y1138560D01*
X2280573D01*
X2296208Y1145036D01*
X2300535Y1149363D01*
X2302907Y1150282D01*
X2304753Y1152043D01*
X2306254Y1153288D01*
X2307733Y1154340D01*
X2309188Y1155211D01*
X2310637Y1155926D01*
X2312090Y1156497D01*
X2313566Y1156937D01*
X2315098Y1157255D01*
X2316701Y1157449D01*
X2318932Y1157537D01*
X2320191Y1158118D01*
X2378081D01*
X2599710Y936490D01*
X2607166Y931508D01*
X2615960Y929758D01*
X2666683D01*
X2668002Y929171D01*
X2671449Y929082D01*
X2673972Y928863D01*
X2674451Y928784D01*
Y907020D01*
X2678427Y897422D01*
X2688024Y893447D01*
X2798514D01*
X2803062Y895330D01*
X2807687Y897014D01*
X2807820Y897301D01*
X2808112Y897422D01*
X2809997Y901970D01*
X2812075Y906430D01*
X2811967Y906727D01*
X2812088Y907020D01*
X2810204Y911568D01*
X2808520Y916192D01*
X2775017Y952740D01*
X2808520Y989288D01*
X2810204Y993913D01*
X2811471Y996971D01*
X2812088Y998460D01*
X2811967Y998753D01*
X2812075Y999050D01*
X2809998Y1003507D01*
X2808112Y1008058D01*
X2807820Y1008179D01*
X2807687Y1008466D01*
X2806755Y1008805D01*
X2806755Y1008805D01*
X2806173Y1009017D01*
X2803062Y1010150D01*
X2798514Y1012033D01*
X2688024D01*
X2678427Y1008058D01*
X2674451Y998460D01*
Y976696D01*
X2673973Y976617D01*
X2671449Y976398D01*
X2668002Y976309D01*
X2666683Y975722D01*
X2625480D01*
X2403851Y1197350D01*
X2396395Y1202332D01*
X2387601Y1204082D01*
X2320191D01*
X2318932Y1204663D01*
X2316701Y1204751D01*
X2315098Y1204946D01*
X2313567Y1205263D01*
X2312090Y1205703D01*
X2310637Y1206274D01*
X2309189Y1206988D01*
X2307731Y1207861D01*
X2306254Y1208912D01*
X2304756Y1210154D01*
X2302907Y1211918D01*
X2300535Y1212837D01*
X2296208Y1217164D01*
X2280573Y1223640D01*
D02*
G37*
G36*
X2276876Y1107421D02*
X2259953D01*
X2244318Y1100944D01*
X2232351Y1088978D01*
X2225875Y1073343D01*
Y1056419D01*
X2232351Y1040784D01*
X2244318Y1028817D01*
X2259953Y1022341D01*
X2276876D01*
X2292512Y1028817D01*
X2297701Y1034007D01*
X2300167Y1035049D01*
X2301928Y1036836D01*
X2303342Y1038075D01*
X2304733Y1039114D01*
X2306107Y1039975D01*
X2307477Y1040678D01*
X2308857Y1041240D01*
X2310280Y1041677D01*
X2311760Y1041992D01*
X2313338Y1042188D01*
X2315566Y1042278D01*
X2316822Y1042859D01*
X2322448D01*
X2328122Y1039067D01*
X2336917Y1037318D01*
X2371881D01*
X2663209Y745990D01*
X2670665Y741008D01*
X2674451Y740255D01*
Y716520D01*
X2678426Y706922D01*
X2688024Y702947D01*
X2798514D01*
X2803062Y704830D01*
X2807686Y706514D01*
X2807820Y706801D01*
X2808112Y706922D01*
X2809996Y711470D01*
X2812075Y715930D01*
X2811967Y716227D01*
X2812088Y716520D01*
X2810204Y721068D01*
X2808520Y725692D01*
X2775017Y762240D01*
X2808520Y798788D01*
X2810204Y803413D01*
X2811471Y806471D01*
X2812088Y807960D01*
X2811967Y808253D01*
X2812075Y808550D01*
X2809997Y813007D01*
X2808112Y817558D01*
X2807820Y817679D01*
X2807686Y817966D01*
X2806755Y818305D01*
X2806754Y818305D01*
X2806173Y818517D01*
X2803062Y819650D01*
X2798514Y821533D01*
X2688024D01*
X2678426Y817558D01*
X2677017Y814155D01*
X2663364Y810837D01*
X2397651Y1076550D01*
X2390195Y1081532D01*
X2381400Y1083281D01*
X2345845D01*
X2340171Y1087073D01*
X2331376Y1088822D01*
X2316129D01*
X2314866Y1089403D01*
X2312632Y1089490D01*
X2311002Y1089683D01*
X2309426Y1090001D01*
X2307886Y1090445D01*
X2306368Y1091019D01*
X2304843Y1091741D01*
X2303303Y1092622D01*
X2301744Y1093675D01*
X2300155Y1094921D01*
X2298225Y1096655D01*
X2296026Y1097430D01*
X2292512Y1100944D01*
X2276876Y1107421D01*
D02*
G37*
G36*
X2281762Y1007740D02*
X2264838D01*
X2249203Y1001264D01*
X2237236Y989297D01*
X2230760Y973662D01*
Y956738D01*
X2237236Y941103D01*
X2249203Y929136D01*
X2264838Y922660D01*
X2270957D01*
X2273285Y921632D01*
X2275837Y921572D01*
X2277780Y921391D01*
X2279564Y921090D01*
X2281212Y920676D01*
X2282739Y920158D01*
X2284171Y919534D01*
X2285528Y918800D01*
X2286835Y917943D01*
X2288106Y916947D01*
X2289745Y915432D01*
X2291047Y914952D01*
X2650510Y555489D01*
X2657965Y550508D01*
X2666621Y548786D01*
X2668002Y548171D01*
X2671449Y548082D01*
X2673972Y547863D01*
X2674451Y547784D01*
Y526020D01*
X2678426Y516422D01*
X2688024Y512447D01*
X2798514D01*
X2803062Y514330D01*
X2807686Y516014D01*
X2807820Y516301D01*
X2808112Y516422D01*
X2809996Y520970D01*
X2812075Y525430D01*
X2811967Y525727D01*
X2812088Y526020D01*
X2810204Y530568D01*
X2808520Y535192D01*
X2775017Y571740D01*
X2808520Y608288D01*
X2810204Y612913D01*
X2811471Y615971D01*
X2812088Y617460D01*
X2811967Y617753D01*
X2812075Y618050D01*
X2809997Y622507D01*
X2808112Y627058D01*
X2807820Y627179D01*
X2807686Y627466D01*
X2806755Y627805D01*
X2806754Y627805D01*
X2806173Y628017D01*
X2803062Y629150D01*
X2798514Y631033D01*
X2688024D01*
X2678426Y627058D01*
X2674451Y617460D01*
Y612229D01*
X2663364Y607637D01*
X2323548Y947453D01*
X2323068Y948755D01*
X2321554Y950394D01*
X2320557Y951666D01*
X2319699Y952972D01*
X2318966Y954328D01*
X2318342Y955760D01*
X2317824Y957287D01*
X2317410Y958936D01*
X2317109Y960720D01*
X2316928Y962663D01*
X2316868Y965215D01*
X2315840Y967543D01*
Y973662D01*
X2309364Y989297D01*
X2297397Y1001264D01*
X2281762Y1007740D01*
D02*
G37*
G36*
X6001783Y629940D02*
X5977416D01*
X5953880Y623634D01*
X5932779Y611451D01*
X5915549Y594221D01*
X5903366Y573120D01*
X5897060Y549584D01*
Y525217D01*
X5903366Y501681D01*
X5915549Y480580D01*
X5932779Y463350D01*
X5953880Y451167D01*
X5977416Y444861D01*
X6001783D01*
X6025318Y451167D01*
X6046420Y463350D01*
X6063650Y480580D01*
X6075833Y501681D01*
X6082139Y525217D01*
Y549584D01*
X6075833Y573120D01*
X6063650Y594221D01*
X6046420Y611451D01*
X6025318Y623634D01*
X6001783Y629940D01*
D02*
G37*
G36*
X3223073Y1040512D02*
X3206149D01*
X3190514Y1034036D01*
X3178547Y1022069D01*
X3172071Y1006434D01*
Y989510D01*
X3178547Y973875D01*
X3190514Y961908D01*
X3206149Y955432D01*
X3223073D01*
X3238708Y961908D01*
X3243035Y966235D01*
X3245407Y967154D01*
X3247253Y968916D01*
X3248753Y970160D01*
X3250232Y971212D01*
X3251687Y972083D01*
X3253137Y972798D01*
X3254590Y973369D01*
X3256066Y973809D01*
X3257598Y974127D01*
X3259201Y974321D01*
X3261431Y974410D01*
X3262690Y974990D01*
X3704209D01*
X3753084Y926115D01*
Y522801D01*
X3752504Y521542D01*
X3752415Y519311D01*
X3752221Y517708D01*
X3751903Y516177D01*
X3751463Y514700D01*
X3750892Y513247D01*
X3750178Y511799D01*
X3749305Y510341D01*
X3748254Y508864D01*
X3747013Y507367D01*
X3745248Y505517D01*
X3744329Y503145D01*
X3740002Y498818D01*
X3733526Y483183D01*
Y466260D01*
X3740002Y450624D01*
X3751969Y438658D01*
X3767604Y432182D01*
X3784528D01*
X3800163Y438658D01*
X3812130Y450624D01*
X3818606Y466260D01*
Y483183D01*
X3812130Y498818D01*
X3807803Y503145D01*
X3806884Y505517D01*
X3805123Y507363D01*
X3803878Y508864D01*
X3802827Y510343D01*
X3801955Y511798D01*
X3801240Y513248D01*
X3800669Y514700D01*
X3800229Y516177D01*
X3799911Y517709D01*
X3799717Y519311D01*
X3799629Y521542D01*
X3799048Y522801D01*
Y935634D01*
X3797298Y944429D01*
X3792317Y951884D01*
X3729978Y1014223D01*
X3722523Y1019204D01*
X3713728Y1020954D01*
X3262690D01*
X3261431Y1021535D01*
X3259201Y1021623D01*
X3257597Y1021818D01*
X3256066Y1022135D01*
X3254589Y1022575D01*
X3253136Y1023146D01*
X3251688Y1023861D01*
X3250231Y1024734D01*
X3248753Y1025784D01*
X3247256Y1027026D01*
X3245407Y1028790D01*
X3243035Y1029709D01*
X3238708Y1034036D01*
X3223073Y1040512D01*
D02*
G37*
G36*
X2097616Y595140D02*
X2067984D01*
X2039361Y587471D01*
X2013699Y572654D01*
X1992746Y551701D01*
X1977929Y526039D01*
X1970260Y497416D01*
Y467784D01*
X1977929Y439161D01*
X1992746Y413499D01*
X2013699Y392546D01*
X2039361Y377729D01*
X2067984Y370060D01*
X2097616D01*
X2126239Y377729D01*
X2151901Y392546D01*
X2172854Y413499D01*
X2175119Y417422D01*
X2176004Y417862D01*
X2178120Y420292D01*
X2180283Y421910D01*
X2183901Y423788D01*
X2189007Y425681D01*
X2195551Y427426D01*
X2203154Y428869D01*
X2235026Y431535D01*
X2247900D01*
X2272302Y436389D01*
X2292989Y450211D01*
X2306811Y470898D01*
X2311665Y495300D01*
X2306811Y519702D01*
X2292989Y540389D01*
X2272302Y554211D01*
X2247900Y559065D01*
X2240286D01*
X2204035Y559960D01*
X2182233Y561845D01*
X2173837Y563075D01*
X2166993Y564479D01*
X2161963Y565937D01*
X2158980Y567202D01*
X2156565Y568815D01*
X2155537Y569019D01*
X2151901Y572654D01*
X2126239Y587471D01*
X2097616Y595140D01*
D02*
G37*
G36*
X3266016Y539040D02*
X3236384D01*
X3207761Y531371D01*
X3182099Y516554D01*
X3161146Y495601D01*
X3146329Y469939D01*
X3138660Y441316D01*
Y411684D01*
X3146329Y383061D01*
X3161146Y357399D01*
X3182099Y336446D01*
X3207761Y321630D01*
X3225659Y316834D01*
X3226442Y316187D01*
X3226664Y315614D01*
X3227011Y314288D01*
X3227325Y312386D01*
X3227543Y309939D01*
X3227632Y306636D01*
X3228218Y305321D01*
Y276680D01*
X3227637Y275420D01*
X3227549Y273190D01*
X3227354Y271586D01*
X3227037Y270055D01*
X3226597Y268579D01*
X3226026Y267125D01*
X3225312Y265678D01*
X3224439Y264220D01*
X3223388Y262742D01*
X3222146Y261245D01*
X3220382Y259396D01*
X3219463Y257024D01*
X3215136Y252697D01*
X3208660Y237062D01*
Y220138D01*
X3215136Y204503D01*
X3227103Y192536D01*
X3242738Y186060D01*
X3259662D01*
X3275297Y192536D01*
X3287264Y204503D01*
X3293740Y220138D01*
Y237062D01*
X3287264Y252697D01*
X3282937Y257024D01*
X3282018Y259396D01*
X3280257Y261242D01*
X3279012Y262743D01*
X3277960Y264221D01*
X3277089Y265676D01*
X3276374Y267126D01*
X3275803Y268579D01*
X3275363Y270055D01*
X3275045Y271587D01*
X3274851Y273190D01*
X3274763Y275420D01*
X3274182Y276680D01*
Y305321D01*
X3274768Y306636D01*
X3274857Y309939D01*
X3275075Y312386D01*
X3275389Y314286D01*
X3275736Y315614D01*
X3275958Y316187D01*
X3276741Y316834D01*
X3294639Y321630D01*
X3320301Y336446D01*
X3341254Y357399D01*
X3356071Y383061D01*
X3363740Y411684D01*
Y441316D01*
X3356071Y469939D01*
X3341254Y495601D01*
X3320301Y516554D01*
X3294639Y531371D01*
X3266016Y539040D01*
D02*
G37*
G36*
X4834462Y1249040D02*
X4817538D01*
X4801903Y1242564D01*
X4789936Y1230597D01*
X4783460Y1214962D01*
Y1198038D01*
X4789936Y1182403D01*
X4794194Y1178145D01*
X4795044Y1175851D01*
X4796177Y1174628D01*
X4796802Y1173808D01*
X4797379Y1172879D01*
X4797914Y1171812D01*
X4798404Y1170578D01*
X4798838Y1169156D01*
X4799202Y1167525D01*
X4799482Y1165672D01*
X4799659Y1163604D01*
X4799732Y1160951D01*
X4800265Y1159756D01*
Y302760D01*
X4637540Y140035D01*
X2980444D01*
X2979249Y140568D01*
X2976596Y140640D01*
X2974525Y140818D01*
X2972675Y141098D01*
X2971047Y141461D01*
X2969621Y141896D01*
X2968389Y142385D01*
X2967321Y142921D01*
X2966392Y143499D01*
X2965573Y144122D01*
X2964349Y145256D01*
X2962055Y146106D01*
X2957797Y150364D01*
X2942162Y156840D01*
X2925238D01*
X2909603Y150364D01*
X2897636Y138397D01*
X2891160Y122762D01*
Y105838D01*
X2897636Y90203D01*
X2909603Y78236D01*
X2925238Y71760D01*
X2942162D01*
X2957797Y78236D01*
X2962055Y82494D01*
X2964349Y83344D01*
X2965572Y84477D01*
X2966392Y85102D01*
X2967321Y85679D01*
X2968388Y86214D01*
X2969622Y86704D01*
X2971044Y87138D01*
X2972675Y87502D01*
X2974528Y87782D01*
X2976596Y87959D01*
X2979249Y88032D01*
X2980444Y88565D01*
X4648200D01*
X4658048Y90524D01*
X4666397Y96103D01*
X4844197Y273903D01*
X4849776Y282252D01*
X4851735Y292100D01*
Y1159756D01*
X4852268Y1160951D01*
X4852340Y1163604D01*
X4852518Y1165675D01*
X4852798Y1167525D01*
X4853161Y1169153D01*
X4853596Y1170579D01*
X4854085Y1171811D01*
X4854621Y1172879D01*
X4855199Y1173808D01*
X4855822Y1174627D01*
X4856956Y1175851D01*
X4857806Y1178145D01*
X4862064Y1182403D01*
X4868540Y1198038D01*
Y1214962D01*
X4862064Y1230597D01*
X4850097Y1242564D01*
X4834462Y1249040D01*
D02*
G37*
%LPD*%
G36*
X1947108Y2931650D02*
X1964527Y2917250D01*
X1973152Y2911400D01*
X1981721Y2906450D01*
X1990234Y2902400D01*
X1998691Y2899250D01*
X2007092Y2897000D01*
X2015436Y2895650D01*
X2023725Y2895200D01*
Y2845200D01*
X2015436Y2844750D01*
X2007092Y2843400D01*
X1998691Y2841150D01*
X1990234Y2838000D01*
X1981721Y2833950D01*
X1973152Y2829000D01*
X1964527Y2823150D01*
X1955845Y2816400D01*
X1947108Y2808750D01*
X1938314Y2800200D01*
Y2940200D01*
X1947108Y2931650D01*
D02*
G37*
G36*
X5307057Y2670500D02*
X5300919Y2676390D01*
X5294659Y2681660D01*
X5288277Y2686310D01*
X5281773Y2690340D01*
X5275148Y2693750D01*
X5268401Y2696539D01*
X5261532Y2698710D01*
X5254541Y2700260D01*
X5247429Y2701190D01*
X5240195Y2701500D01*
Y2751499D01*
X5247429Y2751809D01*
X5254541Y2752739D01*
X5261532Y2754289D01*
X5268401Y2756460D01*
X5275148Y2759249D01*
X5281773Y2762659D01*
X5288277Y2766689D01*
X5294659Y2771339D01*
X5300919Y2776609D01*
X5307057Y2782499D01*
Y2670500D01*
D02*
G37*
G36*
X2688659Y2456740D02*
X2688456Y2458640D01*
X2687847Y2460340D01*
X2686831Y2461840D01*
X2685410Y2463140D01*
X2683583Y2464240D01*
X2681349Y2465140D01*
X2678709Y2465840D01*
X2675664Y2466340D01*
X2672212Y2466640D01*
X2668354Y2466740D01*
Y2486740D01*
X2672212Y2486840D01*
X2675664Y2487140D01*
X2678709Y2487640D01*
X2681349Y2488340D01*
X2683583Y2489240D01*
X2685410Y2490340D01*
X2686831Y2491640D01*
X2687847Y2493140D01*
X2688456Y2494840D01*
X2688659Y2496740D01*
Y2456740D01*
D02*
G37*
G36*
X2282221Y2141083D02*
X2282551Y2138367D01*
X2283101Y2135716D01*
X2283871Y2133131D01*
X2284861Y2130612D01*
X2286071Y2128159D01*
X2287501Y2125772D01*
X2289151Y2123451D01*
X2291021Y2121195D01*
X2293111Y2119006D01*
X2251111D01*
X2253201Y2121195D01*
X2255071Y2123451D01*
X2256721Y2125772D01*
X2258151Y2128159D01*
X2259361Y2130612D01*
X2260351Y2133131D01*
X2261121Y2135716D01*
X2261671Y2138367D01*
X2262001Y2141083D01*
X2262111Y2143866D01*
X2282111D01*
X2282221Y2141083D01*
D02*
G37*
G36*
X2688659Y2266240D02*
X2688456Y2268140D01*
X2687847Y2269840D01*
X2686831Y2271340D01*
X2685410Y2272640D01*
X2683583Y2273740D01*
X2681349Y2274640D01*
X2678709Y2275340D01*
X2675664Y2275840D01*
X2672212Y2276140D01*
X2668354Y2276240D01*
Y2296240D01*
X2672212Y2296340D01*
X2675664Y2296640D01*
X2678709Y2297140D01*
X2681349Y2297840D01*
X2683583Y2298740D01*
X2685410Y2299840D01*
X2686831Y2301140D01*
X2687847Y2302640D01*
X2688456Y2304340D01*
X2688659Y2306240D01*
Y2266240D01*
D02*
G37*
G36*
X2295725Y1997014D02*
X2297980Y1995144D01*
X2300301Y1993494D01*
X2302689Y1992064D01*
X2305142Y1990854D01*
X2307661Y1989864D01*
X2310245Y1989094D01*
X2312896Y1988544D01*
X2315613Y1988214D01*
X2318395Y1988104D01*
Y1968104D01*
X2315613Y1967994D01*
X2312896Y1967664D01*
X2310245Y1967114D01*
X2307661Y1966344D01*
X2305142Y1965354D01*
X2302689Y1964144D01*
X2300301Y1962714D01*
X2297980Y1961064D01*
X2295725Y1959194D01*
X2293535Y1957104D01*
Y1999104D01*
X2295725Y1997014D01*
D02*
G37*
G36*
X2688659Y2075500D02*
X2688456Y2077400D01*
X2687847Y2079100D01*
X2686831Y2080600D01*
X2685410Y2081900D01*
X2683583Y2083000D01*
X2681349Y2083900D01*
X2678709Y2084600D01*
X2675664Y2085100D01*
X2672212Y2085400D01*
X2668354Y2085500D01*
Y2105500D01*
X2672212Y2105600D01*
X2675664Y2105900D01*
X2678709Y2106400D01*
X2681349Y2107100D01*
X2683583Y2108000D01*
X2685410Y2109100D01*
X2686831Y2110400D01*
X2687847Y2111900D01*
X2688456Y2113600D01*
X2688659Y2115500D01*
Y2075500D01*
D02*
G37*
G36*
X2295725Y1882714D02*
X2297980Y1880844D01*
X2300301Y1879194D01*
X2302689Y1877764D01*
X2305142Y1876554D01*
X2307661Y1875564D01*
X2310245Y1874794D01*
X2312896Y1874244D01*
X2315613Y1873914D01*
X2318395Y1873804D01*
Y1853804D01*
X2315613Y1853694D01*
X2312896Y1853364D01*
X2310245Y1852814D01*
X2307661Y1852044D01*
X2305142Y1851054D01*
X2302689Y1849844D01*
X2300301Y1848414D01*
X2297980Y1846764D01*
X2295725Y1844894D01*
X2293535Y1842804D01*
Y1884804D01*
X2295725Y1882714D01*
D02*
G37*
G36*
X6427303Y1555885D02*
X6424583Y1554925D01*
X6422183Y1553325D01*
X6420103Y1551085D01*
X6418343Y1548205D01*
X6416903Y1544685D01*
X6415783Y1540525D01*
X6414983Y1535725D01*
X6414503Y1530285D01*
X6414343Y1524205D01*
X6382343D01*
X6382183Y1530285D01*
X6381703Y1535725D01*
X6380903Y1540525D01*
X6379783Y1544685D01*
X6378343Y1548205D01*
X6376583Y1551085D01*
X6374503Y1553325D01*
X6372103Y1554925D01*
X6369383Y1555885D01*
X6366343Y1556205D01*
X6430343D01*
X6427303Y1555885D01*
D02*
G37*
G36*
X6350000Y1866900D02*
Y1660888D01*
X6343098D01*
X6338550Y1659004D01*
X6333926Y1657321D01*
X6333792Y1657034D01*
X6333500Y1656913D01*
X6331616Y1652364D01*
X6329537Y1647904D01*
X6329645Y1647608D01*
X6329524Y1647315D01*
X6330140Y1645829D01*
X6331408Y1642767D01*
X6333092Y1638143D01*
X6350000Y1619699D01*
Y1583491D01*
X6333092Y1565047D01*
X6331408Y1560421D01*
X6330142Y1557364D01*
X6329524Y1555874D01*
X6329645Y1555582D01*
X6329537Y1555285D01*
X6331615Y1550828D01*
X6333500Y1546277D01*
X6333792Y1546156D01*
X6333926Y1545869D01*
X6334857Y1545530D01*
X6334858Y1545530D01*
X6335439Y1545318D01*
X6338550Y1544185D01*
X6343098Y1542301D01*
X6350000D01*
Y1460500D01*
X5930900D01*
X5924973Y1944123D01*
X5936513Y1955800D01*
X6261100D01*
X6350000Y1866900D01*
D02*
G37*
G36*
X6806727Y1378965D02*
X6811456Y1375636D01*
X6816716Y1372710D01*
X6822507Y1370185D01*
X6828828Y1368064D01*
X6835681Y1366345D01*
X6843065Y1365029D01*
X6850979Y1364115D01*
X6859424Y1363603D01*
X6868400Y1363494D01*
X6799103Y1294198D01*
X6798995Y1303174D01*
X6797569Y1319533D01*
X6796253Y1326917D01*
X6794534Y1333769D01*
X6792412Y1340091D01*
X6789888Y1345882D01*
X6786962Y1351142D01*
X6783632Y1355871D01*
X6779901Y1360070D01*
X6802528Y1382697D01*
X6806727Y1378965D01*
D02*
G37*
G36*
X3241980Y2451106D02*
X3243831Y2449695D01*
X3245833Y2448450D01*
X3247984Y2447371D01*
X3250284Y2446458D01*
X3252735Y2445711D01*
X3255335Y2445130D01*
X3258084Y2444715D01*
X3260984Y2444466D01*
X3264033Y2444383D01*
Y2418983D01*
X3260984Y2418900D01*
X3258084Y2418651D01*
X3255335Y2418236D01*
X3252735Y2417655D01*
X3250284Y2416908D01*
X3247984Y2415995D01*
X3245833Y2414916D01*
X3243831Y2413671D01*
X3241980Y2412260D01*
X3240278Y2410683D01*
Y2452683D01*
X3241980Y2451106D01*
D02*
G37*
G36*
X3786194Y2043402D02*
X3786443Y2040503D01*
X3786858Y2037753D01*
X3787439Y2035153D01*
X3788186Y2032703D01*
X3789099Y2030402D01*
X3790178Y2028251D01*
X3791423Y2026250D01*
X3792834Y2024398D01*
X3794411Y2022696D01*
X3752411D01*
X3753988Y2024398D01*
X3755399Y2026250D01*
X3756644Y2028251D01*
X3757723Y2030402D01*
X3758636Y2032703D01*
X3759383Y2035153D01*
X3759964Y2037753D01*
X3760379Y2040503D01*
X3760628Y2043402D01*
X3760711Y2046451D01*
X3786111D01*
X3786194Y2043402D01*
D02*
G37*
G36*
X2688659Y1885240D02*
X2688456Y1887140D01*
X2687847Y1888840D01*
X2686831Y1890340D01*
X2685410Y1891640D01*
X2683583Y1892740D01*
X2681349Y1893640D01*
X2678709Y1894340D01*
X2675664Y1894840D01*
X2672212Y1895140D01*
X2668354Y1895240D01*
Y1915240D01*
X2672212Y1915340D01*
X2675664Y1915640D01*
X2678709Y1916140D01*
X2681349Y1916840D01*
X2683583Y1917740D01*
X2685410Y1918840D01*
X2686831Y1920140D01*
X2687847Y1921640D01*
X2688456Y1923340D01*
X2688659Y1925240D01*
Y1885240D01*
D02*
G37*
G36*
X2295725Y1768414D02*
X2297980Y1766544D01*
X2300301Y1764894D01*
X2302689Y1763464D01*
X2305142Y1762254D01*
X2307661Y1761264D01*
X2310245Y1760494D01*
X2312896Y1759944D01*
X2315613Y1759614D01*
X2318395Y1759504D01*
Y1739504D01*
X2315613Y1739394D01*
X2312896Y1739064D01*
X2310245Y1738514D01*
X2307661Y1737744D01*
X2305142Y1736754D01*
X2302689Y1735544D01*
X2300301Y1734114D01*
X2297980Y1732464D01*
X2295725Y1730594D01*
X2293535Y1728504D01*
Y1770504D01*
X2295725Y1768414D01*
D02*
G37*
G36*
X940733Y1743553D02*
X940809Y1741083D01*
X941131Y1738650D01*
X941699Y1736252D01*
X942512Y1733890D01*
X943572Y1731563D01*
X944878Y1729272D01*
X946429Y1727017D01*
X948227Y1724797D01*
X950270Y1722613D01*
X931602Y1707813D01*
X929457Y1709843D01*
X927270Y1711684D01*
X925040Y1713338D01*
X922767Y1714805D01*
X920452Y1716082D01*
X918095Y1717173D01*
X915695Y1718075D01*
X913252Y1718789D01*
X910768Y1719315D01*
X908240Y1719653D01*
X940903Y1746057D01*
X940733Y1743553D01*
D02*
G37*
G36*
X949207Y1665740D02*
X946994Y1663425D01*
X943343Y1658958D01*
X941905Y1656806D01*
X940726Y1654709D01*
X939805Y1652666D01*
X939142Y1650678D01*
X938739Y1648745D01*
X938593Y1646866D01*
X938707Y1645041D01*
X911282Y1670942D01*
X913103Y1670928D01*
X914979Y1671162D01*
X916909Y1671643D01*
X918894Y1672372D01*
X920934Y1673349D01*
X923028Y1674575D01*
X925177Y1676047D01*
X927381Y1677768D01*
X929640Y1679737D01*
X931953Y1681954D01*
X949207Y1665740D01*
D02*
G37*
G36*
X312996Y1711193D02*
X312406Y1708938D01*
X312267Y1706567D01*
X312579Y1704079D01*
X313341Y1701476D01*
X314554Y1698757D01*
X316218Y1695921D01*
X318333Y1692970D01*
X320899Y1689903D01*
X323915Y1686719D01*
X307181Y1669985D01*
X303997Y1673001D01*
X300930Y1675567D01*
X297979Y1677682D01*
X295143Y1679346D01*
X292424Y1680559D01*
X289821Y1681321D01*
X287333Y1681633D01*
X284962Y1681494D01*
X282707Y1680904D01*
X280568Y1679864D01*
X314036Y1713332D01*
X312996Y1711193D01*
D02*
G37*
G36*
X451742Y1686167D02*
X452015Y1685007D01*
X452543Y1683697D01*
X453325Y1682237D01*
X454361Y1680628D01*
X455651Y1678868D01*
X458993Y1674900D01*
X463353Y1670332D01*
X446619Y1653598D01*
X444627Y1655524D01*
X440961Y1658662D01*
X439287Y1659875D01*
X437718Y1660850D01*
X436254Y1661587D01*
X434897Y1662088D01*
X433645Y1662350D01*
X432498Y1662375D01*
X431457Y1662162D01*
X451722Y1687178D01*
X451742Y1686167D01*
D02*
G37*
G36*
X421619Y1660607D02*
X419073Y1660524D01*
X416569Y1660225D01*
X414108Y1659708D01*
X411689Y1658975D01*
X409312Y1658024D01*
X406978Y1656856D01*
X404686Y1655472D01*
X402437Y1653871D01*
X400229Y1652053D01*
X398064Y1650018D01*
X381331Y1666751D01*
X383366Y1668916D01*
X385184Y1671123D01*
X386785Y1673373D01*
X388170Y1675665D01*
X389337Y1677999D01*
X390288Y1680376D01*
X391021Y1682795D01*
X391538Y1685256D01*
X391838Y1687760D01*
X391920Y1690306D01*
X421619Y1660607D01*
D02*
G37*
G36*
X459497Y1617233D02*
X448575Y1605789D01*
X433515Y1626510D01*
X433816Y1626470D01*
X434255Y1626605D01*
X434834Y1626915D01*
X435550Y1627399D01*
X436406Y1628057D01*
X438533Y1629897D01*
X442763Y1633967D01*
X459497Y1617233D01*
D02*
G37*
G36*
X413439Y1629661D02*
X389137Y1598720D01*
X388882Y1600537D01*
X388308Y1602163D01*
X387415Y1603598D01*
X386202Y1604841D01*
X384669Y1605894D01*
X382816Y1606754D01*
X380644Y1607424D01*
X378152Y1607902D01*
X375341Y1608189D01*
X372210Y1608285D01*
X378666Y1631950D01*
X413439Y1629661D01*
D02*
G37*
G36*
X323915Y1589881D02*
X320899Y1586697D01*
X318333Y1583630D01*
X316218Y1580679D01*
X314554Y1577843D01*
X313341Y1575124D01*
X312579Y1572521D01*
X312267Y1570033D01*
X312406Y1567662D01*
X312996Y1565407D01*
X314036Y1563268D01*
X280568Y1596736D01*
X282707Y1595696D01*
X284962Y1595106D01*
X287333Y1594967D01*
X289821Y1595279D01*
X292424Y1596041D01*
X295143Y1597254D01*
X297979Y1598918D01*
X300930Y1601033D01*
X303997Y1603599D01*
X307181Y1606615D01*
X323915Y1589881D01*
D02*
G37*
G36*
X2688659Y1694740D02*
X2688456Y1696640D01*
X2687847Y1698340D01*
X2686831Y1699840D01*
X2685410Y1701140D01*
X2683583Y1702240D01*
X2681349Y1703140D01*
X2678709Y1703840D01*
X2675664Y1704340D01*
X2672212Y1704640D01*
X2668354Y1704740D01*
Y1724740D01*
X2672212Y1724840D01*
X2675664Y1725140D01*
X2678709Y1725640D01*
X2681349Y1726340D01*
X2683583Y1727240D01*
X2685410Y1728340D01*
X2686831Y1729640D01*
X2687847Y1731140D01*
X2688456Y1732840D01*
X2688659Y1734740D01*
Y1694740D01*
D02*
G37*
G36*
X2295725Y1654114D02*
X2297980Y1652244D01*
X2300301Y1650594D01*
X2302689Y1649164D01*
X2305142Y1647954D01*
X2307661Y1646964D01*
X2310245Y1646194D01*
X2312896Y1645644D01*
X2315613Y1645314D01*
X2318395Y1645204D01*
Y1625204D01*
X2315613Y1625094D01*
X2312896Y1624764D01*
X2310245Y1624214D01*
X2307661Y1623444D01*
X2305142Y1622454D01*
X2302689Y1621244D01*
X2300301Y1619814D01*
X2297980Y1618164D01*
X2295725Y1616294D01*
X2293535Y1614204D01*
Y1656204D01*
X2295725Y1654114D01*
D02*
G37*
G36*
X1417500Y2787319D02*
X1390500Y2756462D01*
X1383900Y2747359D01*
X1378500Y2738846D01*
X1374300Y2730923D01*
X1371300Y2723592D01*
X1369500Y2716851D01*
X1368900Y2710701D01*
X1348900D01*
X1348300Y2716851D01*
X1346500Y2723592D01*
X1343500Y2730923D01*
X1339300Y2738846D01*
X1333900Y2747359D01*
X1327300Y2756462D01*
X1310500Y2776443D01*
X1300300Y2787319D01*
X1288900Y2798786D01*
X1428900D01*
X1417500Y2787319D01*
D02*
G37*
G36*
X1682862Y2796417D02*
X1647343Y2740310D01*
X1643518Y2732111D01*
X1640786Y2724919D01*
X1639146Y2718735D01*
X1638600Y2713559D01*
X1618600Y2710362D01*
X1617964Y2717107D01*
X1616055Y2724092D01*
X1612874Y2731320D01*
X1608421Y2738789D01*
X1602695Y2746500D01*
X1595697Y2754453D01*
X1587426Y2762648D01*
X1577883Y2771084D01*
X1554980Y2788681D01*
X1693244Y2810661D01*
X1682862Y2796417D01*
D02*
G37*
G36*
X1722950Y1589331D02*
X1723280Y1586615D01*
X1723830Y1583964D01*
X1724600Y1581379D01*
X1725590Y1578860D01*
X1726800Y1576407D01*
X1728230Y1574020D01*
X1729880Y1571699D01*
X1731750Y1569443D01*
X1733840Y1567254D01*
X1691840D01*
X1693930Y1569443D01*
X1695800Y1571699D01*
X1697450Y1574020D01*
X1698880Y1576407D01*
X1700090Y1578860D01*
X1701080Y1581379D01*
X1701850Y1583964D01*
X1702400Y1586615D01*
X1702730Y1589331D01*
X1702840Y1592114D01*
X1722840D01*
X1722950Y1589331D01*
D02*
G37*
G36*
X1788110Y1504002D02*
X1788440Y1501285D01*
X1788990Y1498634D01*
X1789760Y1496049D01*
X1790750Y1493530D01*
X1791960Y1491077D01*
X1793390Y1488690D01*
X1795040Y1486369D01*
X1796910Y1484114D01*
X1799000Y1481924D01*
X1757000D01*
X1759090Y1484114D01*
X1760960Y1486369D01*
X1762610Y1488690D01*
X1764040Y1491077D01*
X1765250Y1493530D01*
X1766240Y1496049D01*
X1767010Y1498634D01*
X1767560Y1501285D01*
X1767890Y1504002D01*
X1768000Y1506784D01*
X1788000D01*
X1788110Y1504002D01*
D02*
G37*
G36*
X2688659Y1504240D02*
X2688456Y1506140D01*
X2687847Y1507840D01*
X2686832Y1509340D01*
X2685410Y1510640D01*
X2683583Y1511740D01*
X2681349Y1512640D01*
X2678710Y1513340D01*
X2675664Y1513840D01*
X2672212Y1514140D01*
X2668354Y1514240D01*
Y1534240D01*
X2672212Y1534340D01*
X2675664Y1534640D01*
X2678710Y1535140D01*
X2681349Y1535840D01*
X2683583Y1536740D01*
X2685410Y1537840D01*
X2686832Y1539140D01*
X2687847Y1540640D01*
X2688456Y1542340D01*
X2688659Y1544240D01*
Y1504240D01*
D02*
G37*
G36*
X2293516Y1542272D02*
X2295996Y1540586D01*
X2298509Y1539099D01*
X2301053Y1537810D01*
X2303628Y1536719D01*
X2306236Y1535826D01*
X2308875Y1535133D01*
X2311547Y1534637D01*
X2314249Y1534339D01*
X2316984Y1534240D01*
X2319362Y1514240D01*
X2316538Y1514122D01*
X2313818Y1513767D01*
X2311199Y1513176D01*
X2308683Y1512348D01*
X2306269Y1511284D01*
X2303958Y1509984D01*
X2301750Y1508447D01*
X2299643Y1506673D01*
X2297639Y1504663D01*
X2295738Y1502417D01*
X2291068Y1544156D01*
X2293516Y1542272D01*
D02*
G37*
G36*
X3287026Y1518023D02*
X3288878Y1516612D01*
X3290879Y1515367D01*
X3293030Y1514288D01*
X3295331Y1513375D01*
X3297781Y1512628D01*
X3300381Y1512047D01*
X3303131Y1511632D01*
X3306030Y1511383D01*
X3309079Y1511300D01*
Y1485900D01*
X3306030Y1485817D01*
X3303131Y1485568D01*
X3300381Y1485153D01*
X3297781Y1484572D01*
X3295331Y1483825D01*
X3293030Y1482912D01*
X3290879Y1481833D01*
X3288878Y1480588D01*
X3287026Y1479177D01*
X3285324Y1477600D01*
Y1519600D01*
X3287026Y1518023D01*
D02*
G37*
G36*
X3446580Y1473200D02*
X3445701Y1475613D01*
X3444397Y1477772D01*
X3442671Y1479677D01*
X3440519Y1481328D01*
X3437944Y1482725D01*
X3434945Y1483868D01*
X3431522Y1484757D01*
X3427676Y1485392D01*
X3423405Y1485773D01*
X3418710Y1485900D01*
Y1511300D01*
X3423405Y1511427D01*
X3427676Y1511808D01*
X3431522Y1512443D01*
X3434945Y1513332D01*
X3437944Y1514475D01*
X3440519Y1515872D01*
X3442671Y1517523D01*
X3444397Y1519428D01*
X3445701Y1521587D01*
X3446580Y1524000D01*
Y1473200D01*
D02*
G37*
G36*
X4846934Y2448046D02*
X4845523Y2446194D01*
X4844278Y2444193D01*
X4843199Y2442042D01*
X4842286Y2439741D01*
X4841539Y2437291D01*
X4840958Y2434691D01*
X4840543Y2431941D01*
X4840294Y2429042D01*
X4840211Y2425993D01*
X4814811D01*
X4814728Y2429042D01*
X4814479Y2431941D01*
X4814064Y2434691D01*
X4813483Y2437291D01*
X4812736Y2439741D01*
X4811823Y2442042D01*
X4810744Y2444193D01*
X4809499Y2446194D01*
X4808088Y2448046D01*
X4806511Y2449748D01*
X4848511D01*
X4846934Y2448046D01*
D02*
G37*
G36*
X3175087Y1536053D02*
X3175348Y1533158D01*
X3175784Y1530422D01*
X3176393Y1527846D01*
X3177176Y1525428D01*
X3178134Y1523170D01*
X3179265Y1521070D01*
X3180571Y1519130D01*
X3182051Y1517349D01*
X3183705Y1515727D01*
X3141759Y1513612D01*
X3143248Y1515383D01*
X3144581Y1517295D01*
X3145758Y1519350D01*
X3146777Y1521545D01*
X3147640Y1523883D01*
X3148345Y1526362D01*
X3148894Y1528982D01*
X3149286Y1531744D01*
X3149522Y1534648D01*
X3149600Y1537693D01*
X3175000Y1539107D01*
X3175087Y1536053D01*
D02*
G37*
G36*
X914445Y1481300D02*
X913924Y1481218D01*
X913457Y1480975D01*
X913045Y1480569D01*
X912688Y1480002D01*
X912386Y1479273D01*
X912139Y1478382D01*
X911947Y1477329D01*
X911810Y1476115D01*
X911727Y1474738D01*
X911700Y1473200D01*
X891700Y1473686D01*
X891359Y1492087D01*
X914445Y1481300D01*
D02*
G37*
G36*
X2293685Y1440502D02*
X2296150Y1438802D01*
X2298650Y1437301D01*
X2301183Y1436001D01*
X2303751Y1434901D01*
X2306353Y1434000D01*
X2308989Y1433300D01*
X2311659Y1432800D01*
X2314363Y1432500D01*
X2317102Y1432400D01*
X2319306Y1412400D01*
X2316485Y1412282D01*
X2313764Y1411929D01*
X2311143Y1411341D01*
X2308622Y1410516D01*
X2306201Y1409457D01*
X2303879Y1408162D01*
X2301656Y1406631D01*
X2299534Y1404865D01*
X2297511Y1402864D01*
X2295588Y1400627D01*
X2291254Y1442403D01*
X2293685Y1440502D01*
D02*
G37*
G36*
X2688659Y1313740D02*
X2688456Y1315640D01*
X2687847Y1317340D01*
X2686832Y1318840D01*
X2685410Y1320140D01*
X2683583Y1321240D01*
X2681349Y1322140D01*
X2678710Y1322840D01*
X2675664Y1323340D01*
X2672212Y1323640D01*
X2668354Y1323740D01*
Y1343740D01*
X2672212Y1343840D01*
X2675664Y1344140D01*
X2678710Y1344640D01*
X2681349Y1345340D01*
X2683583Y1346240D01*
X2685410Y1347340D01*
X2686832Y1348640D01*
X2687847Y1350140D01*
X2688456Y1351840D01*
X2688659Y1353740D01*
Y1313740D01*
D02*
G37*
G36*
X2000110Y1754386D02*
X1998240Y1752131D01*
X1996590Y1749810D01*
X1995160Y1747423D01*
X1993950Y1744970D01*
X1992960Y1742451D01*
X1992190Y1739866D01*
X1991640Y1737215D01*
X1991310Y1734498D01*
X1991200Y1731716D01*
X1971200D01*
X1971090Y1734498D01*
X1970760Y1737215D01*
X1970210Y1739866D01*
X1969440Y1742451D01*
X1968450Y1744970D01*
X1967240Y1747423D01*
X1965810Y1749810D01*
X1964160Y1752131D01*
X1962290Y1754386D01*
X1960200Y1756576D01*
X2002200D01*
X2000110Y1754386D01*
D02*
G37*
G36*
X1991310Y1262702D02*
X1991640Y1259985D01*
X1992190Y1257334D01*
X1992960Y1254749D01*
X1993950Y1252230D01*
X1995160Y1249777D01*
X1996590Y1247390D01*
X1998240Y1245069D01*
X2000110Y1242814D01*
X2002200Y1240624D01*
X1960200D01*
X1962290Y1242814D01*
X1964160Y1245069D01*
X1965810Y1247390D01*
X1967240Y1249777D01*
X1968450Y1252230D01*
X1969440Y1254749D01*
X1970210Y1257334D01*
X1970760Y1259985D01*
X1971090Y1262702D01*
X1971200Y1265484D01*
X1991200D01*
X1991310Y1262702D01*
D02*
G37*
G36*
X1000262Y1173800D02*
X1001194Y1172100D01*
X1002474Y1170600D01*
X1004102Y1169300D01*
X1006080Y1168200D01*
X1008406Y1167300D01*
X1011081Y1166600D01*
X1014105Y1166100D01*
X1017478Y1165800D01*
X1021199Y1165700D01*
Y1145700D01*
X1017478Y1145600D01*
X1014105Y1145300D01*
X1011081Y1144800D01*
X1008406Y1144100D01*
X1006080Y1143200D01*
X1004102Y1142100D01*
X1002474Y1140800D01*
X1001194Y1139300D01*
X1000262Y1137600D01*
X999680Y1135700D01*
Y1175700D01*
X1000262Y1173800D01*
D02*
G37*
G36*
X1070776Y1134700D02*
X1068586Y1136790D01*
X1066331Y1138660D01*
X1064010Y1140310D01*
X1061623Y1141740D01*
X1059170Y1142950D01*
X1056651Y1143940D01*
X1054066Y1144710D01*
X1051415Y1145260D01*
X1048698Y1145590D01*
X1045916Y1145700D01*
Y1165700D01*
X1048698Y1165810D01*
X1051415Y1166140D01*
X1054066Y1166690D01*
X1056651Y1167460D01*
X1059170Y1168450D01*
X1061623Y1169660D01*
X1064010Y1171090D01*
X1066331Y1172740D01*
X1068586Y1174610D01*
X1070776Y1176700D01*
Y1134700D01*
D02*
G37*
G36*
X2295725Y1314310D02*
X2297980Y1312440D01*
X2300301Y1310790D01*
X2302689Y1309360D01*
X2305142Y1308150D01*
X2307661Y1307160D01*
X2310245Y1306390D01*
X2312896Y1305840D01*
X2315613Y1305510D01*
X2318395Y1305400D01*
Y1285400D01*
X2315613Y1285290D01*
X2312896Y1284960D01*
X2310245Y1284410D01*
X2307661Y1283640D01*
X2305142Y1282650D01*
X2302689Y1281440D01*
X2300301Y1280010D01*
X2297980Y1278360D01*
X2295725Y1276490D01*
X2293535Y1274400D01*
Y1316400D01*
X2295725Y1314310D01*
D02*
G37*
G36*
X2688659Y1123240D02*
X2688456Y1125140D01*
X2687847Y1126840D01*
X2686832Y1128340D01*
X2685410Y1129640D01*
X2683583Y1130740D01*
X2681349Y1131640D01*
X2678710Y1132340D01*
X2675664Y1132840D01*
X2672212Y1133140D01*
X2668354Y1133240D01*
Y1153240D01*
X2672212Y1153340D01*
X2675664Y1153640D01*
X2678710Y1154140D01*
X2681349Y1154840D01*
X2683583Y1155740D01*
X2685410Y1156840D01*
X2686832Y1158140D01*
X2687847Y1159640D01*
X2688456Y1161340D01*
X2688659Y1163240D01*
Y1123240D01*
D02*
G37*
G36*
X2295725Y1200010D02*
X2297980Y1198140D01*
X2300301Y1196490D01*
X2302689Y1195060D01*
X2305142Y1193850D01*
X2307661Y1192860D01*
X2310245Y1192090D01*
X2312896Y1191540D01*
X2315613Y1191210D01*
X2318395Y1191100D01*
Y1171100D01*
X2315613Y1170990D01*
X2312896Y1170660D01*
X2310245Y1170110D01*
X2307661Y1169340D01*
X2305142Y1168350D01*
X2302689Y1167140D01*
X2300301Y1165710D01*
X2297980Y1164060D01*
X2295725Y1162190D01*
X2293535Y1160100D01*
Y1202100D01*
X2295725Y1200010D01*
D02*
G37*
G36*
X2688659Y932740D02*
X2688456Y934640D01*
X2687847Y936340D01*
X2686832Y937840D01*
X2685410Y939140D01*
X2683583Y940240D01*
X2681349Y941140D01*
X2678710Y941840D01*
X2675664Y942340D01*
X2672212Y942640D01*
X2668354Y942740D01*
Y962740D01*
X2672212Y962840D01*
X2675664Y963140D01*
X2678710Y963640D01*
X2681349Y964340D01*
X2683583Y965240D01*
X2685410Y966340D01*
X2686832Y967640D01*
X2687847Y969140D01*
X2688456Y970840D01*
X2688659Y972740D01*
Y932740D01*
D02*
G37*
G36*
X2291423Y1084520D02*
X2293746Y1082698D01*
X2296125Y1081091D01*
X2298560Y1079698D01*
X2301051Y1078519D01*
X2303597Y1077555D01*
X2306199Y1076805D01*
X2308857Y1076269D01*
X2311571Y1075948D01*
X2314341Y1075840D01*
X2315020Y1055840D01*
X2312225Y1055728D01*
X2309506Y1055390D01*
X2306864Y1054827D01*
X2304297Y1054038D01*
X2301807Y1053025D01*
X2299393Y1051786D01*
X2297056Y1050321D01*
X2294794Y1048632D01*
X2292609Y1046717D01*
X2290500Y1044577D01*
X2289156Y1086555D01*
X2291423Y1084520D01*
D02*
G37*
G36*
X2303369Y961874D02*
X2303641Y958957D01*
X2304116Y956149D01*
X2304793Y953450D01*
X2305672Y950860D01*
X2306753Y948378D01*
X2308036Y946006D01*
X2309521Y943743D01*
X2311209Y941589D01*
X2313099Y939543D01*
X2298957Y925401D01*
X2296911Y927291D01*
X2294757Y928979D01*
X2292494Y930464D01*
X2290122Y931747D01*
X2287640Y932828D01*
X2285050Y933707D01*
X2282351Y934384D01*
X2279543Y934859D01*
X2276626Y935131D01*
X2273600Y935202D01*
X2303298Y964900D01*
X2303369Y961874D01*
D02*
G37*
G36*
X2688659Y551740D02*
X2688456Y553640D01*
X2687847Y555340D01*
X2686831Y556840D01*
X2685410Y558140D01*
X2683583Y559240D01*
X2681349Y560140D01*
X2678709Y560840D01*
X2675664Y561340D01*
X2672212Y561640D01*
X2668354Y561740D01*
Y581740D01*
X2672212Y581840D01*
X2675664Y582140D01*
X2678709Y582640D01*
X2681349Y583340D01*
X2683583Y584240D01*
X2685410Y585340D01*
X2686831Y586640D01*
X2687847Y588140D01*
X2688456Y589840D01*
X2688659Y591740D01*
Y551740D01*
D02*
G37*
G36*
X3238224Y1016882D02*
X3240480Y1015012D01*
X3242801Y1013362D01*
X3245188Y1011932D01*
X3247641Y1010722D01*
X3250160Y1009732D01*
X3252745Y1008962D01*
X3255396Y1008412D01*
X3258112Y1008082D01*
X3260895Y1007972D01*
Y987972D01*
X3258112Y987862D01*
X3255396Y987532D01*
X3252745Y986982D01*
X3250160Y986212D01*
X3247641Y985222D01*
X3245188Y984012D01*
X3242801Y982582D01*
X3240480Y980932D01*
X3238224Y979062D01*
X3236035Y976972D01*
Y1018972D01*
X3238224Y1016882D01*
D02*
G37*
G36*
X3786176Y518223D02*
X3786506Y515506D01*
X3787056Y512855D01*
X3787826Y510271D01*
X3788816Y507752D01*
X3790026Y505299D01*
X3791456Y502912D01*
X3793106Y500590D01*
X3794976Y498335D01*
X3797066Y496146D01*
X3755066D01*
X3757156Y498335D01*
X3759026Y500590D01*
X3760676Y502912D01*
X3762106Y505299D01*
X3763316Y507752D01*
X3764306Y510271D01*
X3765076Y512855D01*
X3765626Y515506D01*
X3765956Y518223D01*
X3766066Y521006D01*
X3786066D01*
X3786176Y518223D01*
D02*
G37*
G36*
X2152505Y555204D02*
X2157408Y553125D01*
X2163735Y551291D01*
X2171486Y549702D01*
X2180662Y548357D01*
X2203285Y546400D01*
X2247900Y545300D01*
Y445300D01*
X2234538Y445115D01*
X2201318Y442336D01*
X2192533Y440669D01*
X2184891Y438631D01*
X2178394Y436223D01*
X2173041Y433444D01*
X2168832Y430295D01*
X2165768Y426775D01*
X2149026Y557527D01*
X2152505Y555204D01*
D02*
G37*
G36*
X3269300Y327938D02*
X3267600Y327006D01*
X3266100Y325726D01*
X3264800Y324098D01*
X3263700Y322120D01*
X3262800Y319794D01*
X3262100Y317119D01*
X3261600Y314095D01*
X3261300Y310723D01*
X3261200Y307001D01*
X3241200D01*
X3241100Y310723D01*
X3240800Y314095D01*
X3240300Y317119D01*
X3239600Y319794D01*
X3238700Y322120D01*
X3237600Y324098D01*
X3236300Y325726D01*
X3234800Y327006D01*
X3233100Y327938D01*
X3231200Y328520D01*
X3271200D01*
X3269300Y327938D01*
D02*
G37*
G36*
X3261310Y272102D02*
X3261640Y269385D01*
X3262190Y266734D01*
X3262960Y264149D01*
X3263950Y261630D01*
X3265160Y259177D01*
X3266590Y256790D01*
X3268240Y254469D01*
X3270110Y252214D01*
X3272200Y250024D01*
X3230200D01*
X3232290Y252214D01*
X3234160Y254469D01*
X3235810Y256790D01*
X3237240Y259177D01*
X3238450Y261630D01*
X3239440Y264149D01*
X3240210Y266734D01*
X3240760Y269385D01*
X3241090Y272102D01*
X3241200Y274884D01*
X3261200D01*
X3261310Y272102D01*
D02*
G37*
G36*
X4845423Y1183374D02*
X4844012Y1181522D01*
X4842767Y1179521D01*
X4841688Y1177370D01*
X4840775Y1175069D01*
X4840028Y1172619D01*
X4839447Y1170019D01*
X4839032Y1167269D01*
X4838783Y1164370D01*
X4838700Y1161321D01*
X4813300D01*
X4813217Y1164370D01*
X4812968Y1167269D01*
X4812553Y1170019D01*
X4811972Y1172619D01*
X4811225Y1175069D01*
X4810312Y1177370D01*
X4809233Y1179521D01*
X4807988Y1181522D01*
X4806577Y1183374D01*
X4805000Y1185076D01*
X4847000D01*
X4845423Y1183374D01*
D02*
G37*
G36*
X2956826Y133723D02*
X2958678Y132312D01*
X2960679Y131067D01*
X2962830Y129988D01*
X2965131Y129075D01*
X2967581Y128328D01*
X2970181Y127747D01*
X2972931Y127332D01*
X2975830Y127083D01*
X2978879Y127000D01*
Y101600D01*
X2975830Y101517D01*
X2972931Y101268D01*
X2970181Y100853D01*
X2967581Y100272D01*
X2965131Y99525D01*
X2962830Y98612D01*
X2960679Y97533D01*
X2958678Y96288D01*
X2956826Y94877D01*
X2955124Y93300D01*
Y135300D01*
X2956826Y133723D01*
D02*
G37*
D28*
X556437Y1661965D02*
X760462Y1865990D01*
X1106438D01*
X775524Y1829624D02*
X1091376D01*
X1106635Y1814365D01*
X571500Y1625600D02*
X775524Y1829624D01*
X1106438Y1865990D02*
X1143000Y1829428D01*
X421919Y1690606D02*
X426345D01*
X451130Y1625600D02*
X571500D01*
X419100Y1600200D02*
X425730D01*
X426345Y1690606D02*
X454986Y1661965D01*
X425730Y1600200D02*
X451130Y1625600D01*
X454986Y1661965D02*
X556437D01*
X945511Y1710638D02*
X1092772D01*
X1143000Y1709438D02*
Y1829428D01*
X1107835Y1674273D02*
X1143000Y1709438D01*
X1106635Y1724501D02*
Y1814365D01*
X941006Y1674273D02*
X1107835D01*
X1092772Y1710638D02*
X1106635Y1724501D01*
X911103Y1745046D02*
Y1749516D01*
X908976Y1642243D02*
X941006Y1674273D01*
X911103Y1745046D02*
X945511Y1710638D01*
X908976Y1641031D02*
Y1642243D01*
X387796Y1656483D02*
X421919Y1690606D01*
X228600Y1765300D02*
X337417Y1656483D01*
X387796D01*
X399183Y1620117D02*
X419100Y1600200D01*
X337417Y1620117D02*
X399183D01*
X228600Y1511300D02*
X337417Y1620117D01*
D29*
X2666760Y571740D02*
X2743269D01*
X2679460Y762240D02*
X2743269D01*
X2381400Y1060300D02*
X2679460Y762240D01*
X2552460Y1333740D02*
X2743269D01*
X2628660Y1143240D02*
X2743269D01*
X2615960Y952740D02*
X2743269D01*
X2387601Y1181100D02*
X2615960Y952740D01*
X1981200Y1219200D02*
Y1778000D01*
X1712840Y1545830D02*
Y2325760D01*
X1358900Y2679700D02*
X1712840Y2325760D01*
X1358900Y2679700D02*
Y2870200D01*
X1778000Y1460500D02*
Y2413000D01*
X1628600Y2562400D02*
X1778000Y2413000D01*
X1628600Y2562400D02*
Y2854500D01*
X1612900Y2870200D02*
X1628600Y2854500D01*
X3251200Y228600D02*
Y426500D01*
X2536904Y1635204D02*
X2616440Y1714740D01*
X2743269D01*
X2298139Y1635204D02*
X2536904D01*
X3713728Y997972D02*
X3776066Y935634D01*
X3214611Y997972D02*
X3713728D01*
X3776066Y474721D02*
Y935634D01*
X2273300Y965200D02*
X2666760Y571740D01*
X2336917Y1060300D02*
X2381400D01*
X2331376Y1065840D02*
X2336917Y1060300D01*
X2267455Y1065840D02*
X2331376D01*
X2272111Y2097582D02*
Y2322911D01*
X2425940Y2476740D01*
X2286000Y1295400D02*
X2476500D01*
X2272111Y1181100D02*
X2387601D01*
X2476500Y1295400D02*
X2628660Y1143240D01*
X2286000Y1422400D02*
X2463800D01*
X2552460Y1333740D01*
X2286240Y1524240D02*
X2743269D01*
X2272739Y1749504D02*
X2435304D01*
X2591040Y1905240D01*
X2743269D01*
X2272739Y1863804D02*
X2384504D01*
X2616200Y2095500D01*
X2743029D01*
X2743269Y2095740D01*
X2296263Y1978104D02*
X2333704D01*
X2387600Y2032000D01*
Y2171700D01*
X2502140Y2286240D01*
X2743269D01*
X2425940Y2476740D02*
X2730569D01*
X901700Y1155700D02*
X1092200D01*
X901700Y1473200D02*
Y1498600D01*
X914400Y1511300D01*
D30*
X3890200Y2726500D02*
X5364188D01*
X1866900Y2870200D02*
X3746500D01*
X3890200Y2726500D01*
D31*
X3289300Y1841500D02*
X4597400D01*
X4827511Y2071611D01*
Y2471172D01*
X4826000Y292100D02*
Y1206500D01*
X4648200Y114300D02*
X4826000Y292100D01*
X3263900Y1498600D02*
X3543300D01*
X2933700Y114300D02*
X4648200D01*
X3773411Y2001272D02*
Y2271056D01*
X3612783Y2431683D02*
X3773411Y2271056D01*
X3162300Y1498600D02*
Y1714500D01*
X3289300Y1841500D01*
X3218854Y2431683D02*
X3612783D01*
D32*
X2095500Y495300D02*
X2247900D01*
X5119760Y2997200D02*
X5181600D01*
X5043560Y2921000D02*
X5119760Y2997200D01*
X5016500Y2921000D02*
X5043560D01*
X5135202Y1322345D02*
X5205032Y1252514D01*
Y1213894D02*
Y1252514D01*
D33*
X6669100Y1093498D02*
D03*
D34*
X6869100D02*
D03*
X6669100Y1293498D02*
D03*
X6869100D02*
D03*
X6669100Y1493498D02*
D03*
X6869100D02*
D03*
X6669100Y1693497D02*
D03*
X6869100D02*
D03*
X6669100Y1893497D02*
D03*
X6869100D02*
D03*
X6669100Y2093496D02*
D03*
X6869100D02*
D03*
D35*
X1866900Y2870200D02*
D03*
X1612900D02*
D03*
X1358900D02*
D03*
D36*
X1104900D02*
D03*
D37*
X6743700Y2857500D02*
D03*
X330200D02*
D03*
Y381000D02*
D03*
X6743700D02*
D03*
D38*
X5964199Y2726500D02*
D03*
Y2226500D02*
D03*
X5364201Y2726500D02*
D03*
Y2226500D02*
D03*
X5389601Y537400D02*
D03*
Y1037399D02*
D03*
X5989599Y537400D02*
D03*
Y1037399D02*
D03*
D39*
X515569Y1304486D02*
D03*
Y1882488D02*
D03*
D40*
X145560Y1160989D02*
D03*
Y2026011D02*
D03*
D41*
X565559Y1160989D02*
D03*
Y2026011D02*
D03*
D42*
X6184900Y1587500D02*
D03*
X3581400Y342900D02*
D03*
X2247900Y495300D02*
D03*
X421919Y1690606D02*
D03*
X419100Y1600200D02*
D03*
X908976Y1641031D02*
D03*
X911103Y1749516D02*
D03*
X859924Y1698108D02*
D03*
X1981200Y1778000D02*
D03*
Y1219200D02*
D03*
X1712840Y1545830D02*
D03*
X1778000Y1460500D02*
D03*
X5321300Y1498600D02*
D03*
X4902200Y2286000D02*
D03*
X2933700Y215900D02*
D03*
X2794000Y127000D02*
D03*
X4889500Y939800D02*
D03*
X4983995Y937880D02*
D03*
X4635500Y838200D02*
D03*
X4394200D02*
D03*
X5816600Y1422400D02*
D03*
X5448300Y1498600D02*
D03*
X2565400Y127000D02*
D03*
X3251200Y228600D02*
D03*
X3048000Y292100D02*
D03*
X3644900Y584200D02*
D03*
X1486677Y1508226D02*
D03*
X1485900Y1689100D02*
D03*
Y1600200D02*
D03*
X1003300Y1308100D02*
D03*
X749300Y1955800D02*
D03*
X1524000Y1917700D02*
D03*
X2628900Y1600200D02*
D03*
X3098800Y1752600D02*
D03*
X2971800D02*
D03*
X3263900Y1498600D02*
D03*
X5175423Y2995386D02*
D03*
X5205032Y1213894D02*
D03*
X6007100Y1816100D02*
D03*
X5969000Y1727200D02*
D03*
X6248400Y1790700D02*
D03*
X6045200Y1892300D02*
D03*
X2933700Y114300D02*
D03*
X4826000Y1206500D02*
D03*
X4991100Y2247900D02*
D03*
X4610100Y2184400D02*
D03*
X4394200D02*
D03*
X3163811Y1493272D02*
D03*
X4827511Y2471172D02*
D03*
X3619500Y2108200D02*
D03*
X3218854Y2431683D02*
D03*
X3773411Y2001272D02*
D03*
X3214611Y997972D02*
D03*
X3776066Y474721D02*
D03*
X2273300Y965200D02*
D03*
X2268415Y1064881D02*
D03*
X2272111Y1181100D02*
D03*
Y1295400D02*
D03*
Y1419304D02*
D03*
Y1520904D02*
D03*
Y1635204D02*
D03*
Y1749504D02*
D03*
Y1863804D02*
D03*
Y1978104D02*
D03*
Y2097582D02*
D03*
X1092200Y1155700D02*
D03*
X914400Y1511300D02*
D03*
X6537634Y2839448D02*
D03*
X6550334Y2915648D02*
D03*
X6588434Y2979148D02*
D03*
X6639234Y3029948D02*
D03*
X6715434Y3055348D02*
D03*
X6791634D02*
D03*
X6867834Y3017248D02*
D03*
X6918634Y2953748D02*
D03*
X6944034Y2877548D02*
D03*
Y2801348D02*
D03*
X6905934Y2737848D02*
D03*
X6842434Y2687048D02*
D03*
X6766234Y2661648D02*
D03*
X6690034Y2674348D02*
D03*
X6613834Y2712448D02*
D03*
X6563034Y2763248D02*
D03*
X124134Y2839448D02*
D03*
X136834Y2915648D02*
D03*
X174934Y2979148D02*
D03*
X225734Y3029948D02*
D03*
X301934Y3055348D02*
D03*
X378134D02*
D03*
X454334Y3017248D02*
D03*
X505134Y2953748D02*
D03*
X530534Y2877548D02*
D03*
Y2801348D02*
D03*
X492434Y2737848D02*
D03*
X428934Y2687048D02*
D03*
X352734Y2661648D02*
D03*
X276534Y2674348D02*
D03*
X200334Y2712448D02*
D03*
X149534Y2763248D02*
D03*
X124134Y362948D02*
D03*
X136834Y439148D02*
D03*
X174934Y502648D02*
D03*
X225734Y553448D02*
D03*
X301934Y578848D02*
D03*
X378134D02*
D03*
X454334Y540748D02*
D03*
X505134Y477248D02*
D03*
X530534Y401048D02*
D03*
Y324848D02*
D03*
X492434Y261348D02*
D03*
X428934Y210548D02*
D03*
X352734Y185148D02*
D03*
X276534Y197848D02*
D03*
X200334Y235948D02*
D03*
X149534Y286748D02*
D03*
X6537634Y362948D02*
D03*
X6550334Y439148D02*
D03*
X6588434Y502648D02*
D03*
X6639234Y553448D02*
D03*
X6715434Y578848D02*
D03*
X6791634D02*
D03*
X6867834Y540748D02*
D03*
X6918634Y477248D02*
D03*
X6944034Y401048D02*
D03*
Y324848D02*
D03*
X6905934Y261348D02*
D03*
X6842434Y210548D02*
D03*
X6766234Y185148D02*
D03*
X6690034Y197848D02*
D03*
X6613834Y235948D02*
D03*
X6563034Y286748D02*
D03*
D43*
X6398343Y1601595D02*
D03*
D44*
X6308173D02*
D03*
D45*
X5016500Y2921000D02*
D03*
X6070600Y1605400D02*
D03*
X228600Y1765300D02*
D03*
Y1511300D02*
D03*
X901700Y1473200D02*
D03*
Y1155700D02*
D03*
X2082800Y482600D02*
D03*
X3251200Y426500D02*
D03*
X5135202Y1349404D02*
D03*
X3543300Y1498600D02*
D03*
D46*
X2743269Y571740D02*
D03*
Y762240D02*
D03*
X2743269Y952740D02*
D03*
Y1143240D02*
D03*
Y1333740D02*
D03*
Y1524240D02*
D03*
X2743269Y1714740D02*
D03*
Y2095740D02*
D03*
Y2286240D02*
D03*
Y1905240D02*
D03*
Y2476740D02*
D03*
D47*
X2833439Y571740D02*
D03*
Y762240D02*
D03*
X2833439Y952740D02*
D03*
Y1143240D02*
D03*
Y1333740D02*
D03*
Y1524240D02*
D03*
X2833439Y1714740D02*
D03*
X2833439Y2095740D02*
D03*
X2833439Y2286240D02*
D03*
Y1905240D02*
D03*
Y2476740D02*
D03*
D48*
X6398343Y1475657D02*
X6478930Y1395070D01*
X6710028D02*
X6767528D01*
X6628172D02*
X6628284Y1394958D01*
X6478930Y1395070D02*
X6628172D01*
X6709916Y1394958D02*
X6710028Y1395070D01*
X6628284Y1394958D02*
X6709916D01*
X6398343Y1475657D02*
Y1601595D01*
X6767528Y1395070D02*
X6869100Y1293498D01*
D49*
X6892099Y2226500D02*
X6996090Y2122510D01*
Y1620487D02*
Y2122510D01*
X6869100Y1493498D02*
X6996090Y1620487D01*
X5964187Y2226500D02*
X6892099D01*
%TF.MD5,7835a24f9295d72f4d1e4651992b9644*%
M02*
