%TF.GenerationSoftware,Altium Limited,Altium Designer,24.10.1 (45)*%
G04 Layer_Color=8388736*
%FSLAX45Y45*%
%MOMM*%
%TF.SameCoordinates,F50C4461-6059-43A5-BEE7-B7ABC5EDFC2B*%
%TF.FilePolarity,Negative*%
%TF.FileFunction,Soldermask,Top*%
%TF.Part,Single*%
G01*
G75*
%TA.AperFunction,SMDPad,CuDef*%
%ADD55R,2.70320X3.70320*%
G04:AMPARAMS|DCode=56|XSize=0.6932mm|YSize=0.8032mm|CornerRadius=0.1506mm|HoleSize=0mm|Usage=FLASHONLY|Rotation=90.000|XOffset=0mm|YOffset=0mm|HoleType=Round|Shape=RoundedRectangle|*
%AMROUNDEDRECTD56*
21,1,0.69320,0.50200,0,0,90.0*
21,1,0.39200,0.80320,0,0,90.0*
1,1,0.30120,0.25100,0.19600*
1,1,0.30120,0.25100,-0.19600*
1,1,0.30120,-0.25100,-0.19600*
1,1,0.30120,-0.25100,0.19600*
%
%ADD56ROUNDEDRECTD56*%
G04:AMPARAMS|DCode=57|XSize=0.8032mm|YSize=0.7432mm|CornerRadius=0.2447mm|HoleSize=0mm|Usage=FLASHONLY|Rotation=0.000|XOffset=0mm|YOffset=0mm|HoleType=Round|Shape=RoundedRectangle|*
%AMROUNDEDRECTD57*
21,1,0.80320,0.25380,0,0,0.0*
21,1,0.31380,0.74320,0,0,0.0*
1,1,0.48940,0.15690,-0.12690*
1,1,0.48940,-0.15690,-0.12690*
1,1,0.48940,-0.15690,0.12690*
1,1,0.48940,0.15690,0.12690*
%
%ADD57ROUNDEDRECTD57*%
G04:AMPARAMS|DCode=58|XSize=1.1032mm|YSize=1.1632mm|CornerRadius=0.3266mm|HoleSize=0mm|Usage=FLASHONLY|Rotation=180.000|XOffset=0mm|YOffset=0mm|HoleType=Round|Shape=RoundedRectangle|*
%AMROUNDEDRECTD58*
21,1,1.10320,0.51000,0,0,180.0*
21,1,0.45000,1.16320,0,0,180.0*
1,1,0.65320,-0.22500,0.25500*
1,1,0.65320,0.22500,0.25500*
1,1,0.65320,0.22500,-0.25500*
1,1,0.65320,-0.22500,-0.25500*
%
%ADD58ROUNDEDRECTD58*%
%ADD59R,3.80319X2.67320*%
%ADD60R,1.18321X2.67320*%
G04:AMPARAMS|DCode=61|XSize=0.6932mm|YSize=0.8032mm|CornerRadius=0.1506mm|HoleSize=0mm|Usage=FLASHONLY|Rotation=180.000|XOffset=0mm|YOffset=0mm|HoleType=Round|Shape=RoundedRectangle|*
%AMROUNDEDRECTD61*
21,1,0.69320,0.50200,0,0,180.0*
21,1,0.39200,0.80320,0,0,180.0*
1,1,0.30120,-0.19600,0.25100*
1,1,0.30120,0.19600,0.25100*
1,1,0.30120,0.19600,-0.25100*
1,1,0.30120,-0.19600,-0.25100*
%
%ADD61ROUNDEDRECTD61*%
%ADD62O,2.00160X0.80160*%
%ADD63O,3.60159X2.10160*%
%ADD64O,2.20160X0.80160*%
G04:AMPARAMS|DCode=65|XSize=1.3532mm|YSize=1.6532mm|CornerRadius=0.3891mm|HoleSize=0mm|Usage=FLASHONLY|Rotation=270.000|XOffset=0mm|YOffset=0mm|HoleType=Round|Shape=RoundedRectangle|*
%AMROUNDEDRECTD65*
21,1,1.35320,0.87500,0,0,270.0*
21,1,0.57500,1.65320,0,0,270.0*
1,1,0.77820,-0.43750,-0.28750*
1,1,0.77820,-0.43750,0.28750*
1,1,0.77820,0.43750,0.28750*
1,1,0.77820,0.43750,-0.28750*
%
%ADD65ROUNDEDRECTD65*%
G04:AMPARAMS|DCode=66|XSize=0.8032mm|YSize=0.7432mm|CornerRadius=0.2447mm|HoleSize=0mm|Usage=FLASHONLY|Rotation=270.000|XOffset=0mm|YOffset=0mm|HoleType=Round|Shape=RoundedRectangle|*
%AMROUNDEDRECTD66*
21,1,0.80320,0.25380,0,0,270.0*
21,1,0.31380,0.74320,0,0,270.0*
1,1,0.48940,-0.12690,-0.15690*
1,1,0.48940,-0.12690,0.15690*
1,1,0.48940,0.12690,0.15690*
1,1,0.48940,0.12690,-0.15690*
%
%ADD66ROUNDEDRECTD66*%
%ADD67R,0.70201X1.20200*%
G04:AMPARAMS|DCode=68|XSize=1.1032mm|YSize=1.1632mm|CornerRadius=0.3266mm|HoleSize=0mm|Usage=FLASHONLY|Rotation=270.000|XOffset=0mm|YOffset=0mm|HoleType=Round|Shape=RoundedRectangle|*
%AMROUNDEDRECTD68*
21,1,1.10320,0.51000,0,0,270.0*
21,1,0.45000,1.16320,0,0,270.0*
1,1,0.65320,-0.25500,-0.22500*
1,1,0.65320,-0.25500,0.22500*
1,1,0.65320,0.25500,0.22500*
1,1,0.65320,0.25500,-0.22500*
%
%ADD68ROUNDEDRECTD68*%
%ADD69R,1.60000X2.59999*%
%ADD70R,0.76500X0.38001*%
%TA.AperFunction,ConnectorPad*%
%ADD71R,1.23001X0.68000*%
%ADD72R,1.23001X0.38000*%
%TA.AperFunction,ComponentPad*%
%ADD73R,1.60320X1.60320*%
%ADD74C,1.60320*%
%ADD75C,2.20320*%
%ADD76R,2.20320X2.20320*%
%ADD77C,5.20320*%
%ADD78C,1.80320*%
%ADD79C,0.85319*%
%ADD80O,2.00160X1.10160*%
%ADD81O,2.20160X1.10160*%
D55*
X3517500Y2514600D02*
D03*
X4102500D02*
D03*
X3517500Y1079500D02*
D03*
X4102500D02*
D03*
D56*
X3251200Y1912843D02*
D03*
Y1821843D02*
D03*
X1612900Y2636300D02*
D03*
Y2545300D02*
D03*
X1358900Y2636300D02*
D03*
Y2545300D02*
D03*
X3771900Y388400D02*
D03*
Y297400D02*
D03*
X3251200Y335500D02*
D03*
Y426500D02*
D03*
X3771900Y1925100D02*
D03*
Y1834100D02*
D03*
D57*
X2984500Y1909900D02*
D03*
Y1823900D02*
D03*
X3111500Y1909900D02*
D03*
Y1823900D02*
D03*
X3314700Y1011100D02*
D03*
Y1097100D02*
D03*
X5321300Y1595300D02*
D03*
Y1681300D02*
D03*
X5448300Y1595300D02*
D03*
Y1681300D02*
D03*
X4826000Y2382700D02*
D03*
Y2468700D02*
D03*
X4981329Y2383017D02*
D03*
Y2469017D02*
D03*
Y1036500D02*
D03*
Y1122500D02*
D03*
X4826000Y1036500D02*
D03*
Y1122500D02*
D03*
X3111500Y338000D02*
D03*
Y424000D02*
D03*
X2984500Y337067D02*
D03*
Y423067D02*
D03*
X3314700Y2433500D02*
D03*
Y2519500D02*
D03*
D58*
X1757800Y1219200D02*
D03*
X1595000D02*
D03*
X1427600D02*
D03*
X1264800D02*
D03*
X1074300Y1892300D02*
D03*
X1237100D02*
D03*
D59*
X1498600Y364211D02*
D03*
D60*
X1268603Y931189D02*
D03*
X1498600Y931190D02*
D03*
X1728597Y931189D02*
D03*
D61*
X1109607Y1634066D02*
D03*
Y1752599D02*
D03*
X3027900Y114300D02*
D03*
X3118900D02*
D03*
X3027900Y215900D02*
D03*
X3118900D02*
D03*
X3258840Y1590276D02*
D03*
X3167840D02*
D03*
X3167600Y1701800D02*
D03*
X3258600D02*
D03*
X2191800Y1638300D02*
D03*
X2100800D02*
D03*
X2191800Y1752600D02*
D03*
X2100800D02*
D03*
X2191800Y1866900D02*
D03*
X2100800D02*
D03*
X2191800Y1981200D02*
D03*
X2100800Y1981200D02*
D03*
X2191800Y2095500D02*
D03*
X2100800D02*
D03*
X2191800Y965200D02*
D03*
X2100800D02*
D03*
X2191800Y1066800D02*
D03*
X2100800D02*
D03*
X2191800Y1181100D02*
D03*
X2100800D02*
D03*
X2191800Y1295400D02*
D03*
X2100800D02*
D03*
X2191800Y1409700D02*
D03*
X2100800D02*
D03*
X2191800Y1524000D02*
D03*
X2100800D02*
D03*
X1200607Y1515533D02*
D03*
X1109607D02*
D03*
X1200607Y1634066D02*
D03*
Y1752599D02*
D03*
Y1397000D02*
D03*
X1109607D02*
D03*
D62*
X4777232Y1742186D02*
D03*
Y2042414D02*
D03*
D63*
X5027168Y1892300D02*
D03*
D64*
X4787138D02*
D03*
D65*
X5816600Y1573700D02*
D03*
Y1753700D02*
D03*
X4394200Y989183D02*
D03*
Y1169183D02*
D03*
X4635500Y989500D02*
D03*
Y1169500D02*
D03*
X2565400Y278300D02*
D03*
Y458300D02*
D03*
X2794000Y278300D02*
D03*
Y458300D02*
D03*
Y1776583D02*
D03*
Y1956583D02*
D03*
X4635501Y2515700D02*
D03*
Y2335700D02*
D03*
X4394200Y2515700D02*
D03*
X4394199Y2335700D02*
D03*
X2565400Y1956583D02*
D03*
Y1776583D02*
D03*
D66*
X4680738Y1581410D02*
D03*
X4766738D02*
D03*
X4674891Y1464618D02*
D03*
X4760891D02*
D03*
X1430200Y1841500D02*
D03*
X1516200D02*
D03*
D67*
X3397504Y207899D02*
D03*
X3492500D02*
D03*
X3587496D02*
D03*
Y477901D02*
D03*
X3492500D02*
D03*
X3397504D02*
D03*
Y1731899D02*
D03*
X3492500D02*
D03*
X3587496D02*
D03*
Y2001901D02*
D03*
X3492500D02*
D03*
X3397504D02*
D03*
D68*
X5600700Y1569600D02*
D03*
Y1732400D02*
D03*
D69*
X1485900Y1600200D02*
D03*
D70*
X1626641Y1700200D02*
D03*
X1626641Y1650187D02*
D03*
X1626641Y1600200D02*
D03*
Y1550187D02*
D03*
Y1500200D02*
D03*
X1345159D02*
D03*
Y1550187D02*
D03*
Y1600200D02*
D03*
X1345159Y1650187D02*
D03*
X1345159Y1700200D02*
D03*
D71*
X641840Y1273513D02*
D03*
Y1353500D02*
D03*
Y1833510D02*
D03*
Y1913489D02*
D03*
D72*
Y1418504D02*
D03*
Y1468509D02*
D03*
Y1518494D02*
D03*
Y1568504D02*
D03*
Y1618494D02*
D03*
Y1668504D02*
D03*
Y1718491D02*
D03*
Y1768506D02*
D03*
D73*
X6669100Y1093498D02*
D03*
D74*
X6869100D02*
D03*
X6669100Y1293498D02*
D03*
X6869100D02*
D03*
X6669100Y1493498D02*
D03*
X6869100D02*
D03*
X6669100Y1693497D02*
D03*
X6869100D02*
D03*
X6669100Y1893497D02*
D03*
X6869100D02*
D03*
X6669100Y2093496D02*
D03*
X6869100D02*
D03*
D75*
X1866900Y2870200D02*
D03*
X1612900D02*
D03*
X1358900D02*
D03*
D76*
X1104900D02*
D03*
D77*
X6743700Y2857500D02*
D03*
X330200D02*
D03*
Y381000D02*
D03*
X6743700D02*
D03*
D78*
X5964199Y2726500D02*
D03*
Y2226500D02*
D03*
X5364201Y2726500D02*
D03*
Y2226500D02*
D03*
X5389601Y537400D02*
D03*
Y1037399D02*
D03*
X5989599Y537400D02*
D03*
Y1037399D02*
D03*
D79*
X515569Y1304486D02*
D03*
Y1882488D02*
D03*
D80*
X145560Y1160989D02*
D03*
Y2026011D02*
D03*
D81*
X565559Y1160989D02*
D03*
Y2026011D02*
D03*
%TF.MD5,f3fe6748c070968669ffb96397f3d748*%
M02*
