%TF.GenerationSoftware,Altium Limited,Altium Designer,24.10.1 (45)*%
G04 Layer_Color=128*
%FSLAX45Y45*%
%MOMM*%
%TF.SameCoordinates,F50C4461-6059-43A5-BEE7-B7ABC5EDFC2B*%
%TF.FilePolarity,Positive*%
%TF.FileFunction,Paste,Bot*%
%TF.Part,Single*%
G01*
G75*
%TA.AperFunction,SMDPad,CuDef*%
%ADD45C,2.00000*%
G36*
X2891224Y2431020D02*
X2817564D01*
X2775654Y2476740D01*
X2817564Y2522460D01*
X2891224D01*
Y2431020D01*
D02*
G37*
G36*
X2756604Y2476740D02*
X2798514Y2431020D01*
X2688024D01*
Y2522460D01*
X2798514D01*
X2756604Y2476740D01*
D02*
G37*
G36*
X2891224Y2240520D02*
X2817564D01*
X2775654Y2286240D01*
X2817564Y2331960D01*
X2891224D01*
Y2240520D01*
D02*
G37*
G36*
X2756604Y2286240D02*
X2798514Y2240520D01*
X2688024D01*
Y2331960D01*
X2798514D01*
X2756604Y2286240D01*
D02*
G37*
G36*
X2891224Y2050020D02*
X2817564D01*
X2775654Y2095740D01*
X2817564Y2141460D01*
X2891224D01*
Y2050020D01*
D02*
G37*
G36*
X2756604Y2095740D02*
X2798514Y2050020D01*
X2688024D01*
Y2141460D01*
X2798514D01*
X2756604Y2095740D01*
D02*
G37*
G36*
X2891224Y1859520D02*
X2817564D01*
X2775654Y1905240D01*
X2817564Y1950960D01*
X2891224D01*
Y1859520D01*
D02*
G37*
G36*
X2756604Y1905240D02*
X2798514Y1859520D01*
X2688024D01*
Y1950960D01*
X2798514D01*
X2756604Y1905240D01*
D02*
G37*
G36*
X2891224Y1669020D02*
X2817564D01*
X2775654Y1714740D01*
X2817564Y1760460D01*
X2891224D01*
Y1669020D01*
D02*
G37*
G36*
X2756604Y1714740D02*
X2798514Y1669020D01*
X2688024D01*
Y1760460D01*
X2798514D01*
X2756604Y1714740D01*
D02*
G37*
G36*
X6453588Y1555875D02*
X6343098D01*
X6385008Y1601595D01*
X6343098Y1647315D01*
X6453588D01*
Y1555875D01*
D02*
G37*
G36*
X6365958Y1601595D02*
X6324048Y1555875D01*
X6250388D01*
Y1647315D01*
X6324048D01*
X6365958Y1601595D01*
D02*
G37*
G36*
X2891224Y1478520D02*
X2817564D01*
X2775654Y1524240D01*
X2817564Y1569960D01*
X2891224D01*
Y1478520D01*
D02*
G37*
G36*
X2756604Y1524240D02*
X2798514Y1478520D01*
X2688024D01*
Y1569960D01*
X2798514D01*
X2756604Y1524240D01*
D02*
G37*
G36*
X2891224Y1288020D02*
X2817564D01*
X2775654Y1333740D01*
X2817564Y1379460D01*
X2891224D01*
Y1288020D01*
D02*
G37*
G36*
X2756604Y1333740D02*
X2798514Y1288020D01*
X2688024D01*
Y1379460D01*
X2798514D01*
X2756604Y1333740D01*
D02*
G37*
G36*
X2891224Y1097520D02*
X2817564D01*
X2775654Y1143240D01*
X2817564Y1188960D01*
X2891224D01*
Y1097520D01*
D02*
G37*
G36*
X2756604Y1143240D02*
X2798514Y1097520D01*
X2688024D01*
Y1188960D01*
X2798514D01*
X2756604Y1143240D01*
D02*
G37*
G36*
X2891224Y907020D02*
X2817564D01*
X2775654Y952740D01*
X2817564Y998460D01*
X2891224D01*
Y907020D01*
D02*
G37*
G36*
X2756604Y952740D02*
X2798514Y907020D01*
X2688024D01*
Y998460D01*
X2798514D01*
X2756604Y952740D01*
D02*
G37*
G36*
X2891224Y716520D02*
X2817564D01*
X2775654Y762240D01*
X2817564Y807960D01*
X2891224D01*
Y716520D01*
D02*
G37*
G36*
X2756604Y762240D02*
X2798514Y716520D01*
X2688024D01*
Y807960D01*
X2798514D01*
X2756604Y762240D01*
D02*
G37*
G36*
X2891224Y526020D02*
X2817564D01*
X2775654Y571740D01*
X2817564Y617460D01*
X2891224D01*
Y526020D01*
D02*
G37*
G36*
X2756604Y571740D02*
X2798514Y526020D01*
X2688024D01*
Y617460D01*
X2798514D01*
X2756604Y571740D01*
D02*
G37*
D45*
X5016500Y2921000D02*
D03*
X6070600Y1605400D02*
D03*
X228600Y1765300D02*
D03*
Y1511300D02*
D03*
X901700Y1473200D02*
D03*
Y1155700D02*
D03*
X2082800Y482600D02*
D03*
X3251200Y426500D02*
D03*
X5135202Y1349404D02*
D03*
X3543300Y1498600D02*
D03*
%TF.MD5,a78600e100eea442464f85a625a25cc4*%
M02*
