%TF.GenerationSoftware,Altium Limited,Altium Designer,24.10.1 (45)*%
G04 Layer_Color=255*
%FSLAX45Y45*%
%MOMM*%
%TF.SameCoordinates,F50C4461-6059-43A5-BEE7-B7ABC5EDFC2B*%
%TF.FilePolarity,Positive*%
%TF.FileFunction,Pads,Top*%
%TF.Part,Single*%
G01*
G75*
%TA.AperFunction,SMDPad,CuDef*%
%ADD10R,2.50000X3.50000*%
G04:AMPARAMS|DCode=11|XSize=0.49mm|YSize=0.6mm|CornerRadius=0.049mm|HoleSize=0mm|Usage=FLASHONLY|Rotation=90.000|XOffset=0mm|YOffset=0mm|HoleType=Round|Shape=RoundedRectangle|*
%AMROUNDEDRECTD11*
21,1,0.49000,0.50200,0,0,90.0*
21,1,0.39200,0.60000,0,0,90.0*
1,1,0.09800,0.25100,0.19600*
1,1,0.09800,0.25100,-0.19600*
1,1,0.09800,-0.25100,-0.19600*
1,1,0.09800,-0.25100,0.19600*
%
%ADD11ROUNDEDRECTD11*%
G04:AMPARAMS|DCode=12|XSize=0.6mm|YSize=0.54mm|CornerRadius=0.1431mm|HoleSize=0mm|Usage=FLASHONLY|Rotation=0.000|XOffset=0mm|YOffset=0mm|HoleType=Round|Shape=RoundedRectangle|*
%AMROUNDEDRECTD12*
21,1,0.60000,0.25380,0,0,0.0*
21,1,0.31380,0.54000,0,0,0.0*
1,1,0.28620,0.15690,-0.12690*
1,1,0.28620,-0.15690,-0.12690*
1,1,0.28620,-0.15690,0.12690*
1,1,0.28620,0.15690,0.12690*
%
%ADD12ROUNDEDRECTD12*%
G04:AMPARAMS|DCode=13|XSize=0.9mm|YSize=0.96mm|CornerRadius=0.225mm|HoleSize=0mm|Usage=FLASHONLY|Rotation=180.000|XOffset=0mm|YOffset=0mm|HoleType=Round|Shape=RoundedRectangle|*
%AMROUNDEDRECTD13*
21,1,0.90000,0.51000,0,0,180.0*
21,1,0.45000,0.96000,0,0,180.0*
1,1,0.45000,-0.22500,0.25500*
1,1,0.45000,0.22500,0.25500*
1,1,0.45000,0.22500,-0.25500*
1,1,0.45000,-0.22500,-0.25500*
%
%ADD13ROUNDEDRECTD13*%
%ADD14R,3.59999X2.47000*%
%ADD15R,0.98001X2.47000*%
G04:AMPARAMS|DCode=16|XSize=0.49mm|YSize=0.6mm|CornerRadius=0.049mm|HoleSize=0mm|Usage=FLASHONLY|Rotation=180.000|XOffset=0mm|YOffset=0mm|HoleType=Round|Shape=RoundedRectangle|*
%AMROUNDEDRECTD16*
21,1,0.49000,0.50200,0,0,180.0*
21,1,0.39200,0.60000,0,0,180.0*
1,1,0.09800,-0.19600,0.25100*
1,1,0.09800,0.19600,0.25100*
1,1,0.09800,0.19600,-0.25100*
1,1,0.09800,-0.19600,-0.25100*
%
%ADD16ROUNDEDRECTD16*%
%ADD17O,1.90000X0.70000*%
%ADD18O,3.49999X2.00000*%
%ADD19O,2.10000X0.70000*%
G04:AMPARAMS|DCode=20|XSize=1.15mm|YSize=1.45mm|CornerRadius=0.2875mm|HoleSize=0mm|Usage=FLASHONLY|Rotation=270.000|XOffset=0mm|YOffset=0mm|HoleType=Round|Shape=RoundedRectangle|*
%AMROUNDEDRECTD20*
21,1,1.15000,0.87500,0,0,270.0*
21,1,0.57500,1.45000,0,0,270.0*
1,1,0.57500,-0.43750,-0.28750*
1,1,0.57500,-0.43750,0.28750*
1,1,0.57500,0.43750,0.28750*
1,1,0.57500,0.43750,-0.28750*
%
%ADD20ROUNDEDRECTD20*%
G04:AMPARAMS|DCode=21|XSize=0.6mm|YSize=0.54mm|CornerRadius=0.1431mm|HoleSize=0mm|Usage=FLASHONLY|Rotation=270.000|XOffset=0mm|YOffset=0mm|HoleType=Round|Shape=RoundedRectangle|*
%AMROUNDEDRECTD21*
21,1,0.60000,0.25380,0,0,270.0*
21,1,0.31380,0.54000,0,0,270.0*
1,1,0.28620,-0.12690,-0.15690*
1,1,0.28620,-0.12690,0.15690*
1,1,0.28620,0.12690,0.15690*
1,1,0.28620,0.12690,-0.15690*
%
%ADD21ROUNDEDRECTD21*%
%ADD22R,0.60000X1.10000*%
G04:AMPARAMS|DCode=23|XSize=0.9mm|YSize=0.96mm|CornerRadius=0.225mm|HoleSize=0mm|Usage=FLASHONLY|Rotation=270.000|XOffset=0mm|YOffset=0mm|HoleType=Round|Shape=RoundedRectangle|*
%AMROUNDEDRECTD23*
21,1,0.90000,0.51000,0,0,270.0*
21,1,0.45000,0.96000,0,0,270.0*
1,1,0.45000,-0.25500,-0.22500*
1,1,0.45000,-0.25500,0.22500*
1,1,0.45000,0.25500,0.22500*
1,1,0.45000,0.25500,-0.22500*
%
%ADD23ROUNDEDRECTD23*%
%ADD24R,1.50000X2.50000*%
%ADD25R,0.66500X0.28001*%
%TA.AperFunction,ConnectorPad*%
%ADD26R,1.15001X0.60000*%
%ADD27R,1.15001X0.30000*%
%TA.AperFunction,ComponentPad*%
%ADD33R,1.40000X1.40000*%
%ADD34C,1.40000*%
%ADD35C,2.00000*%
%ADD36R,2.00000X2.00000*%
%ADD37C,5.00000*%
%ADD38C,1.60000*%
%ADD39C,0.64999*%
%ADD40O,1.90000X1.00000*%
%ADD41O,2.10000X1.00000*%
D10*
X3517500Y2514600D02*
D03*
X4102500D02*
D03*
X3517500Y1079500D02*
D03*
X4102500D02*
D03*
D11*
X3251200Y1912843D02*
D03*
Y1821843D02*
D03*
X1612900Y2636300D02*
D03*
Y2545300D02*
D03*
X1358900Y2636300D02*
D03*
Y2545300D02*
D03*
X3771900Y388400D02*
D03*
Y297400D02*
D03*
X3251200Y335500D02*
D03*
Y426500D02*
D03*
X3771900Y1925100D02*
D03*
Y1834100D02*
D03*
D12*
X2984500Y1909900D02*
D03*
Y1823900D02*
D03*
X3111500Y1909900D02*
D03*
Y1823900D02*
D03*
X3314700Y1011100D02*
D03*
Y1097100D02*
D03*
X5321300Y1595300D02*
D03*
Y1681300D02*
D03*
X5448300Y1595300D02*
D03*
Y1681300D02*
D03*
X4826000Y2382700D02*
D03*
Y2468700D02*
D03*
X4981329Y2383017D02*
D03*
Y2469017D02*
D03*
Y1036500D02*
D03*
Y1122500D02*
D03*
X4826000Y1036500D02*
D03*
Y1122500D02*
D03*
X3111500Y338000D02*
D03*
Y424000D02*
D03*
X2984500Y337067D02*
D03*
Y423067D02*
D03*
X3314700Y2433500D02*
D03*
Y2519500D02*
D03*
D13*
X1757800Y1219200D02*
D03*
X1595000D02*
D03*
X1427600D02*
D03*
X1264800D02*
D03*
X1074300Y1892300D02*
D03*
X1237100D02*
D03*
D14*
X1498600Y364211D02*
D03*
D15*
X1268603Y931189D02*
D03*
X1498600Y931190D02*
D03*
X1728597Y931189D02*
D03*
D16*
X1109607Y1634066D02*
D03*
Y1752599D02*
D03*
X3027900Y114300D02*
D03*
X3118900D02*
D03*
X3027900Y215900D02*
D03*
X3118900D02*
D03*
X3258840Y1590276D02*
D03*
X3167840D02*
D03*
X3167600Y1701800D02*
D03*
X3258600D02*
D03*
X2191800Y1638300D02*
D03*
X2100800D02*
D03*
X2191800Y1752600D02*
D03*
X2100800D02*
D03*
X2191800Y1866900D02*
D03*
X2100800D02*
D03*
X2191800Y1981200D02*
D03*
X2100800Y1981200D02*
D03*
X2191800Y2095500D02*
D03*
X2100800D02*
D03*
X2191800Y965200D02*
D03*
X2100800D02*
D03*
X2191800Y1066800D02*
D03*
X2100800D02*
D03*
X2191800Y1181100D02*
D03*
X2100800D02*
D03*
X2191800Y1295400D02*
D03*
X2100800D02*
D03*
X2191800Y1409700D02*
D03*
X2100800D02*
D03*
X2191800Y1524000D02*
D03*
X2100800D02*
D03*
X1200607Y1515533D02*
D03*
X1109607D02*
D03*
X1200607Y1634066D02*
D03*
Y1752599D02*
D03*
Y1397000D02*
D03*
X1109607D02*
D03*
D17*
X4777232Y1742186D02*
D03*
Y2042414D02*
D03*
D18*
X5027168Y1892300D02*
D03*
D19*
X4787138D02*
D03*
D20*
X5816600Y1573700D02*
D03*
Y1753700D02*
D03*
X4394200Y989183D02*
D03*
Y1169183D02*
D03*
X4635500Y989500D02*
D03*
Y1169500D02*
D03*
X2565400Y278300D02*
D03*
Y458300D02*
D03*
X2794000Y278300D02*
D03*
Y458300D02*
D03*
Y1776583D02*
D03*
Y1956583D02*
D03*
X4635501Y2515700D02*
D03*
Y2335700D02*
D03*
X4394200Y2515700D02*
D03*
X4394199Y2335700D02*
D03*
X2565400Y1956583D02*
D03*
Y1776583D02*
D03*
D21*
X4680738Y1581410D02*
D03*
X4766738D02*
D03*
X4674891Y1464618D02*
D03*
X4760891D02*
D03*
X1430200Y1841500D02*
D03*
X1516200D02*
D03*
D22*
X3397504Y207899D02*
D03*
X3492500D02*
D03*
X3587496D02*
D03*
Y477901D02*
D03*
X3492500D02*
D03*
X3397504D02*
D03*
Y1731899D02*
D03*
X3492500D02*
D03*
X3587496D02*
D03*
Y2001901D02*
D03*
X3492500D02*
D03*
X3397504D02*
D03*
D23*
X5600700Y1569600D02*
D03*
Y1732400D02*
D03*
D24*
X1485900Y1600200D02*
D03*
D25*
X1626641Y1700200D02*
D03*
X1626641Y1650187D02*
D03*
X1626641Y1600200D02*
D03*
Y1550187D02*
D03*
Y1500200D02*
D03*
X1345159D02*
D03*
Y1550187D02*
D03*
Y1600200D02*
D03*
X1345159Y1650187D02*
D03*
X1345159Y1700200D02*
D03*
D26*
X641840Y1273513D02*
D03*
Y1353500D02*
D03*
Y1833510D02*
D03*
Y1913489D02*
D03*
D27*
Y1418504D02*
D03*
Y1468509D02*
D03*
Y1518494D02*
D03*
Y1568504D02*
D03*
Y1618494D02*
D03*
Y1668504D02*
D03*
Y1718491D02*
D03*
Y1768506D02*
D03*
D33*
X6669100Y1093498D02*
D03*
D34*
X6869100D02*
D03*
X6669100Y1293498D02*
D03*
X6869100D02*
D03*
X6669100Y1493498D02*
D03*
X6869100D02*
D03*
X6669100Y1693497D02*
D03*
X6869100D02*
D03*
X6669100Y1893497D02*
D03*
X6869100D02*
D03*
X6669100Y2093496D02*
D03*
X6869100D02*
D03*
D35*
X1866900Y2870200D02*
D03*
X1612900D02*
D03*
X1358900D02*
D03*
D36*
X1104900D02*
D03*
D37*
X6743700Y2857500D02*
D03*
X330200D02*
D03*
Y381000D02*
D03*
X6743700D02*
D03*
D38*
X5964199Y2726500D02*
D03*
Y2226500D02*
D03*
X5364201Y2726500D02*
D03*
Y2226500D02*
D03*
X5389601Y537400D02*
D03*
Y1037399D02*
D03*
X5989599Y537400D02*
D03*
Y1037399D02*
D03*
D39*
X515569Y1304486D02*
D03*
Y1882488D02*
D03*
D40*
X145560Y1160989D02*
D03*
Y2026011D02*
D03*
D41*
X565559Y1160989D02*
D03*
Y2026011D02*
D03*
%TF.MD5,cfa6dafe3bbffd0fa2b618d985c61a3c*%
M02*
