%TF.GenerationSoftware,Altium Limited,Altium Designer,24.10.1 (45)*%
G04 Layer_Color=2752767*
%FSLAX45Y45*%
%MOMM*%
%TF.SameCoordinates,F50C4461-6059-43A5-BEE7-B7ABC5EDFC2B*%
%TF.FilePolarity,Positive*%
%TF.FileFunction,Drawing*%
%TF.Part,Single*%
G01*
G75*
%TA.AperFunction,NonConductor*%
%ADD84C,0.12700*%
%ADD96C,0.16933*%
D84*
X6643700Y1068098D02*
Y1042698D01*
X6694500D01*
Y1068098D01*
X6719900D01*
Y1118898D01*
X6694500D01*
Y1144298D01*
X6643700D01*
Y1118898D01*
X6618300D01*
Y1068098D01*
X6643700D01*
X6843700D02*
Y1042698D01*
X6894500D01*
Y1068098D01*
X6919900D01*
Y1118898D01*
X6894500D01*
Y1144298D01*
X6843700D01*
Y1118898D01*
X6818300D01*
Y1068098D01*
X6843700D01*
X6643700Y1268098D02*
Y1242698D01*
X6694500D01*
Y1268098D01*
X6719900D01*
Y1318898D01*
X6694500D01*
Y1344298D01*
X6643700D01*
Y1318898D01*
X6618300D01*
Y1268098D01*
X6643700D01*
X6843700D02*
Y1242698D01*
X6894500D01*
Y1268098D01*
X6919900D01*
Y1318898D01*
X6894500D01*
Y1344298D01*
X6843700D01*
Y1318898D01*
X6818300D01*
Y1268098D01*
X6843700D01*
X6643700Y1468098D02*
Y1442698D01*
X6694500D01*
Y1468098D01*
X6719900D01*
Y1518898D01*
X6694500D01*
Y1544298D01*
X6643700D01*
Y1518898D01*
X6618300D01*
Y1468098D01*
X6643700D01*
X6843700D02*
Y1442698D01*
X6894500D01*
Y1468098D01*
X6919900D01*
Y1518898D01*
X6894500D01*
Y1544298D01*
X6843700D01*
Y1518898D01*
X6818300D01*
Y1468098D01*
X6843700D01*
X6643700Y1668097D02*
Y1642697D01*
X6694500D01*
Y1668097D01*
X6719900D01*
Y1718897D01*
X6694500D01*
Y1744297D01*
X6643700D01*
Y1718897D01*
X6618300D01*
Y1668097D01*
X6643700D01*
X6843700D02*
Y1642697D01*
X6894500D01*
Y1668097D01*
X6919900D01*
Y1718897D01*
X6894500D01*
Y1744297D01*
X6843700D01*
Y1718897D01*
X6818300D01*
Y1668097D01*
X6843700D01*
X6643700Y1868097D02*
Y1842697D01*
X6694500D01*
Y1868097D01*
X6719900D01*
Y1918897D01*
X6694500D01*
Y1944297D01*
X6643700D01*
Y1918897D01*
X6618300D01*
Y1868097D01*
X6643700D01*
X6843700D02*
Y1842697D01*
X6894500D01*
Y1868097D01*
X6919900D01*
Y1918897D01*
X6894500D01*
Y1944297D01*
X6843700D01*
Y1918897D01*
X6818300D01*
Y1868097D01*
X6843700D01*
X6643700Y2068099D02*
Y2042699D01*
X6694500D01*
Y2068099D01*
X6719900D01*
Y2118899D01*
X6694500D01*
Y2144299D01*
X6643700D01*
Y2118899D01*
X6618300D01*
Y2068099D01*
X6643700D01*
X6843700D02*
Y2042699D01*
X6894500D01*
Y2068099D01*
X6919900D01*
Y2118899D01*
X6894500D01*
Y2144299D01*
X6843700D01*
Y2118899D01*
X6818300D01*
Y2068099D01*
X6843700D01*
X1816100Y2819400D02*
Y2921000D01*
X1917700D01*
Y2819400D01*
X1816100D01*
X1562100D02*
Y2921000D01*
X1663700D01*
Y2819400D01*
X1562100D01*
X1308100D02*
Y2921000D01*
X1409700D01*
Y2819400D01*
X1308100D01*
X1054100D02*
Y2921000D01*
X1155700D01*
Y2819400D01*
X1054100D01*
X6692900Y2806700D02*
X6718300D01*
X6743700Y2832100D01*
X6769100Y2806700D01*
X6794500D01*
Y2832100D01*
X6769100Y2857500D01*
X6794500Y2882900D01*
Y2908300D01*
X6769100D01*
X6743700Y2882900D01*
X6718300Y2908300D01*
X6692900D01*
Y2882900D01*
X6718300Y2857500D01*
X6692900Y2832100D01*
Y2806700D01*
X279400D02*
X304800D01*
X330200Y2832100D01*
X355600Y2806700D01*
X381000D01*
Y2832100D01*
X355600Y2857500D01*
X381000Y2882900D01*
Y2908300D01*
X355600D01*
X330200Y2882900D01*
X304800Y2908300D01*
X279400D01*
Y2882900D01*
X304800Y2857500D01*
X279400Y2832100D01*
Y2806700D01*
Y330200D02*
X304800D01*
X330200Y355600D01*
X355600Y330200D01*
X381000D01*
Y355600D01*
X355600Y381000D01*
X381000Y406400D01*
Y431800D01*
X355600D01*
X330200Y406400D01*
X304800Y431800D01*
X279400D01*
Y406400D01*
X304800Y381000D01*
X279400Y355600D01*
Y330200D01*
X6692900D02*
X6718300D01*
X6743700Y355600D01*
X6769100Y330200D01*
X6794500D01*
Y355600D01*
X6769100Y381000D01*
X6794500Y406400D01*
Y431800D01*
X6769100D01*
X6743700Y406400D01*
X6718300Y431800D01*
X6692900D01*
Y406400D01*
X6718300Y381000D01*
X6692900Y355600D01*
Y330200D01*
X5913387Y2675699D02*
X5938787Y2726500D01*
X5913387Y2777300D01*
X5964187Y2751900D01*
X6014987Y2777300D01*
X5989587Y2726500D01*
X6014987Y2675699D01*
X5964187Y2701100D01*
X5913387Y2675699D01*
Y2175700D02*
X5938787Y2226500D01*
X5913387Y2277300D01*
X5964187Y2251900D01*
X6014987Y2277300D01*
X5989587Y2226500D01*
X6014987Y2175700D01*
X5964187Y2201100D01*
X5913387Y2175700D01*
X5313388Y2675699D02*
X5338788Y2726500D01*
X5313388Y2777300D01*
X5364188Y2751900D01*
X5414988Y2777300D01*
X5389588Y2726500D01*
X5414988Y2675699D01*
X5364188Y2701100D01*
X5313388Y2675699D01*
Y2175700D02*
X5338788Y2226500D01*
X5313388Y2277300D01*
X5364188Y2251900D01*
X5414988Y2277300D01*
X5389588Y2226500D01*
X5414988Y2175700D01*
X5364188Y2201100D01*
X5313388Y2175700D01*
X5338813Y486600D02*
X5364213Y537400D01*
X5338813Y588200D01*
X5389613Y562800D01*
X5440413Y588200D01*
X5415013Y537400D01*
X5440413Y486600D01*
X5389613Y512000D01*
X5338813Y486600D01*
Y986599D02*
X5364213Y1037399D01*
X5338813Y1088199D01*
X5389613Y1062800D01*
X5440413Y1088199D01*
X5415013Y1037399D01*
X5440413Y986599D01*
X5389613Y1011999D01*
X5338813Y986599D01*
X5938812Y486600D02*
X5964212Y537400D01*
X5938812Y588200D01*
X5989612Y562800D01*
X6040412Y588200D01*
X6015012Y537400D01*
X6040412Y486600D01*
X5989612Y512000D01*
X5938812Y486600D01*
Y986599D02*
X5964212Y1037399D01*
X5938812Y1088199D01*
X5989612Y1062800D01*
X6040412Y1088199D01*
X6015012Y1037399D01*
X6040412Y986599D01*
X5989612Y1011999D01*
X5938812Y986599D01*
X145560Y1110189D02*
X94760Y1211789D01*
X196360D01*
X145560Y1110189D01*
Y1975211D02*
X94760Y2076811D01*
X196360D01*
X145560Y1975211D01*
X565559Y1110189D02*
X590959Y1135589D01*
X616359D01*
X590959Y1160989D01*
X616359Y1186389D01*
X590959D01*
X565559Y1211789D01*
X540159Y1186389D01*
X514759D01*
X540159Y1160989D01*
X514759Y1135589D01*
X540159D01*
X565559Y1110189D01*
Y1975211D02*
X590959Y2000611D01*
X616359D01*
X590959Y2026011D01*
X616359Y2051411D01*
X590959D01*
X565559Y2076811D01*
X540159Y2051411D01*
X514759D01*
X540159Y2026011D01*
X514759Y2000611D01*
X540159D01*
X565559Y1975211D01*
X6134100Y1587500D02*
X6184900Y1638300D01*
X6235700Y1587500D01*
X6184900Y1536700D01*
X6134100Y1587500D01*
X3530600Y342900D02*
X3581400Y393700D01*
X3632200Y342900D01*
X3581400Y292100D01*
X3530600Y342900D01*
X2197100Y495300D02*
X2247900Y546100D01*
X2298700Y495300D01*
X2247900Y444500D01*
X2197100Y495300D01*
X371119Y1690606D02*
X421919Y1741406D01*
X472719Y1690606D01*
X421919Y1639806D01*
X371119Y1690606D01*
X368300Y1600200D02*
X419100Y1651000D01*
X469900Y1600200D01*
X419100Y1549400D01*
X368300Y1600200D01*
X858176Y1641031D02*
X908976Y1691831D01*
X959776Y1641031D01*
X908976Y1590231D01*
X858176Y1641031D01*
X860303Y1749516D02*
X911103Y1800316D01*
X961903Y1749516D01*
X911103Y1698716D01*
X860303Y1749516D01*
X809124Y1698108D02*
X859924Y1748908D01*
X910724Y1698108D01*
X859924Y1647308D01*
X809124Y1698108D01*
X1930400Y1778000D02*
X1981200Y1828800D01*
X2032000Y1778000D01*
X1981200Y1727200D01*
X1930400Y1778000D01*
Y1219200D02*
X1981200Y1270000D01*
X2032000Y1219200D01*
X1981200Y1168400D01*
X1930400Y1219200D01*
X1662040Y1545830D02*
X1712840Y1596630D01*
X1763640Y1545830D01*
X1712840Y1495030D01*
X1662040Y1545830D01*
X1727200Y1460500D02*
X1778000Y1511300D01*
X1828800Y1460500D01*
X1778000Y1409700D01*
X1727200Y1460500D01*
X5270500Y1498600D02*
X5321300Y1549400D01*
X5372100Y1498600D01*
X5321300Y1447800D01*
X5270500Y1498600D01*
X4851400Y2286000D02*
X4902200Y2336800D01*
X4953000Y2286000D01*
X4902200Y2235200D01*
X4851400Y2286000D01*
X2882900Y215900D02*
X2933700Y266700D01*
X2984500Y215900D01*
X2933700Y165100D01*
X2882900Y215900D01*
X2743200Y127000D02*
X2794000Y177800D01*
X2844800Y127000D01*
X2794000Y76200D01*
X2743200Y127000D01*
X4838700Y939800D02*
X4889500Y990600D01*
X4940300Y939800D01*
X4889500Y889000D01*
X4838700Y939800D01*
X4933195Y937880D02*
X4983995Y988680D01*
X5034795Y937880D01*
X4983995Y887080D01*
X4933195Y937880D01*
X4584700Y838200D02*
X4635500Y889000D01*
X4686300Y838200D01*
X4635500Y787400D01*
X4584700Y838200D01*
X4343400D02*
X4394200Y889000D01*
X4445000Y838200D01*
X4394200Y787400D01*
X4343400Y838200D01*
X5765800Y1422400D02*
X5816600Y1473200D01*
X5867400Y1422400D01*
X5816600Y1371600D01*
X5765800Y1422400D01*
X5397500Y1498600D02*
X5448300Y1549400D01*
X5499100Y1498600D01*
X5448300Y1447800D01*
X5397500Y1498600D01*
X2514600Y127000D02*
X2565400Y177800D01*
X2616200Y127000D01*
X2565400Y76200D01*
X2514600Y127000D01*
X3200400Y228600D02*
X3251200Y279400D01*
X3302000Y228600D01*
X3251200Y177800D01*
X3200400Y228600D01*
X2997200Y292100D02*
X3048000Y342900D01*
X3098800Y292100D01*
X3048000Y241300D01*
X2997200Y292100D01*
X3594100Y584200D02*
X3644900Y635000D01*
X3695700Y584200D01*
X3644900Y533400D01*
X3594100Y584200D01*
X1435877Y1508226D02*
X1486677Y1559026D01*
X1537477Y1508226D01*
X1486677Y1457426D01*
X1435877Y1508226D01*
X1435100Y1689100D02*
X1485900Y1739900D01*
X1536700Y1689100D01*
X1485900Y1638300D01*
X1435100Y1689100D01*
Y1600200D02*
X1485900Y1651000D01*
X1536700Y1600200D01*
X1485900Y1549400D01*
X1435100Y1600200D01*
X952500Y1308100D02*
X1003300Y1358900D01*
X1054100Y1308100D01*
X1003300Y1257300D01*
X952500Y1308100D01*
X698500Y1955800D02*
X749300Y2006600D01*
X800100Y1955800D01*
X749300Y1905000D01*
X698500Y1955800D01*
X1473200Y1917700D02*
X1524000Y1968500D01*
X1574800Y1917700D01*
X1524000Y1866900D01*
X1473200Y1917700D01*
X2578100Y1600200D02*
X2628900Y1651000D01*
X2679700Y1600200D01*
X2628900Y1549400D01*
X2578100Y1600200D01*
X3048000Y1752600D02*
X3098800Y1803400D01*
X3149600Y1752600D01*
X3098800Y1701800D01*
X3048000Y1752600D01*
X2921000D02*
X2971800Y1803400D01*
X3022600Y1752600D01*
X2971800Y1701800D01*
X2921000Y1752600D01*
X3213100Y1498600D02*
X3263900Y1549400D01*
X3314700Y1498600D01*
X3263900Y1447800D01*
X3213100Y1498600D01*
X5124623Y2995386D02*
X5175423Y3046186D01*
X5226223Y2995386D01*
X5175423Y2944586D01*
X5124623Y2995386D01*
X5154232Y1213894D02*
X5205032Y1264694D01*
X5255832Y1213894D01*
X5205032Y1163094D01*
X5154232Y1213894D01*
X5956300Y1816100D02*
X6007100Y1866900D01*
X6057900Y1816100D01*
X6007100Y1765300D01*
X5956300Y1816100D01*
X5918200Y1727200D02*
X5969000Y1778000D01*
X6019800Y1727200D01*
X5969000Y1676400D01*
X5918200Y1727200D01*
X6197600Y1790700D02*
X6248400Y1841500D01*
X6299200Y1790700D01*
X6248400Y1739900D01*
X6197600Y1790700D01*
X5994400Y1892300D02*
X6045200Y1943100D01*
X6096000Y1892300D01*
X6045200Y1841500D01*
X5994400Y1892300D01*
X2882900Y114300D02*
X2933700Y165100D01*
X2984500Y114300D01*
X2933700Y63500D01*
X2882900Y114300D01*
X4775200Y1206500D02*
X4826000Y1257300D01*
X4876800Y1206500D01*
X4826000Y1155700D01*
X4775200Y1206500D01*
X4940300Y2247900D02*
X4991100Y2298700D01*
X5041900Y2247900D01*
X4991100Y2197100D01*
X4940300Y2247900D01*
X4559300Y2184400D02*
X4610100Y2235200D01*
X4660900Y2184400D01*
X4610100Y2133600D01*
X4559300Y2184400D01*
X4343400D02*
X4394200Y2235200D01*
X4445000Y2184400D01*
X4394200Y2133600D01*
X4343400Y2184400D01*
X3113011Y1493272D02*
X3163811Y1544072D01*
X3214611Y1493272D01*
X3163811Y1442472D01*
X3113011Y1493272D01*
X4776711Y2471172D02*
X4827511Y2521972D01*
X4878311Y2471172D01*
X4827511Y2420372D01*
X4776711Y2471172D01*
X3568700Y2108200D02*
X3619500Y2159000D01*
X3670300Y2108200D01*
X3619500Y2057400D01*
X3568700Y2108200D01*
X3168054Y2431683D02*
X3218854Y2482483D01*
X3269654Y2431683D01*
X3218854Y2380883D01*
X3168054Y2431683D01*
X3722611Y2001272D02*
X3773411Y2052072D01*
X3824211Y2001272D01*
X3773411Y1950472D01*
X3722611Y2001272D01*
X3163811Y997972D02*
X3214611Y1048772D01*
X3265411Y997972D01*
X3214611Y947172D01*
X3163811Y997972D01*
X3725266Y474721D02*
X3776066Y525521D01*
X3826866Y474721D01*
X3776066Y423921D01*
X3725266Y474721D01*
X2222500Y965200D02*
X2273300Y1016000D01*
X2324100Y965200D01*
X2273300Y914400D01*
X2222500Y965200D01*
X2217615Y1064881D02*
X2268415Y1115681D01*
X2319215Y1064881D01*
X2268415Y1014081D01*
X2217615Y1064881D01*
X2221311Y1181100D02*
X2272111Y1231900D01*
X2322911Y1181100D01*
X2272111Y1130300D01*
X2221311Y1181100D01*
Y1295400D02*
X2272111Y1346200D01*
X2322911Y1295400D01*
X2272111Y1244600D01*
X2221311Y1295400D01*
Y1419304D02*
X2272111Y1470104D01*
X2322911Y1419304D01*
X2272111Y1368504D01*
X2221311Y1419304D01*
Y1520904D02*
X2272111Y1571704D01*
X2322911Y1520904D01*
X2272111Y1470104D01*
X2221311Y1520904D01*
Y1635204D02*
X2272111Y1686004D01*
X2322911Y1635204D01*
X2272111Y1584404D01*
X2221311Y1635204D01*
Y1749504D02*
X2272111Y1800304D01*
X2322911Y1749504D01*
X2272111Y1698704D01*
X2221311Y1749504D01*
Y1863804D02*
X2272111Y1914604D01*
X2322911Y1863804D01*
X2272111Y1813004D01*
X2221311Y1863804D01*
Y1978104D02*
X2272111Y2028904D01*
X2322911Y1978104D01*
X2272111Y1927304D01*
X2221311Y1978104D01*
Y2097582D02*
X2272111Y2148382D01*
X2322911Y2097582D01*
X2272111Y2046782D01*
X2221311Y2097582D01*
X1041400Y1155700D02*
X1092200Y1206500D01*
X1143000Y1155700D01*
X1092200Y1104900D01*
X1041400Y1155700D01*
X863600Y1511300D02*
X914400Y1562100D01*
X965200Y1511300D01*
X914400Y1460500D01*
X863600Y1511300D01*
X6486834Y2839448D02*
X6537634Y2890248D01*
X6588434Y2839448D01*
X6537634Y2788648D01*
X6486834Y2839448D01*
X6499534Y2915648D02*
X6550334Y2966448D01*
X6601134Y2915648D01*
X6550334Y2864848D01*
X6499534Y2915648D01*
X6537634Y2979148D02*
X6588434Y3029948D01*
X6639234Y2979148D01*
X6588434Y2928348D01*
X6537634Y2979148D01*
X6588434Y3029948D02*
X6639234Y3080748D01*
X6690034Y3029948D01*
X6639234Y2979148D01*
X6588434Y3029948D01*
X6664634Y3055348D02*
X6715434Y3106148D01*
X6766234Y3055348D01*
X6715434Y3004548D01*
X6664634Y3055348D01*
X6740834D02*
X6791634Y3106148D01*
X6842434Y3055348D01*
X6791634Y3004548D01*
X6740834Y3055348D01*
X6817034Y3017248D02*
X6867834Y3068048D01*
X6918634Y3017248D01*
X6867834Y2966448D01*
X6817034Y3017248D01*
X6867834Y2953748D02*
X6918634Y3004548D01*
X6969434Y2953748D01*
X6918634Y2902948D01*
X6867834Y2953748D01*
X6893234Y2877548D02*
X6944034Y2928348D01*
X6994834Y2877548D01*
X6944034Y2826748D01*
X6893234Y2877548D01*
Y2801348D02*
X6944034Y2852148D01*
X6994834Y2801348D01*
X6944034Y2750548D01*
X6893234Y2801348D01*
X6855134Y2737848D02*
X6905934Y2788648D01*
X6956734Y2737848D01*
X6905934Y2687048D01*
X6855134Y2737848D01*
X6791634Y2687048D02*
X6842434Y2737848D01*
X6893234Y2687048D01*
X6842434Y2636248D01*
X6791634Y2687048D01*
X6715434Y2661648D02*
X6766234Y2712448D01*
X6817034Y2661648D01*
X6766234Y2610848D01*
X6715434Y2661648D01*
X6639234Y2674348D02*
X6690034Y2725148D01*
X6740834Y2674348D01*
X6690034Y2623548D01*
X6639234Y2674348D01*
X6563034Y2712448D02*
X6613834Y2763248D01*
X6664634Y2712448D01*
X6613834Y2661648D01*
X6563034Y2712448D01*
X6512234Y2763248D02*
X6563034Y2814048D01*
X6613834Y2763248D01*
X6563034Y2712448D01*
X6512234Y2763248D01*
X73334Y2839448D02*
X124134Y2890248D01*
X174934Y2839448D01*
X124134Y2788648D01*
X73334Y2839448D01*
X86034Y2915648D02*
X136834Y2966448D01*
X187634Y2915648D01*
X136834Y2864848D01*
X86034Y2915648D01*
X124134Y2979148D02*
X174934Y3029948D01*
X225734Y2979148D01*
X174934Y2928348D01*
X124134Y2979148D01*
X174934Y3029948D02*
X225734Y3080748D01*
X276534Y3029948D01*
X225734Y2979148D01*
X174934Y3029948D01*
X251134Y3055348D02*
X301934Y3106148D01*
X352734Y3055348D01*
X301934Y3004548D01*
X251134Y3055348D01*
X327334D02*
X378134Y3106148D01*
X428934Y3055348D01*
X378134Y3004548D01*
X327334Y3055348D01*
X403534Y3017248D02*
X454334Y3068048D01*
X505134Y3017248D01*
X454334Y2966448D01*
X403534Y3017248D01*
X454334Y2953748D02*
X505134Y3004548D01*
X555934Y2953748D01*
X505134Y2902948D01*
X454334Y2953748D01*
X479734Y2877548D02*
X530534Y2928348D01*
X581334Y2877548D01*
X530534Y2826748D01*
X479734Y2877548D01*
Y2801348D02*
X530534Y2852148D01*
X581334Y2801348D01*
X530534Y2750548D01*
X479734Y2801348D01*
X441634Y2737848D02*
X492434Y2788648D01*
X543234Y2737848D01*
X492434Y2687048D01*
X441634Y2737848D01*
X378134Y2687048D02*
X428934Y2737848D01*
X479734Y2687048D01*
X428934Y2636248D01*
X378134Y2687048D01*
X301934Y2661648D02*
X352734Y2712448D01*
X403534Y2661648D01*
X352734Y2610848D01*
X301934Y2661648D01*
X225734Y2674348D02*
X276534Y2725148D01*
X327334Y2674348D01*
X276534Y2623548D01*
X225734Y2674348D01*
X149534Y2712448D02*
X200334Y2763248D01*
X251134Y2712448D01*
X200334Y2661648D01*
X149534Y2712448D01*
X98734Y2763248D02*
X149534Y2814048D01*
X200334Y2763248D01*
X149534Y2712448D01*
X98734Y2763248D01*
X73334Y362948D02*
X124134Y413748D01*
X174934Y362948D01*
X124134Y312148D01*
X73334Y362948D01*
X86034Y439148D02*
X136834Y489948D01*
X187634Y439148D01*
X136834Y388348D01*
X86034Y439148D01*
X124134Y502648D02*
X174934Y553448D01*
X225734Y502648D01*
X174934Y451848D01*
X124134Y502648D01*
X174934Y553448D02*
X225734Y604248D01*
X276534Y553448D01*
X225734Y502648D01*
X174934Y553448D01*
X251134Y578848D02*
X301934Y629648D01*
X352734Y578848D01*
X301934Y528048D01*
X251134Y578848D01*
X327334D02*
X378134Y629648D01*
X428934Y578848D01*
X378134Y528048D01*
X327334Y578848D01*
X403534Y540748D02*
X454334Y591548D01*
X505134Y540748D01*
X454334Y489948D01*
X403534Y540748D01*
X454334Y477248D02*
X505134Y528048D01*
X555934Y477248D01*
X505134Y426448D01*
X454334Y477248D01*
X479734Y401048D02*
X530534Y451848D01*
X581334Y401048D01*
X530534Y350248D01*
X479734Y401048D01*
Y324848D02*
X530534Y375648D01*
X581334Y324848D01*
X530534Y274048D01*
X479734Y324848D01*
X441634Y261348D02*
X492434Y312148D01*
X543234Y261348D01*
X492434Y210548D01*
X441634Y261348D01*
X378134Y210548D02*
X428934Y261348D01*
X479734Y210548D01*
X428934Y159748D01*
X378134Y210548D01*
X301934Y185148D02*
X352734Y235948D01*
X403534Y185148D01*
X352734Y134348D01*
X301934Y185148D01*
X225734Y197848D02*
X276534Y248648D01*
X327334Y197848D01*
X276534Y147048D01*
X225734Y197848D01*
X149534Y235948D02*
X200334Y286748D01*
X251134Y235948D01*
X200334Y185148D01*
X149534Y235948D01*
X98734Y286748D02*
X149534Y337548D01*
X200334Y286748D01*
X149534Y235948D01*
X98734Y286748D01*
X6486834Y362948D02*
X6537634Y413748D01*
X6588434Y362948D01*
X6537634Y312148D01*
X6486834Y362948D01*
X6499534Y439148D02*
X6550334Y489948D01*
X6601134Y439148D01*
X6550334Y388348D01*
X6499534Y439148D01*
X6537634Y502648D02*
X6588434Y553448D01*
X6639234Y502648D01*
X6588434Y451848D01*
X6537634Y502648D01*
X6588434Y553448D02*
X6639234Y604248D01*
X6690034Y553448D01*
X6639234Y502648D01*
X6588434Y553448D01*
X6664634Y578848D02*
X6715434Y629648D01*
X6766234Y578848D01*
X6715434Y528048D01*
X6664634Y578848D01*
X6740834D02*
X6791634Y629648D01*
X6842434Y578848D01*
X6791634Y528048D01*
X6740834Y578848D01*
X6817034Y540748D02*
X6867834Y591548D01*
X6918634Y540748D01*
X6867834Y489948D01*
X6817034Y540748D01*
X6867834Y477248D02*
X6918634Y528048D01*
X6969434Y477248D01*
X6918634Y426448D01*
X6867834Y477248D01*
X6893234Y401048D02*
X6944034Y451848D01*
X6994834Y401048D01*
X6944034Y350248D01*
X6893234Y401048D01*
Y324848D02*
X6944034Y375648D01*
X6994834Y324848D01*
X6944034Y274048D01*
X6893234Y324848D01*
X6855134Y261348D02*
X6905934Y312148D01*
X6956734Y261348D01*
X6905934Y210548D01*
X6855134Y261348D01*
X6791634Y210548D02*
X6842434Y261348D01*
X6893234Y210548D01*
X6842434Y159748D01*
X6791634Y210548D01*
X6715434Y185148D02*
X6766234Y235948D01*
X6817034Y185148D01*
X6766234Y134348D01*
X6715434Y185148D01*
X6639234Y197848D02*
X6690034Y248648D01*
X6740834Y197848D01*
X6690034Y147048D01*
X6639234Y197848D01*
X6563034Y235948D02*
X6613834Y286748D01*
X6664634Y235948D01*
X6613834Y185148D01*
X6563034Y235948D01*
X6512234Y286748D02*
X6563034Y337548D01*
X6613834Y286748D01*
X6563034Y235948D01*
X6512234Y286748D01*
D96*
X566369Y1304486D02*
G03*
X566369Y1304486I-50800J0D01*
G01*
Y1882488D02*
G03*
X566369Y1882488I-50800J0D01*
G01*
%TF.MD5,3728283ee599e1478da548da41213d84*%
M02*
