%TF.GenerationSoftware,Altium Limited,Altium Designer,24.10.1 (45)*%
G04 Layer_Color=128*
%FSLAX45Y45*%
%MOMM*%
%TF.SameCoordinates,F50C4461-6059-43A5-BEE7-B7ABC5EDFC2B*%
%TF.FilePolarity,Positive*%
%TF.FileFunction,Drillmap*%
%TF.Part,Single*%
G01*
G75*
%TA.AperFunction,NonConductor*%
%ADD84C,0.12700*%
D84*
X6629100Y1093498D02*
X6709100D01*
X6669100Y1053499D02*
Y1133498D01*
X6829100Y1093498D02*
X6909100D01*
X6869100Y1053499D02*
Y1133498D01*
X6629100Y1293498D02*
X6709100D01*
X6669100Y1253498D02*
Y1333498D01*
X6829100Y1293498D02*
X6909100D01*
X6869100Y1253498D02*
Y1333498D01*
X6629100Y1493498D02*
X6709100D01*
X6669100Y1453498D02*
Y1533498D01*
X6829100Y1493498D02*
X6909100D01*
X6869100Y1453498D02*
Y1533498D01*
X6629100Y1693497D02*
X6709100D01*
X6669100Y1653497D02*
Y1733497D01*
X6829100Y1693497D02*
X6909100D01*
X6869100Y1653497D02*
Y1733497D01*
X6629100Y1893497D02*
X6709100D01*
X6669100Y1853497D02*
Y1933497D01*
X6829100Y1893497D02*
X6909100D01*
X6869100Y1853497D02*
Y1933497D01*
X6629100Y2093499D02*
X6709100D01*
X6669100Y2053499D02*
Y2133499D01*
X6829100Y2093499D02*
X6909100D01*
X6869100Y2053499D02*
Y2133499D01*
X1811900Y2870200D02*
X1921900D01*
X1866900Y2815200D02*
Y2925200D01*
X1557900Y2870200D02*
X1667900D01*
X1612900Y2815200D02*
Y2925200D01*
X1303900Y2870200D02*
X1413900D01*
X1358900Y2815200D02*
Y2925200D01*
X1049900Y2870200D02*
X1159900D01*
X1104900Y2815200D02*
Y2925200D01*
X6593700Y2857500D02*
X6893700D01*
X6743700Y2707500D02*
Y3007500D01*
X180200Y2857500D02*
X480200D01*
X330200Y2707500D02*
Y3007500D01*
X180200Y381000D02*
X480200D01*
X330200Y231000D02*
Y531000D01*
X6593700Y381000D02*
X6893700D01*
X6743700Y231000D02*
Y531000D01*
X5914187Y2726500D02*
X6014187D01*
X5964187Y2676500D02*
Y2776499D01*
X5914187Y2226500D02*
X6014187D01*
X5964187Y2176501D02*
Y2276500D01*
X5314188Y2726500D02*
X5414188D01*
X5364188Y2676500D02*
Y2776499D01*
X5314188Y2226500D02*
X5414188D01*
X5364188Y2176501D02*
Y2276500D01*
X5339613Y537400D02*
X5439613D01*
X5389613Y487401D02*
Y587400D01*
X5339613Y1037399D02*
X5439613D01*
X5389613Y987400D02*
Y1087399D01*
X5939612Y537400D02*
X6039612D01*
X5989612Y487401D02*
Y587400D01*
X5939612Y1037399D02*
X6039612D01*
X5989612Y987400D02*
Y1087399D01*
X483070Y1304486D02*
X548069D01*
X515569Y1271987D02*
Y1336985D01*
X483070Y1882488D02*
X548069D01*
X515569Y1849989D02*
Y1914988D01*
X115560Y1160989D02*
X175560D01*
X145560Y1130989D02*
Y1190989D01*
X115560Y2026011D02*
X175560D01*
X145560Y1996011D02*
Y2056011D01*
X535559Y1160989D02*
X595559D01*
X565559Y1130989D02*
Y1190989D01*
X535559Y2026011D02*
X595559D01*
X565559Y1996011D02*
Y2056011D01*
X6169900Y1587500D02*
X6199900D01*
X6184900Y1572500D02*
Y1602500D01*
X3566400Y342900D02*
X3596400D01*
X3581400Y327900D02*
Y357900D01*
X2232900Y495300D02*
X2262900D01*
X2247900Y480300D02*
Y510300D01*
X406919Y1690606D02*
X436919D01*
X421919Y1675606D02*
Y1705606D01*
X404100Y1600200D02*
X434100D01*
X419100Y1585200D02*
Y1615200D01*
X893976Y1641031D02*
X923976D01*
X908976Y1626031D02*
Y1656031D01*
X896103Y1749516D02*
X926103D01*
X911103Y1734516D02*
Y1764516D01*
X844924Y1698108D02*
X874924D01*
X859924Y1683108D02*
Y1713108D01*
X1966200Y1778000D02*
X1996200D01*
X1981200Y1763000D02*
Y1793000D01*
X1966200Y1219200D02*
X1996200D01*
X1981200Y1204200D02*
Y1234200D01*
X1697840Y1545830D02*
X1727840D01*
X1712840Y1530830D02*
Y1560830D01*
X1763000Y1460500D02*
X1793000D01*
X1778000Y1445500D02*
Y1475500D01*
X5306300Y1498600D02*
X5336300D01*
X5321300Y1483600D02*
Y1513600D01*
X4887200Y2286000D02*
X4917200D01*
X4902200Y2271000D02*
Y2301000D01*
X2918700Y215900D02*
X2948700D01*
X2933700Y200900D02*
Y230900D01*
X2779000Y127000D02*
X2809000D01*
X2794000Y112000D02*
Y142000D01*
X4874500Y939800D02*
X4904500D01*
X4889500Y924800D02*
Y954800D01*
X4968995Y937880D02*
X4998995D01*
X4983995Y922880D02*
Y952880D01*
X4620500Y838200D02*
X4650500D01*
X4635500Y823200D02*
Y853200D01*
X4379200Y838200D02*
X4409200D01*
X4394200Y823200D02*
Y853200D01*
X5801600Y1422400D02*
X5831600D01*
X5816600Y1407400D02*
Y1437400D01*
X5433300Y1498600D02*
X5463300D01*
X5448300Y1483600D02*
Y1513600D01*
X2550400Y127000D02*
X2580400D01*
X2565400Y112000D02*
Y142000D01*
X3236200Y228600D02*
X3266200D01*
X3251200Y213600D02*
Y243600D01*
X3033000Y292100D02*
X3063000D01*
X3048000Y277100D02*
Y307100D01*
X3629900Y584200D02*
X3659900D01*
X3644900Y569200D02*
Y599200D01*
X1471677Y1508226D02*
X1501677D01*
X1486677Y1493226D02*
Y1523226D01*
X1470900Y1689100D02*
X1500900D01*
X1485900Y1674100D02*
Y1704100D01*
X1470900Y1600200D02*
X1500900D01*
X1485900Y1585200D02*
Y1615200D01*
X988300Y1308100D02*
X1018300D01*
X1003300Y1293100D02*
Y1323100D01*
X734300Y1955800D02*
X764300D01*
X749300Y1940800D02*
Y1970800D01*
X1509000Y1917700D02*
X1539000D01*
X1524000Y1902700D02*
Y1932700D01*
X2613900Y1600200D02*
X2643900D01*
X2628900Y1585200D02*
Y1615200D01*
X3083800Y1752600D02*
X3113800D01*
X3098800Y1737600D02*
Y1767600D01*
X2956800Y1752600D02*
X2986800D01*
X2971800Y1737600D02*
Y1767600D01*
X3248900Y1498600D02*
X3278900D01*
X3263900Y1483600D02*
Y1513600D01*
X5160423Y2995386D02*
X5190423D01*
X5175423Y2980386D02*
Y3010386D01*
X5190032Y1213894D02*
X5220032D01*
X5205032Y1198894D02*
Y1228894D01*
X5992100Y1816100D02*
X6022100D01*
X6007100Y1801100D02*
Y1831100D01*
X5954000Y1727200D02*
X5984000D01*
X5969000Y1712200D02*
Y1742200D01*
X6233400Y1790700D02*
X6263400D01*
X6248400Y1775700D02*
Y1805700D01*
X6030200Y1892300D02*
X6060200D01*
X6045200Y1877300D02*
Y1907300D01*
X2918700Y114300D02*
X2948700D01*
X2933700Y99300D02*
Y129300D01*
X4811000Y1206500D02*
X4841000D01*
X4826000Y1191500D02*
Y1221500D01*
X4976100Y2247900D02*
X5006100D01*
X4991100Y2232900D02*
Y2262900D01*
X4595100Y2184400D02*
X4625100D01*
X4610100Y2169400D02*
Y2199400D01*
X4379200Y2184400D02*
X4409200D01*
X4394200Y2169400D02*
Y2199400D01*
X3148811Y1493272D02*
X3178811D01*
X3163811Y1478272D02*
Y1508272D01*
X4812511Y2471172D02*
X4842511D01*
X4827511Y2456172D02*
Y2486172D01*
X3604500Y2108200D02*
X3634500D01*
X3619500Y2093200D02*
Y2123200D01*
X3203854Y2431683D02*
X3233854D01*
X3218854Y2416683D02*
Y2446683D01*
X3758411Y2001272D02*
X3788411D01*
X3773411Y1986272D02*
Y2016272D01*
X3199611Y997972D02*
X3229611D01*
X3214611Y982972D02*
Y1012972D01*
X3761066Y474721D02*
X3791066D01*
X3776066Y459721D02*
Y489721D01*
X2258300Y965200D02*
X2288300D01*
X2273300Y950200D02*
Y980200D01*
X2253415Y1064881D02*
X2283415D01*
X2268415Y1049881D02*
Y1079881D01*
X2257111Y1181100D02*
X2287111D01*
X2272111Y1166100D02*
Y1196100D01*
X2257111Y1295400D02*
X2287111D01*
X2272111Y1280400D02*
Y1310400D01*
X2257111Y1419304D02*
X2287111D01*
X2272111Y1404304D02*
Y1434304D01*
X2257111Y1520904D02*
X2287111D01*
X2272111Y1505904D02*
Y1535904D01*
X2257111Y1635204D02*
X2287111D01*
X2272111Y1620204D02*
Y1650204D01*
X2257111Y1749504D02*
X2287111D01*
X2272111Y1734504D02*
Y1764504D01*
X2257111Y1863804D02*
X2287111D01*
X2272111Y1848804D02*
Y1878804D01*
X2257111Y1978104D02*
X2287111D01*
X2272111Y1963104D02*
Y1993104D01*
X2257111Y2097582D02*
X2287111D01*
X2272111Y2082582D02*
Y2112582D01*
X1077200Y1155700D02*
X1107200D01*
X1092200Y1140700D02*
Y1170700D01*
X899400Y1511300D02*
X929400D01*
X914400Y1496300D02*
Y1526300D01*
X6522634Y2839448D02*
X6552634D01*
X6537634Y2824448D02*
Y2854448D01*
X6535334Y2915648D02*
X6565334D01*
X6550334Y2900648D02*
Y2930648D01*
X6573434Y2979148D02*
X6603434D01*
X6588434Y2964148D02*
Y2994148D01*
X6624234Y3029948D02*
X6654234D01*
X6639234Y3014948D02*
Y3044948D01*
X6700434Y3055348D02*
X6730434D01*
X6715434Y3040348D02*
Y3070348D01*
X6776634Y3055348D02*
X6806634D01*
X6791634Y3040348D02*
Y3070348D01*
X6852834Y3017248D02*
X6882834D01*
X6867834Y3002248D02*
Y3032248D01*
X6903634Y2953748D02*
X6933634D01*
X6918634Y2938748D02*
Y2968748D01*
X6929034Y2877548D02*
X6959034D01*
X6944034Y2862548D02*
Y2892548D01*
X6929034Y2801348D02*
X6959034D01*
X6944034Y2786348D02*
Y2816348D01*
X6890934Y2737848D02*
X6920934D01*
X6905934Y2722848D02*
Y2752848D01*
X6827434Y2687048D02*
X6857434D01*
X6842434Y2672048D02*
Y2702048D01*
X6751234Y2661648D02*
X6781234D01*
X6766234Y2646648D02*
Y2676648D01*
X6675034Y2674348D02*
X6705034D01*
X6690034Y2659348D02*
Y2689348D01*
X6598834Y2712448D02*
X6628834D01*
X6613834Y2697448D02*
Y2727448D01*
X6548034Y2763248D02*
X6578034D01*
X6563034Y2748248D02*
Y2778248D01*
X109134Y2839448D02*
X139134D01*
X124134Y2824448D02*
Y2854448D01*
X121834Y2915648D02*
X151834D01*
X136834Y2900648D02*
Y2930648D01*
X159934Y2979148D02*
X189934D01*
X174934Y2964148D02*
Y2994148D01*
X210734Y3029948D02*
X240734D01*
X225734Y3014948D02*
Y3044948D01*
X286934Y3055348D02*
X316934D01*
X301934Y3040348D02*
Y3070348D01*
X363134Y3055348D02*
X393134D01*
X378134Y3040348D02*
Y3070348D01*
X439334Y3017248D02*
X469334D01*
X454334Y3002248D02*
Y3032248D01*
X490134Y2953748D02*
X520134D01*
X505134Y2938748D02*
Y2968748D01*
X515534Y2877548D02*
X545534D01*
X530534Y2862548D02*
Y2892548D01*
X515534Y2801348D02*
X545534D01*
X530534Y2786348D02*
Y2816348D01*
X477434Y2737848D02*
X507434D01*
X492434Y2722848D02*
Y2752848D01*
X413934Y2687048D02*
X443934D01*
X428934Y2672048D02*
Y2702048D01*
X337734Y2661648D02*
X367734D01*
X352734Y2646648D02*
Y2676648D01*
X261534Y2674348D02*
X291534D01*
X276534Y2659348D02*
Y2689348D01*
X185334Y2712448D02*
X215334D01*
X200334Y2697448D02*
Y2727448D01*
X134534Y2763248D02*
X164534D01*
X149534Y2748248D02*
Y2778248D01*
X109134Y362948D02*
X139134D01*
X124134Y347948D02*
Y377948D01*
X121834Y439148D02*
X151834D01*
X136834Y424148D02*
Y454148D01*
X159934Y502648D02*
X189934D01*
X174934Y487648D02*
Y517648D01*
X210734Y553448D02*
X240734D01*
X225734Y538448D02*
Y568448D01*
X286934Y578848D02*
X316934D01*
X301934Y563848D02*
Y593848D01*
X363134Y578848D02*
X393134D01*
X378134Y563848D02*
Y593848D01*
X439334Y540748D02*
X469334D01*
X454334Y525748D02*
Y555748D01*
X490134Y477248D02*
X520134D01*
X505134Y462248D02*
Y492248D01*
X515534Y401048D02*
X545534D01*
X530534Y386048D02*
Y416048D01*
X515534Y324848D02*
X545534D01*
X530534Y309848D02*
Y339848D01*
X477434Y261348D02*
X507434D01*
X492434Y246348D02*
Y276348D01*
X413934Y210548D02*
X443934D01*
X428934Y195548D02*
Y225548D01*
X337734Y185148D02*
X367734D01*
X352734Y170148D02*
Y200148D01*
X261534Y197848D02*
X291534D01*
X276534Y182848D02*
Y212848D01*
X185334Y235948D02*
X215334D01*
X200334Y220948D02*
Y250948D01*
X134534Y286748D02*
X164534D01*
X149534Y271748D02*
Y301748D01*
X6522634Y362948D02*
X6552634D01*
X6537634Y347948D02*
Y377948D01*
X6535334Y439148D02*
X6565334D01*
X6550334Y424148D02*
Y454148D01*
X6573434Y502648D02*
X6603434D01*
X6588434Y487648D02*
Y517648D01*
X6624234Y553448D02*
X6654234D01*
X6639234Y538448D02*
Y568448D01*
X6700434Y578848D02*
X6730434D01*
X6715434Y563848D02*
Y593848D01*
X6776634Y578848D02*
X6806634D01*
X6791634Y563848D02*
Y593848D01*
X6852834Y540748D02*
X6882834D01*
X6867834Y525748D02*
Y555748D01*
X6903634Y477248D02*
X6933634D01*
X6918634Y462248D02*
Y492248D01*
X6929034Y401048D02*
X6959034D01*
X6944034Y386048D02*
Y416048D01*
X6929034Y324848D02*
X6959034D01*
X6944034Y309848D02*
Y339848D01*
X6890934Y261348D02*
X6920934D01*
X6905934Y246348D02*
Y276348D01*
X6827434Y210548D02*
X6857434D01*
X6842434Y195548D02*
Y225548D01*
X6751234Y185148D02*
X6781234D01*
X6766234Y170148D02*
Y200148D01*
X6675034Y197848D02*
X6705034D01*
X6690034Y182848D02*
Y212848D01*
X6598834Y235948D02*
X6628834D01*
X6613834Y220948D02*
Y250948D01*
X6548034Y286748D02*
X6578034D01*
X6563034Y271748D02*
Y301748D01*
%TF.MD5,aa95a0b3c9b65f190565c735bdc15fa4*%
M02*
